<svg width="98" height="64" viewBox="0 0 98 64" fill="none" xmlns="http://www.w3.org/2000/svg">
<rect x="1.46408" y="12.9033" width="93" height="50" transform="rotate(-2.66059 1.46408 12.9033)" stroke="black"/>
<line x1="8.32297" y1="15.0874" x2="10.2262" y2="56.0432" stroke="black" stroke-width="0.5"/>
<line x1="48.279" y1="13.2303" x2="50.1822" y2="54.1861" stroke="black" stroke-width="0.5"/>
<line x1="57.2702" y1="12.8125" x2="58.8949" y2="47.7748" stroke="black" stroke-width="0.5"/>
<line x1="74.2517" y1="12.0234" x2="75.8764" y2="46.9857" stroke="black" stroke-width="0.5"/>
<line x1="13.3181" y1="14.855" x2="15.2213" y2="55.8108" stroke="black" stroke-width="0.5"/>
<line x1="51.2761" y1="13.0912" x2="53.1793" y2="54.047" stroke="black" stroke-width="0.5"/>
<line x1="61.2654" y1="12.6272" x2="62.89" y2="47.5895" stroke="black" stroke-width="0.5"/>
<line x1="88.237" y1="11.3736" x2="89.8617" y2="46.3359" stroke="black" stroke-width="0.5"/>
<line x1="63.2634" y1="12.5342" x2="64.8881" y2="47.4964" stroke="black" stroke-width="0.5"/>
<line x1="89.2361" y1="11.3273" x2="90.8607" y2="46.2895" stroke="black" stroke-width="0.5"/>
<line x1="80.2448" y1="11.7451" x2="81.8695" y2="46.7074" stroke="black" stroke-width="0.5"/>
<line x1="57.1296" y1="9.81603" x2="58.8935" y2="47.7751" stroke="black" stroke-width="0.5"/>
<line x1="29.2995" y1="14.1124" x2="30.9242" y2="49.0747" stroke="black" stroke-width="0.5"/>
<line x1="36.2927" y1="13.7876" x2="37.9174" y2="48.7499" stroke="black" stroke-width="0.5"/>
<line x1="34.2947" y1="13.8801" x2="35.9193" y2="48.8424" stroke="black" stroke-width="0.5"/>
<line x1="38.2907" y1="13.6944" x2="39.9154" y2="48.6567" stroke="black" stroke-width="0.5"/>
<line x1="39.5385" y1="13.6369" x2="41.1632" y2="48.5992" stroke="black"/>
<line x1="52.5249" y1="13.0331" x2="54.1495" y2="47.9953" stroke="black"/>
<line x1="66.5102" y1="12.3833" x2="68.1349" y2="47.3456" stroke="black"/>
<line x1="70.5063" y1="12.1977" x2="72.131" y2="47.16" stroke="black"/>
<line x1="14.3161" y1="14.809" x2="15.9408" y2="49.7712" stroke="black" stroke-width="0.5"/>
<line x1="17.5639" y1="14.6578" x2="19.1886" y2="49.6201" stroke="black"/>
<line x1="19.561" y1="14.565" x2="21.1857" y2="49.5273" stroke="black"/>
<line x1="26.0536" y1="14.2635" x2="27.6783" y2="49.2258" stroke="black" stroke-width="2"/>
<line x1="44.0341" y1="13.4278" x2="45.6588" y2="48.3901" stroke="black" stroke-width="2"/>
<line x1="75.8603" y1="8.94589" x2="77.6242" y2="46.9049" stroke="black" stroke-width="2"/>
<line x1="84.8515" y1="8.52792" x2="86.6154" y2="46.487" stroke="black" stroke-width="2"/>
<path d="M20.6387 5.45131L20.5045 2.56231L21.6463 2.50925L23.3252 4.65769L23.1882 4.66406L24.6607 2.36917L25.7949 2.31647L25.9291 5.20546L25.1527 5.24154L25.0411 2.84164L25.11 2.84675L23.6491 5.06218L22.8955 5.0972L21.2355 3.0268L21.3036 3.01532L21.4151 5.41523L20.6387 5.45131Z" fill="black"/>
<path d="M26.6045 5.17408L28.5331 2.18922L29.1345 2.16128L31.324 4.95477L30.479 4.99403L28.8661 2.78852L27.457 5.13446L26.6045 5.17408ZM27.7926 4.47502L28.011 4.08687L29.8227 4.00268L30.099 4.36784L27.7926 4.47502Z" fill="black"/>
<path d="M32.0122 4.92279L31.878 2.03379L33.3699 1.96446C34.2428 1.92389 34.9237 2.02102 35.4127 2.25584C35.9066 2.48766 36.1644 2.83706 36.1861 3.30406C36.2074 3.76276 35.9853 4.12616 35.5197 4.39426C35.059 4.65936 34.3847 4.81254 33.4966 4.85381L32.0122 4.92279ZM32.7705 4.49708L33.41 4.46737C33.8413 4.44733 34.2077 4.39707 34.5091 4.3166C34.8105 4.23613 35.0363 4.11487 35.1864 3.95282C35.3416 3.79053 35.4132 3.58089 35.4013 3.32391C35.3895 3.06969 35.3013 2.86886 35.1368 2.72143C34.9722 2.57123 34.7411 2.46843 34.4435 2.41303C34.1458 2.35486 33.7915 2.33533 33.3804 2.35443L32.6725 2.38733L32.7705 4.49708Z" fill="black"/>
<path d="M37.1786 4.68271L37.0444 1.79371L40.5535 1.63064L40.5711 2.00782L37.8383 2.13481L37.8776 2.98037L40.382 2.864L40.3995 3.24118L37.8952 3.35756L37.9375 4.26944L40.6703 4.14245L40.6878 4.51964L37.1786 4.68271Z" fill="black"/>
<path d="M43.5939 4.38459L43.4596 1.49559L44.2361 1.45951L44.3703 4.34851L43.5939 4.38459Z" fill="black"/>
<path d="M45.5118 4.29547L45.3775 1.40647L46.1844 1.36898L48.9346 3.5881L48.7519 3.59659L48.6431 1.25472L49.4119 1.21899L49.5462 4.10799L48.7241 4.1462L45.9965 1.92186L46.1792 1.91337L46.2882 4.25939L45.5118 4.29547Z" fill="black"/>
<path d="M54.9262 3.91198C54.434 3.93486 53.9972 3.89285 53.6159 3.78595C53.2397 3.67882 52.9423 3.51679 52.7237 3.29987C52.5051 3.08295 52.3888 2.82528 52.375 2.52684C52.3611 2.22841 52.453 1.96245 52.6507 1.72895C52.8482 1.4927 53.1293 1.30379 53.494 1.16223C53.8637 1.02043 54.2947 0.938093 54.787 0.915218C55.33 0.889985 55.8028 0.941399 56.2054 1.06946C56.6131 1.19728 56.9093 1.38706 57.0939 1.63879L56.3775 1.81746C56.2423 1.64375 56.0404 1.51328 55.7719 1.42607C55.5033 1.33609 55.1812 1.29982 54.8057 1.31727C54.4606 1.33331 54.1608 1.39293 53.9062 1.49615C53.6566 1.59637 53.4645 1.73129 53.33 1.90093C53.2004 2.06756 53.1409 2.26418 53.1514 2.49076C53.1619 2.71735 53.2395 2.90898 53.3841 3.06565C53.5338 3.22208 53.7376 3.33999 53.9956 3.41939C54.2585 3.49578 54.5625 3.52596 54.9076 3.50993C55.2831 3.49248 55.6005 3.42788 55.8597 3.31614C56.1189 3.20164 56.3077 3.05163 56.4262 2.86612L57.1559 2.97345C56.9953 3.23845 56.718 3.45487 56.3241 3.62272C55.9352 3.79033 55.4692 3.88675 54.9262 3.91198Z" fill="black"/>
<path d="M58.0375 3.71341L57.9032 0.824408L58.6797 0.788327L58.7359 1.99864L61.2403 1.88226L61.1841 0.671951L61.9605 0.63587L62.0947 3.52487L61.3183 3.56095L61.2586 2.27603L58.7542 2.39241L58.8139 3.67733L58.0375 3.71341Z" fill="black"/>
<path d="M63.2336 3.47195L63.0994 0.582946L63.8758 0.546866L64.0101 3.43586L63.2336 3.47195Z" fill="black"/>
<path d="M65.1515 3.38282L65.0173 0.493823L65.8241 0.456328L68.5744 2.67546L68.3917 2.68394L68.2829 0.342074L69.0517 0.306347L69.1859 3.19535L68.3638 3.23355L65.6362 1.00922L65.8189 1.00073L65.928 3.34674L65.1515 3.38282Z" fill="black"/>
<path d="M69.861 3.16397L71.7896 0.179115L72.391 0.151171L74.5805 2.94466L73.7356 2.98393L72.1226 0.778412L70.7136 3.12436L69.861 3.16397ZM71.0491 2.46492L71.2675 2.07677L73.0792 1.99258L73.3555 2.35774L71.0491 2.46492Z" fill="black"/>
</svg>
