<svg width="814" height="814" viewBox="0 0 814 814" fill="none" xmlns="http://www.w3.org/2000/svg">
<g clip-path="url(#clip0_585_183)">
<rect x="2.10518" y="356.767" width="577" height="577" transform="rotate(-37.9275 2.10518 356.767)" fill="white" stroke="black" stroke-width="3"/>
<path d="M468.707 614.432C457.928 690.638 417.314 760.511 355.744 808.809L3.6787 356.975C65.5614 309.08 143.243 286.778 219.772 294.954C296.626 303.165 366.022 341.439 412.702 401.347C459.383 461.255 479.532 537.902 468.707 614.432Z" stroke="black" stroke-width="2"/>
<rect x="174.451" y="471.582" width="7.60889" height="119.125" transform="rotate(-5.35715 174.451 471.582)" fill="black"/>
<rect x="300.488" y="463.348" width="7.60889" height="171.621" transform="rotate(41.5832 300.488 463.348)" fill="black"/>
<circle cx="191.145" cy="588.991" r="8" transform="rotate(-8.98732 191.145 588.991)" fill="black"/>
<path d="M318.321 749.173L320.546 770.563L319.53 770.3C319.911 769.192 320.417 768.175 321.049 767.25C321.68 766.325 322.417 765.535 323.258 764.88C325.446 763.175 327.821 762.162 330.384 761.842C332.981 761.495 335.466 761.804 337.839 762.767C340.246 763.704 342.289 765.249 343.967 767.403C345.724 769.658 346.743 772.11 347.022 774.759C347.301 777.409 346.922 779.976 345.884 782.462C344.853 784.888 343.211 786.979 340.956 788.736C338.735 790.467 336.288 791.562 333.617 792.021C330.953 792.42 328.37 792.161 325.87 791.242C323.369 790.324 321.254 788.754 319.523 786.533C318.631 785.389 317.934 784.147 317.431 782.808C316.936 781.409 316.607 780.015 316.445 778.627L313.424 752.989L318.321 749.173ZM325.653 769.098C324.24 770.2 323.189 771.559 322.502 773.177C321.849 774.768 321.611 776.44 321.788 778.195C321.999 779.924 322.695 781.546 323.875 783.06C325.029 784.541 326.419 785.595 328.043 786.222C329.668 786.849 331.331 787.04 333.034 786.796C334.77 786.525 336.362 785.825 337.809 784.698C339.256 783.57 340.306 782.211 340.96 780.62C341.647 779.002 341.885 777.329 341.673 775.601C341.462 773.872 340.767 772.25 339.586 770.736C338.433 769.255 337.043 768.201 335.419 767.574C333.794 766.947 332.13 766.756 330.428 767C328.726 767.245 327.134 767.945 325.653 769.098Z" fill="black"/>
<path d="M424.695 696.859C422.642 698.458 420.4 699.503 417.968 699.991C415.57 700.454 413.195 700.357 410.844 699.7C408.527 699.018 406.41 697.828 404.493 696.131L408.093 692.108C409.325 693.204 410.697 694.027 412.209 694.58C413.729 695.072 415.28 695.189 416.863 694.929C418.479 694.643 420.011 693.937 421.458 692.809C423.141 691.498 424.27 689.996 424.844 688.304C425.393 686.578 425.472 684.84 425.081 683.089C424.724 681.312 423.982 679.7 422.854 678.253C421.752 676.839 420.453 675.796 418.955 675.124C417.465 674.392 415.886 674.135 414.217 674.354C412.556 674.512 410.901 675.234 409.252 676.519C407.771 677.673 406.687 679.059 406 680.676C405.313 682.293 405.03 684.082 405.151 686.043L400.057 688.147L389.137 667.366L407.714 652.889L410.822 656.877L393.809 670.134L394.665 666.547L402.813 682.105L401.404 682.796C401.511 680.226 402.051 678.073 403.026 676.34C404.035 674.58 405.263 673.136 406.71 672.009C408.965 670.252 411.37 669.243 413.926 668.982C416.489 668.662 418.954 669.013 421.32 670.036C423.685 671.059 425.695 672.631 427.347 674.751C428.658 676.434 429.601 678.269 430.175 680.255C430.723 682.208 430.901 684.206 430.708 686.25C430.489 688.259 429.885 690.191 428.895 692.044C427.879 693.864 426.479 695.469 424.695 696.859Z" fill="black"/>
<path d="M441.025 547.834L434.494 539.454L417.734 552.514L415.099 549.132L413.959 512.373L417.897 509.304L435.678 532.122L441.332 527.716L444.439 531.704L438.785 536.11L445.316 544.49L441.025 547.834ZM419.391 547.248L417.857 546.009L431.387 535.466L417.343 517.444L418.123 517.404L419.391 547.248Z" fill="black"/>
<path d="M381.248 442.933C378.724 444.899 376.165 446.163 373.572 446.723C370.953 447.249 368.48 447.094 366.151 446.258C363.797 445.388 361.754 443.843 360.023 441.622L364.067 438.065C365.798 440.286 367.949 441.45 370.52 441.556C373.064 441.628 375.616 440.668 378.174 438.675C379.856 437.364 381.094 435.967 381.886 434.484C382.678 433.001 383 431.506 382.853 429.998C382.739 428.464 382.158 427.024 381.109 425.678C380.138 424.432 379.069 423.616 377.901 423.228C376.707 422.806 375.455 422.727 374.146 422.99C372.844 423.193 371.491 423.679 370.089 424.447C368.686 425.216 367.278 426.151 365.865 427.252L363.229 423.87C364.272 423.057 365.216 422.186 366.061 421.257C366.913 420.268 367.556 419.254 367.989 418.213C368.456 417.146 368.62 416.072 368.48 414.991C368.374 413.883 367.889 412.774 367.023 411.663C366.158 410.553 365.128 409.787 363.934 409.365C362.74 408.943 361.501 408.881 360.218 409.177C358.908 409.44 357.614 410.07 356.335 411.067C354.249 412.693 353.062 414.537 352.776 416.599C352.49 418.661 353.025 420.597 354.381 422.407L349.994 425.42C348.473 423.468 347.607 421.384 347.395 419.169C347.158 416.921 347.535 414.733 348.529 412.606C349.556 410.454 351.147 408.538 353.3 406.86C355.353 405.26 357.469 404.261 359.646 403.862C361.831 403.404 363.916 403.51 365.9 404.182C367.883 404.854 369.584 406.098 371 407.916C371.787 408.925 372.343 409.952 372.67 410.996C372.97 412.006 373.07 413.037 372.97 414.088C372.904 415.114 372.671 416.134 372.271 417.148C371.879 418.103 371.384 419.029 370.786 419.928C371.979 419.377 373.218 418.953 374.501 418.656C375.784 418.359 377.071 418.276 378.363 418.406C379.654 418.535 380.898 418.918 382.096 419.553C383.294 420.188 384.392 421.145 385.388 422.424C387.041 424.544 387.958 426.832 388.14 429.286C388.355 431.715 387.875 434.117 386.698 436.495C385.555 438.846 383.738 440.992 381.248 442.933Z" fill="black"/>
<path d="M165.034 362.286L142.926 333.915L145.969 335.113L135.469 343.295L132.794 339.863L138.902 335.103C139.912 334.316 140.498 333.507 140.662 332.676C140.86 331.819 140.539 330.852 139.7 329.775L137.615 327.099L141.906 323.756L169.325 358.942L165.034 362.286Z" fill="black"/>
<path d="M44.2252 417.125L22.117 388.754L25.1604 389.952L14.66 398.135L11.985 394.702L18.0934 389.942C19.1031 389.155 19.6898 388.346 19.8537 387.515C20.0513 386.658 19.7304 385.691 18.8912 384.614L16.8063 381.939L21.0973 378.595L48.5162 413.781L44.2252 417.125ZM60.2065 404.672L57.4528 401.138C57.8964 399.278 58.4464 397.172 59.1029 394.821C59.793 392.445 60.4044 389.967 60.9372 387.388C61.5036 384.783 61.8698 382.199 62.0359 379.635C62.2355 377.045 62.1004 374.581 61.6305 372.243C61.1606 369.905 60.2307 367.843 58.8407 366.06C57.2934 364.074 55.4793 362.891 53.3983 362.512C51.3173 362.132 49.1999 362.781 47.046 364.46C45.4642 365.692 44.4233 367.098 43.9233 368.678C43.4307 370.198 43.4135 371.807 43.8716 373.505C44.3371 375.144 45.1825 376.784 46.4077 378.426L41.9816 381.388C40.6965 379.739 39.7426 377.994 39.1197 376.153C38.4706 374.279 38.2013 372.407 38.3118 370.535C38.3962 368.631 38.8959 366.808 39.8112 365.067C40.7338 363.266 42.1206 361.644 43.9717 360.202C46.0919 358.55 48.297 357.562 50.5869 357.238C52.8505 356.88 55.0493 357.168 57.1832 358.102C59.3244 358.975 61.2343 360.489 62.9128 362.643C64.3814 364.528 65.4442 366.621 66.1012 368.921C66.7918 371.196 67.1308 373.609 67.1182 376.161C67.1392 378.687 66.9096 381.273 66.4293 383.92C65.949 386.566 65.3021 389.206 64.4888 391.841C63.6754 394.477 62.7497 397.037 61.7117 399.523L61.6421 397.143L80.5731 382.391L83.6808 386.379L60.2065 404.672Z" fill="black"/>
<path d="M448.895 373.722C558.536 514.423 530.371 719.721 385.948 832.262C241.525 944.804 35.5691 921.946 -74.0722 781.245C-183.713 640.544 -155.548 435.247 -11.1254 322.705C133.298 210.163 339.253 233.022 448.895 373.722Z" stroke="black"/>
<path d="M271.098 388.664L268.344 385.13C268.788 383.27 269.338 381.164 269.994 378.814C270.684 376.437 271.296 373.959 271.828 371.38C272.395 368.775 272.761 366.191 272.927 363.627C273.127 361.038 272.992 358.573 272.522 356.235C272.052 353.897 271.122 351.836 269.732 350.052C268.185 348.066 266.37 346.884 264.289 346.504C262.208 346.124 260.091 346.773 257.937 348.452C256.355 349.684 255.314 351.09 254.814 352.67C254.322 354.19 254.305 355.799 254.763 357.497C255.228 359.136 256.074 360.776 257.299 362.418L252.873 365.38C251.588 363.731 250.634 361.986 250.011 360.146C249.362 358.271 249.092 356.399 249.203 354.528C249.287 352.623 249.787 350.8 250.702 349.059C251.625 347.258 253.012 345.637 254.863 344.194C256.983 342.542 259.188 341.554 261.478 341.23C263.742 340.872 265.94 341.16 268.074 342.094C270.216 342.968 272.125 344.481 273.804 346.635C275.273 348.52 276.335 350.613 276.992 352.914C277.683 355.188 278.022 357.602 278.009 360.154C278.03 362.68 277.801 365.266 277.32 367.912C276.84 370.558 276.193 373.198 275.38 375.834C274.567 378.469 273.641 381.029 272.603 383.515L272.533 381.135L291.464 366.383L294.572 370.371L271.098 388.664Z" fill="black"/>
</g>
<defs>
<clipPath id="clip0_585_183">
<rect width="580" height="580" fill="white" transform="translate(0 356.505) rotate(-37.9275)"/>
</clipPath>
</defs>
</svg>
