<svg width="480" height="294" viewBox="0 0 480 294" fill="none" xmlns="http://www.w3.org/2000/svg">
<rect x="184.255" y="168.615" width="7.60889" height="119.125" transform="rotate(-5.35715 184.255 168.615)" fill="black"/>
<rect x="310.292" y="160.382" width="7.60889" height="171.621" transform="rotate(41.5832 310.292 160.382)" fill="black"/>
<path d="M450.828 244.867L444.298 236.487L427.538 249.548L424.902 246.165L423.763 209.406L427.7 206.337L445.481 229.155L451.135 224.749L454.243 228.738L448.589 233.144L455.119 241.524L450.828 244.867ZM429.195 244.281L427.661 243.042L441.19 232.499L427.147 214.477L427.927 214.437L429.195 244.281Z" fill="black"/>
<path d="M391.052 139.966C388.527 141.933 385.969 143.196 383.376 143.756C380.757 144.282 378.284 144.127 375.955 143.291C373.601 142.422 371.558 140.876 369.827 138.655L373.871 135.098C375.602 137.319 377.753 138.483 380.324 138.589C382.868 138.662 385.419 137.701 387.977 135.708C389.66 134.397 390.897 133 391.689 131.517C392.481 130.035 392.804 128.539 392.656 127.031C392.543 125.497 391.961 124.057 390.912 122.711C389.942 121.466 388.873 120.649 387.705 120.261C386.511 119.839 385.259 119.76 383.949 120.023C382.647 120.226 381.295 120.712 379.892 121.481C378.49 122.249 377.082 123.184 375.668 124.285L373.033 120.903C374.076 120.09 375.02 119.219 375.865 118.29C376.717 117.302 377.36 116.287 377.793 115.246C378.26 114.179 378.423 113.105 378.284 112.024C378.178 110.916 377.693 109.807 376.827 108.697C375.962 107.586 374.932 106.82 373.738 106.398C372.544 105.976 371.305 105.914 370.022 106.211C368.712 106.474 367.418 107.104 366.139 108.1C364.053 109.726 362.866 111.57 362.58 113.632C362.294 115.695 362.829 117.631 364.185 119.441L359.798 122.453C358.277 120.501 357.411 118.418 357.199 116.203C356.961 113.954 357.339 111.766 358.333 109.64C359.36 107.487 360.95 105.571 363.104 103.893C365.157 102.293 367.272 101.294 369.45 100.895C371.635 100.437 373.719 100.543 375.703 101.215C377.687 101.887 379.387 103.132 380.803 104.949C381.59 105.959 382.147 106.985 382.473 108.029C382.774 109.039 382.874 110.07 382.774 111.122C382.707 112.147 382.474 113.167 382.075 114.181C381.683 115.136 381.188 116.063 380.59 116.961C381.783 116.41 383.021 115.986 384.305 115.689C385.588 115.392 386.875 115.309 388.166 115.439C389.457 115.569 390.702 115.951 391.9 116.586C393.098 117.221 394.196 118.178 395.192 119.457C396.844 121.577 397.761 123.865 397.943 126.319C398.159 128.748 397.678 131.151 396.502 133.528C395.359 135.879 393.542 138.025 391.052 139.966Z" fill="black"/>
<path d="M174.838 59.3189L152.729 30.9477L155.773 32.1462L145.272 40.3286L142.597 36.8958L148.706 32.1358C149.715 31.349 150.302 30.5402 150.466 29.7093C150.664 28.8522 150.343 27.8851 149.504 26.8082L147.419 24.1326L151.71 20.7888L179.129 55.9751L174.838 59.3189Z" fill="black"/>
<path d="M54.0289 114.158L31.9207 85.787L34.9641 86.9854L24.4638 95.1678L21.7887 91.735L27.8971 86.9751C28.9068 86.1883 29.4935 85.3794 29.6574 84.5485C29.855 83.6914 29.5341 82.7244 28.6949 81.6474L26.61 78.9718L30.901 75.6281L58.3199 110.814L54.0289 114.158ZM70.0102 101.705L67.2565 98.171C67.7001 96.3107 68.2501 94.2053 68.9066 91.8546C69.5967 89.4777 70.2081 86.9999 70.7409 84.4211C71.3073 81.8161 71.6735 79.2318 71.8396 76.6683C72.0393 74.0786 71.9042 71.6145 71.4342 69.2761C70.9643 66.9377 70.0344 64.8767 68.6444 63.093C67.0971 61.1073 65.283 59.9246 63.202 59.5448C61.1211 59.165 59.0036 59.8144 56.8497 61.4928C55.2679 62.7254 54.227 64.1315 53.727 65.7112C53.2345 67.2309 53.2172 68.84 53.6753 70.5385C54.1408 72.1772 54.9862 73.8173 56.2114 75.459L51.7853 78.4212C50.5002 76.7721 49.5463 75.0272 48.9234 73.1867C48.2743 71.3125 48.005 69.4398 48.1156 67.5686C48.1999 65.6638 48.6996 63.841 49.6149 62.1C50.5375 60.2992 51.9244 58.6776 53.7754 57.2352C55.8956 55.583 58.1007 54.5949 60.3906 54.271C62.6542 53.9134 64.853 54.2014 66.9869 55.135C69.1282 56.0087 71.038 57.5225 72.7165 59.6764C74.1851 61.5611 75.2479 63.6538 75.9049 65.9546C76.5955 68.2292 76.9345 70.6426 76.9219 73.1947C76.9429 75.7206 76.7133 78.3066 76.233 80.9527C75.7527 83.5988 75.1059 86.2395 74.2925 88.8747C73.4791 91.5099 72.5534 94.0704 71.5154 96.5561L71.4459 94.1761L90.3768 79.4242L93.4845 83.4123L70.0102 101.705Z" fill="black"/>
<path d="M280.901 85.6969L278.148 82.1631C278.591 80.3029 279.141 78.1974 279.798 75.8468C280.488 73.4699 281.099 70.9921 281.632 68.4133C282.198 65.8082 282.565 63.224 282.731 60.6605C282.93 58.0707 282.795 55.6067 282.325 53.2683C281.855 50.9299 280.926 48.8688 279.536 47.0851C277.988 45.0995 276.174 43.9168 274.093 43.537C272.012 43.1572 269.895 43.8065 267.741 45.485C266.159 46.7176 265.118 48.1237 264.618 49.7033C264.126 51.2231 264.108 52.8322 264.566 54.5307C265.032 56.1693 265.877 57.8095 267.103 59.4511L262.676 62.4133C261.391 60.7642 260.437 59.0194 259.815 57.1789C259.165 55.3047 258.896 53.432 259.007 51.5608C259.091 49.656 259.591 47.8331 260.506 46.0922C261.429 44.2914 262.816 42.6698 264.667 41.2274C266.787 39.5752 268.992 38.5871 271.282 38.2632C273.545 37.9056 275.744 38.1936 277.878 39.1272C280.019 40.0008 281.929 41.5147 283.608 43.6686C285.076 45.5533 286.139 47.646 286.796 49.9468C287.487 52.2214 287.826 54.6347 287.813 57.1869C287.834 59.7128 287.604 62.2988 287.124 64.9449C286.644 67.591 285.997 70.2317 285.184 72.8669C284.37 75.5021 283.445 78.0625 282.407 80.5482L282.337 78.1683L301.268 63.4164L304.376 67.4045L280.901 85.6969Z" fill="black"/>
</svg>
