<svg width="678" height="699" viewBox="0 0 678 699" fill="none" xmlns="http://www.w3.org/2000/svg">
<path d="M542.731 542.848C488.591 597.551 414.296 629.363 336.069 631.356L323.346 58.6938C401.585 57.2105 477.219 85.6916 533.736 137.936C590.491 190.403 623.318 262.536 625.004 338.465C626.691 414.393 597.101 487.913 542.731 542.848Z" stroke="black" stroke-width="2"/>
<rect x="391.936" y="252.584" width="7.60889" height="119.125" transform="rotate(31.2956 391.936 252.584)" fill="black"/>
<rect x="497.967" y="321.219" width="7.60889" height="171.621" transform="rotate(78.236 497.967 321.219)" fill="black"/>
<path d="M560.28 472.894L560.044 462.273L538.801 462.745L538.706 458.458L559.736 428.287L564.726 428.176L565.37 457.097L572.536 456.937L572.649 461.992L565.482 462.152L565.719 472.773L560.28 472.894ZM543.274 459.509L542.784 457.599L559.931 457.218L559.423 434.375L560.073 434.809L543.274 459.509Z" fill="black"/>
<path d="M574.945 353.05C571.746 353.121 568.939 352.607 566.525 351.509C564.109 350.368 562.217 348.767 560.848 346.706C559.478 344.603 558.762 342.143 558.7 339.328L564.067 338.888C564.13 341.704 565.161 343.921 567.16 345.541C569.158 347.119 571.778 347.871 575.02 347.799C577.153 347.751 578.98 347.369 580.5 346.653C582.02 345.936 583.172 344.929 583.954 343.631C584.778 342.333 585.172 340.83 585.134 339.124C585.098 337.546 584.728 336.252 584.023 335.244C583.317 334.192 582.36 333.381 581.152 332.811C579.986 332.197 578.611 331.779 577.027 331.558C575.443 331.337 573.756 331.247 571.964 331.287L571.869 327C573.191 326.97 574.468 326.835 575.701 326.595C576.975 326.31 578.096 325.88 579.065 325.303C580.076 324.726 580.849 323.962 581.382 323.011C581.959 322.06 582.231 320.88 582.2 319.472C582.168 318.065 581.8 316.835 581.093 315.784C580.387 314.733 579.431 313.943 578.224 313.415C577.016 312.845 575.602 312.577 573.981 312.613C571.336 312.672 569.284 313.443 567.823 314.927C566.362 316.41 565.636 318.283 565.643 320.545L560.326 320.343C560.271 317.869 560.819 315.68 561.972 313.777C563.124 311.831 564.733 310.301 566.799 309.188C568.908 308.074 571.328 307.487 574.058 307.426C576.66 307.368 578.953 307.83 580.938 308.81C582.965 309.746 584.573 311.076 585.764 312.799C586.955 314.523 587.576 316.536 587.627 318.839C587.655 320.119 587.489 321.275 587.128 322.307C586.766 323.297 586.231 324.184 585.523 324.968C584.857 325.751 584.062 326.43 583.136 327.005C582.251 327.537 581.301 327.985 580.285 328.349C581.571 328.619 582.818 329.018 584.024 329.546C585.231 330.074 586.314 330.775 587.272 331.65C588.23 332.525 589 333.575 589.583 334.8C590.165 336.024 590.474 337.447 590.51 339.068C590.569 341.756 589.94 344.138 588.62 346.216C587.343 348.293 585.524 349.934 583.16 351.139C580.84 352.343 578.101 352.98 574.945 353.05Z" fill="black"/>
<path d="M449.626 159.277L448.826 123.318L450.552 126.097L437.244 126.393L437.147 122.042L444.889 121.87C446.168 121.841 447.122 121.543 447.75 120.974C448.42 120.404 448.74 119.437 448.709 118.072L448.634 114.681L454.072 114.559L455.065 159.156L449.626 159.277Z" fill="black"/>
<path d="M319.969 131.155L319.169 95.1961L320.895 97.9744L307.586 98.2705L307.49 93.9196L315.232 93.7473C316.511 93.7188 317.465 93.4202 318.092 92.8514C318.763 92.2817 319.082 91.3144 319.052 89.9494L318.977 86.5582L324.415 86.4372L325.408 131.034L319.969 131.155ZM340.224 130.704L340.125 126.226C341.591 124.998 343.289 123.637 345.219 122.143C347.192 120.648 349.162 119.025 351.128 117.275C353.138 115.523 354.974 113.668 356.638 111.711C358.344 109.752 359.707 107.695 360.726 105.538C361.745 103.382 362.229 101.173 362.179 98.9122C362.123 96.3954 361.373 94.3636 359.93 92.8167C358.488 91.2697 356.401 90.5266 353.671 90.5874C351.666 90.632 349.992 91.1387 348.648 92.1075C347.345 93.0327 346.371 94.3134 345.725 95.9495C345.12 97.542 344.819 99.3625 344.822 101.411L339.503 101.145C339.456 99.055 339.732 97.0857 340.331 95.2373C340.93 93.3462 341.831 91.683 343.037 90.2478C344.242 88.77 345.731 87.6059 347.505 86.7556C349.32 85.8617 351.4 85.3886 353.747 85.3364C356.434 85.2766 358.793 85.8002 360.823 86.9073C362.853 87.9718 364.445 89.5154 365.599 91.5382C366.796 93.5174 367.424 95.872 367.485 98.602C367.538 100.991 367.142 103.304 366.295 105.542C365.491 107.779 364.323 109.918 362.789 111.958C361.298 113.997 359.57 115.934 357.605 117.771C355.64 119.607 353.545 121.339 351.319 122.968C349.093 124.596 346.822 126.098 344.506 127.472L345.871 125.522L369.865 124.988L369.977 130.042L340.224 130.704Z" fill="black"/>
<path d="M670.533 337.908C674.501 516.239 529.35 664.129 346.3 668.203C163.251 672.276 11.665 530.989 7.69669 352.657C3.72841 174.326 148.88 26.4358 331.929 22.3625C514.978 18.2892 666.564 159.576 670.533 337.908Z" stroke="black"/>
<path d="M518.972 243.756L518.872 239.277C520.338 238.049 522.036 236.689 523.966 235.195C525.939 233.7 527.909 232.077 529.876 230.326C531.885 228.574 533.722 226.72 535.385 224.762C537.091 222.804 538.454 220.746 539.473 218.59C540.492 216.433 540.976 214.224 540.926 211.964C540.87 209.447 540.12 207.415 538.678 205.868C537.235 204.321 535.148 203.578 532.418 203.639C530.414 203.683 528.739 204.19 527.395 205.159C526.093 206.084 525.118 207.365 524.472 209.001C523.867 210.593 523.566 212.414 523.569 214.462L518.25 214.197C518.203 212.106 518.48 210.137 519.079 208.289C519.677 206.398 520.579 204.734 521.784 203.299C522.989 201.821 524.478 200.657 526.252 199.807C528.067 198.913 530.148 198.44 532.494 198.388C535.181 198.328 537.54 198.852 539.57 199.959C541.6 201.023 543.192 202.567 544.347 204.59C545.543 206.569 546.171 208.924 546.232 211.654C546.285 214.042 545.889 216.356 545.042 218.594C544.239 220.831 543.07 222.969 541.536 225.009C540.045 227.048 538.317 228.986 536.352 230.822C534.387 232.658 532.292 234.391 530.066 236.019C527.841 237.648 525.569 239.149 523.253 240.524L524.618 238.573L548.612 238.039L548.724 243.094L518.972 243.756Z" fill="black"/>
</svg>
