<svg width="546" height="333" viewBox="0 0 546 333" fill="none" xmlns="http://www.w3.org/2000/svg">
<rect x="59.3349" y="219.29" width="24.086" height="48.8935" rx="2.5" transform="rotate(101.259 59.3349 219.29)" fill="white" stroke="black"/>
<path d="M102.093 124.428L226.841 226.784L209.652 246.05L89.3439 138.718L102.093 124.428Z" fill="white" stroke="black"/>
<path d="M310.641 56.5142L297.88 206.079L272.279 202.744L291.649 54.0404L310.641 56.5142Z" fill="white" stroke="black"/>
<path d="M477.763 202.322L343.008 252.024L336.395 231.705L472.87 187.288L477.763 202.322Z" fill="white" stroke="black"/>
<path d="M434.136 419.232L323.151 324.532L340.789 305.679L447.22 405.246L434.136 419.232Z" fill="white" stroke="black"/>
<path d="M63.5433 344.283L206.047 283.664L215.121 307.835L70.2742 362.212L63.5433 344.283Z" fill="white" stroke="black"/>
<rect x="483.047" y="327.788" width="24.086" height="48.8935" rx="2.5" transform="rotate(-78.0743 483.047 327.788)" fill="white" stroke="black"/>
<rect x="489.892" y="280.117" width="24.086" height="48.8935" rx="2.5" transform="rotate(-86.9059 489.892 280.117)" fill="white" stroke="black"/>
<rect x="487.879" y="236.184" width="24.086" height="48.8935" rx="2.5" transform="rotate(-100.885 487.879 236.184)" fill="white" stroke="black"/>
<rect x="474.769" y="190.933" width="24.086" height="48.8935" rx="2.5" transform="rotate(-116.313 474.769 190.933)" fill="white" stroke="black"/>
<rect x="454.764" y="153.762" width="24.086" height="48.8935" rx="2.5" transform="rotate(-122.613 454.764 153.762)" fill="white" stroke="black"/>
<rect x="432.772" y="124.113" width="24.086" height="48.8935" rx="2.5" transform="rotate(-134.768 432.772 124.113)" fill="white" stroke="black"/>
<rect x="401.444" y="96.3704" width="24.086" height="48.8935" rx="2.5" transform="rotate(-143.189 401.444 96.3704)" fill="white" stroke="black"/>
<rect x="371.237" y="75.7699" width="24.086" height="48.8935" rx="2.5" transform="rotate(-160.309 371.237 75.7699)" fill="white" stroke="black"/>
<rect x="330.263" y="60.7456" width="24.086" height="48.8935" rx="2.5" transform="rotate(-167.68 330.263 60.7456)" fill="white" stroke="black"/>
<rect x="51.0578" y="266.264" width="24.086" height="48.8935" rx="2.5" transform="rotate(85.6614 51.0578 266.264)" fill="white" stroke="black"/>
<rect x="55.4209" y="307.885" width="24.086" height="48.8935" rx="2.5" transform="rotate(82.3253 55.4209 307.885)" fill="white" stroke="black"/>
<rect x="292.535" y="53.176" width="24.086" height="48.8935" rx="2.5" transform="rotate(-179.463 292.535 53.176)" fill="white" stroke="black"/>
<rect x="249.275" y="52.9994" width="24.086" height="48.8935" rx="2.5" transform="rotate(168.644 249.275 52.9994)" fill="white" stroke="black"/>
<rect x="209.187" y="58.1018" width="24.086" height="48.8935" rx="2.5" transform="rotate(154.672 209.187 58.1018)" fill="white" stroke="black"/>
<rect opacity="0.9" x="170.406" y="75.9362" width="24.086" height="48.8935" rx="2.5" transform="rotate(147.147 170.406 75.9362)" fill="white" stroke="black"/>
<rect x="133.79" y="100.504" width="24.086" height="48.8935" rx="2.5" transform="rotate(137.697 133.79 100.504)" fill="white" stroke="black"/>
<rect x="75.5964" y="171.995" width="24.086" height="48.8935" rx="2.5" transform="rotate(111.758 75.5964 171.995)" fill="white" stroke="black"/>
<rect x="106.55" y="122.606" width="24.086" height="48.8935" rx="2.5" transform="rotate(126.65 106.55 122.606)" fill="white" stroke="black"/>
<circle cx="271.237" cy="271.569" r="220.526" transform="rotate(93.2747 271.237 271.569)" stroke="black" stroke-width="5"/>
<circle cx="275.703" cy="273.366" r="69.7992" transform="rotate(93.2747 275.703 273.366)" stroke="black" stroke-width="5"/>
<circle cx="271.237" cy="271.569" r="220.526" transform="rotate(93.2747 271.237 271.569)" stroke="white" stroke-width="3"/>
<circle cx="275.69" cy="273.178" r="69.7992" transform="rotate(93.2747 275.69 273.178)" stroke="white" stroke-width="3"/>
<path d="M273.989 302.176C258.935 301.315 247.434 288.812 248.265 274.282C249.097 259.752 261.948 248.642 277.003 249.503C292.058 250.365 303.558 262.868 302.727 277.398C301.896 291.928 289.044 303.037 273.989 302.176Z" stroke="black"/>
</svg>
