<svg width="1510" height="445" viewBox="0 0 1510 445" fill="none" xmlns="http://www.w3.org/2000/svg">
<ellipse cx="370.974" cy="183.29" rx="176.06" ry="176.199" transform="rotate(2.15807 370.974 183.29)" stroke="white" stroke-width="5"/>
<circle cx="1312.24" cy="214.248" r="176.199" transform="rotate(2.15807 1312.24 214.248)" stroke="black" stroke-width="7"/>
<rect x="1268.05" y="386.349" width="8.96312" height="16.4948" rx="2.5" transform="rotate(14.4075 1268.05 386.349)" fill="white" stroke="black"/>
<rect x="1287.9" y="390.341" width="8.96312" height="16.4948" rx="2.5" transform="rotate(2.52767 1287.9 390.341)" fill="white" stroke="black"/>
<rect x="1306.64" y="392.531" width="8.96312" height="16.4948" rx="2.5" transform="rotate(-0.2718 1306.64 392.531)" fill="white" stroke="black"/>
<rect x="1325.21" y="390.424" width="8.96312" height="16.4948" rx="2.5" transform="rotate(-1.2797 1325.21 390.424)" fill="white" stroke="black"/>
<rect x="1342.53" y="389.468" width="8.96312" height="16.4948" rx="2.5" transform="rotate(-15.7343 1342.53 389.468)" fill="white" stroke="black"/>
<rect x="1359.45" y="386.888" width="8.96312" height="16.4948" rx="2.5" transform="rotate(-21.5822 1359.45 386.888)" fill="white" stroke="black"/>
<rect x="1375.92" y="379.87" width="8.96312" height="16.4948" rx="2.5" transform="rotate(-27.0562 1375.92 379.87)" fill="white" stroke="black"/>
<rect x="1391.58" y="372.835" width="8.96312" height="16.4948" rx="2.5" transform="rotate(-32.8127 1391.58 372.835)" fill="white" stroke="black"/>
<rect x="1406.49" y="365.394" width="8.96312" height="16.4948" rx="2.5" transform="rotate(-39.2803 1406.49 365.394)" fill="white" stroke="black"/>
<rect x="1422.36" y="353.642" width="8.96312" height="16.4948" rx="2.5" transform="rotate(-42.5261 1422.36 353.642)" fill="white" stroke="black"/>
<rect x="1438.31" y="339.49" width="8.96312" height="16.4948" rx="2.5" transform="rotate(-42.2935 1438.31 339.49)" fill="white" stroke="black"/>
<rect x="1449.04" y="326.532" width="8.96312" height="16.4948" rx="2.5" transform="rotate(-47.0171 1449.04 326.532)" fill="white" stroke="black"/>
<rect x="1459.86" y="312.709" width="8.96312" height="16.4948" rx="2.5" transform="rotate(-57.8529 1459.86 312.709)" fill="white" stroke="black"/>
<rect x="1469.02" y="296.148" width="8.96312" height="16.4948" rx="2.5" transform="rotate(-63.9134 1469.02 296.148)" fill="white" stroke="black"/>
<rect x="1477.8" y="275.027" width="8.96312" height="16.4948" rx="2.5" transform="rotate(-71.3785 1477.8 275.027)" fill="white" stroke="black"/>
<rect x="1483.8" y="259.1" width="8.96312" height="16.4948" rx="2.5" transform="rotate(-76.8047 1483.8 259.1)" fill="white" stroke="black"/>
<rect x="1487.37" y="239.416" width="8.96312" height="16.4948" rx="2.5" transform="rotate(-83.9071 1487.37 239.416)" fill="white" stroke="black"/>
<rect x="1489.41" y="220.83" width="8.96312" height="16.4948" rx="2.5" transform="rotate(-93.756 1489.41 220.83)" fill="white" stroke="black"/>
<rect x="1489.38" y="200.879" width="8.96312" height="16.4948" rx="2.5" transform="rotate(-102.686 1489.38 200.879)" fill="white" stroke="black"/>
<rect x="1487.55" y="185.096" width="8.96312" height="16.4948" rx="2.5" transform="rotate(-111.723 1487.55 185.096)" fill="white" stroke="black"/>
<rect x="1482.7" y="164.397" width="8.96312" height="16.4948" rx="2.5" transform="rotate(-111.723 1482.7 164.397)" fill="white" stroke="black"/>
<rect x="1476.47" y="145.876" width="8.96312" height="16.4948" rx="2.5" transform="rotate(-117.108 1476.47 145.876)" fill="white" stroke="black"/>
<rect x="1457.86" y="114.132" width="8.96312" height="16.4948" rx="2.5" transform="rotate(-131.479 1457.86 114.132)" fill="white" stroke="black"/>
<rect x="1445.53" y="97.6492" width="8.96312" height="16.4948" rx="2.5" transform="rotate(-131.479 1445.53 97.6492)" fill="white" stroke="black"/>
<rect x="1434.77" y="86.6466" width="8.96312" height="16.4948" rx="2.5" transform="rotate(-133.781 1434.77 86.6466)" fill="white" stroke="black"/>
<rect x="1422.05" y="75.3147" width="8.96312" height="16.4948" rx="2.5" transform="rotate(-146.007 1422.05 75.3147)" fill="white" stroke="black"/>
<rect x="1406.27" y="64.3482" width="8.96312" height="16.4948" rx="2.5" transform="rotate(-149.368 1406.27 64.3482)" fill="white" stroke="black"/>
<rect x="1390.29" y="54.6353" width="8.96312" height="16.4948" rx="2.5" transform="rotate(-159.291 1390.29 54.6353)" fill="white" stroke="black"/>
<rect x="1373.71" y="47.5855" width="8.96312" height="16.4948" rx="2.5" transform="rotate(-159.291 1373.71 47.5855)" fill="white" stroke="black"/>
<rect x="1353.67" y="42.257" width="8.96312" height="16.4948" rx="2.5" transform="rotate(-163.905 1353.67 42.257)" fill="white" stroke="black"/>
<rect x="1334.5" y="37.616" width="8.96312" height="16.4948" rx="2.5" transform="rotate(-172.34 1334.5 37.616)" fill="white" stroke="black"/>
<rect x="1316.84" y="36.9959" width="8.96312" height="16.4948" rx="2.5" transform="rotate(176.752 1316.84 36.9959)" fill="white" stroke="black"/>
<rect x="1297.73" y="37.027" width="8.96312" height="16.4948" rx="2.5" transform="rotate(172.557 1297.73 37.027)" fill="white" stroke="black"/>
<rect x="1279.93" y="39.5478" width="8.96312" height="16.4948" rx="2.5" transform="rotate(167.498 1279.93 39.5478)" fill="white" stroke="black"/>
<rect x="1262.96" y="44.2345" width="8.96312" height="16.4948" rx="2.5" transform="rotate(165.859 1262.96 44.2345)" fill="white" stroke="black"/>
<rect x="1244.62" y="50.1498" width="8.96312" height="16.4948" rx="2.5" transform="rotate(159.701 1244.62 50.1498)" fill="white" stroke="black"/>
<path d="M1312.14 389.5L1307.92 269.5H1323.9V389.5H1312.14Z" fill="white" stroke="black"/>
<path d="M1479.27 264.362L1363.81 234.765L1368.43 219.13L1482.67 252.846L1479.27 264.362Z" fill="white" stroke="black"/>
<path d="M1409.67 71.7566L1351.98 170.453L1338.22 161.704L1399.54 65.3113L1409.67 71.7566Z" fill="white" stroke="black"/>
<path d="M1209.13 70.7699L1282.58 164.064L1269.42 173.679L1199.43 77.852L1209.13 70.7699Z" fill="white" stroke="black"/>
<rect x="1229.06" y="57.3788" width="8.96312" height="16.4948" rx="2.5" transform="rotate(144.828 1229.06 57.3788)" fill="white" stroke="black"/>
<rect x="1213.51" y="66.6893" width="8.96312" height="16.4948" rx="2.5" transform="rotate(144.275 1213.51 66.6893)" fill="white" stroke="black"/>
<rect x="1195.57" y="80.7371" width="8.96312" height="16.4948" rx="2.5" transform="rotate(138.974 1195.57 80.7371)" fill="white" stroke="black"/>
<path d="M1177.32 98.5795L1174.7 101.561C1173.79 102.599 1172.22 102.704 1171.18 101.794L1162.53 94.2197C1161.49 93.31 1161.39 91.7305 1162.3 90.6919L1164.91 87.7108C1165.82 86.6722 1167.4 86.5678 1168.44 87.4776L1177.08 95.0517C1178.12 95.9615 1178.23 97.5409 1177.32 98.5795Z" fill="white" stroke="black"/>
<rect x="1468.57" y="130.371" width="8.96312" height="16.4948" rx="2.5" transform="rotate(-120.024 1468.57 130.371)" fill="white" stroke="black"/>
<rect x="1250.42" y="380.897" width="8.96312" height="16.4948" rx="2.5" transform="rotate(17.7505 1250.42 380.897)" fill="white" stroke="black"/>
<rect x="1282.22" y="265.982" width="11.9052" height="24.6672" rx="2.5" transform="rotate(16.427 1282.22 265.982)" fill="white" stroke="black"/>
<rect x="1267.16" y="252.211" width="11.9052" height="24.6672" rx="2.5" transform="rotate(46.2277 1267.16 252.211)" fill="white" stroke="black"/>
<rect x="1256.9" y="231.563" width="11.9052" height="24.6672" rx="2.5" transform="rotate(73.3859 1256.9 231.563)" fill="white" stroke="black"/>
<rect x="1262.84" y="184.78" width="11.9052" height="24.6672" rx="2.5" transform="rotate(115.321 1262.84 184.78)" fill="white" stroke="black"/>
<rect x="1254.54" y="210.609" width="11.9052" height="24.6672" rx="2.5" transform="rotate(93.9545 1254.54 210.609)" fill="white" stroke="black"/>
<rect x="1308.75" y="272.008" width="11.9052" height="24.6672" rx="2.5" transform="rotate(-2.98128 1308.75 272.008)" fill="white" stroke="black"/>
<rect x="1330.89" y="269.94" width="11.9052" height="24.6672" rx="2.5" transform="rotate(-23.8172 1330.89 269.94)" fill="white" stroke="black"/>
<rect x="1350.6" y="258.212" width="11.9052" height="24.6672" rx="2.5" transform="rotate(-46.4861 1350.6 258.212)" fill="white" stroke="black"/>
<rect x="1363.25" y="243.311" width="11.9052" height="24.6672" rx="2.5" transform="rotate(-74.921 1363.25 243.311)" fill="white" stroke="black"/>
<rect x="1370.01" y="217.042" width="11.9052" height="24.6672" rx="2.5" transform="rotate(-91.1414 1370.01 217.042)" fill="white" stroke="black"/>
<rect x="1367.25" y="196.076" width="11.9052" height="24.6672" rx="2.5" transform="rotate(-115.009 1367.25 196.076)" fill="white" stroke="black"/>
<rect x="1358.69" y="178.622" width="11.9052" height="24.6672" rx="2.5" transform="rotate(-133.853 1358.69 178.622)" fill="white" stroke="black"/>
<rect x="1340.58" y="162.696" width="11.9052" height="24.6672" rx="2.5" transform="rotate(-155.384 1340.58 162.696)" fill="white" stroke="black"/>
<rect x="1317.34" y="155.418" width="11.9052" height="24.6672" rx="2.5" transform="rotate(-178.025 1317.34 155.418)" fill="white" stroke="black"/>
<rect x="1297.44" y="157.008" width="11.9052" height="24.6672" rx="2.5" transform="rotate(154.131 1297.44 157.008)" fill="white" stroke="black"/>
<rect x="1274.64" y="168.37" width="11.9052" height="24.6672" rx="2.5" transform="rotate(135.797 1274.64 168.37)" fill="white" stroke="black"/>
<circle cx="1311.94" cy="214.189" r="57.5509" transform="rotate(2.15807 1311.94 214.189)" stroke="black" stroke-width="5"/>
<circle cx="1311.78" cy="214.203" r="57.5509" transform="rotate(2.15807 1311.78 214.203)" stroke="white" stroke-width="3"/>
<rect x="1217.19" y="363.705" width="8.96312" height="16.4948" rx="2.5" transform="rotate(33.6043 1217.19 363.705)" fill="white" stroke="black"/>
<rect x="1199.99" y="352.324" width="8.96312" height="16.4948" rx="2.5" transform="rotate(34.3212 1199.99 352.324)" fill="white" stroke="black"/>
<rect x="1186.94" y="340.432" width="8.96312" height="16.4948" rx="2.5" transform="rotate(40.814 1186.94 340.432)" fill="white" stroke="black"/>
<rect x="1174.33" y="326.42" width="8.96312" height="16.4948" rx="2.5" transform="rotate(44.6377 1174.33 326.42)" fill="white" stroke="black"/>
<rect x="1233.15" y="373.217" width="8.96312" height="16.4948" rx="2.5" transform="rotate(26.163 1233.15 373.217)" fill="white" stroke="black"/>
<ellipse cx="1311.97" cy="214.29" rx="176.06" ry="176.199" transform="rotate(2.15807 1311.97 214.29)" stroke="white" stroke-width="5"/>
<rect x="1014.64" y="358.861" width="27.3049" height="55.2955" rx="2.5" transform="rotate(16.427 1014.64 358.861)" fill="white" stroke="black"/>
<rect x="982.038" y="328.556" width="27.3049" height="55.2955" rx="2.5" transform="rotate(46.2277 982.038 328.556)" fill="white" stroke="black"/>
<rect x="959.919" y="283.369" width="27.3049" height="55.2955" rx="2.5" transform="rotate(73.3859 959.919 283.369)" fill="white" stroke="black"/>
<rect x="973.337" y="181.219" width="27.3049" height="55.2955" rx="2.5" transform="rotate(115.321 973.337 181.219)" fill="white" stroke="black"/>
<rect x="954.983" y="237.6" width="27.3049" height="55.2955" rx="2.5" transform="rotate(93.9545 954.983 237.6)" fill="white" stroke="black"/>
<rect x="1072.61" y="372.254" width="27.3049" height="55.2955" rx="2.5" transform="rotate(-2.98128 1072.61 372.254)" fill="white" stroke="black"/>
<rect x="1121.01" y="367.977" width="27.3049" height="55.2955" rx="2.5" transform="rotate(-23.8172 1121.01 367.977)" fill="white" stroke="black"/>
<rect x="1164.19" y="342.582" width="27.3049" height="55.2955" rx="2.5" transform="rotate(-46.4861 1164.19 342.582)" fill="white" stroke="black"/>
<rect x="1192.03" y="310.3" width="27.3049" height="55.2955" rx="2.5" transform="rotate(-74.921 1192.03 310.3)" fill="white" stroke="black"/>
<rect x="1207.01" y="252.871" width="27.3049" height="55.2955" rx="2.5" transform="rotate(-91.1414 1207.01 252.871)" fill="white" stroke="black"/>
<rect x="1201.27" y="207.071" width="27.3049" height="55.2955" rx="2.5" transform="rotate(-115.009 1201.27 207.071)" fill="white" stroke="black"/>
<rect x="1182.75" y="168.84" width="27.3049" height="55.2955" rx="2.5" transform="rotate(-133.853 1182.75 168.84)" fill="white" stroke="black"/>
<rect x="1143.34" y="133.856" width="27.3049" height="55.2955" rx="2.5" transform="rotate(-155.384 1143.34 133.856)" fill="white" stroke="black"/>
<rect x="1092.65" y="117.72" width="27.3049" height="55.2955" rx="2.5" transform="rotate(-178.025 1092.65 117.72)" fill="white" stroke="black"/>
<rect x="1049.24" y="120.867" width="27.3049" height="55.2955" rx="2.5" transform="rotate(154.131 1049.24 120.867)" fill="white" stroke="black"/>
<rect x="999.279" y="145.522" width="27.3049" height="55.2955" rx="2.5" transform="rotate(135.797 999.279 145.522)" fill="white" stroke="black"/>
<circle cx="1080.23" cy="246.005" r="126.226" transform="rotate(2.15807 1080.23 246.005)" stroke="black" stroke-width="5"/>
<circle cx="1079.89" cy="246.036" r="126.226" transform="rotate(2.15807 1079.89 246.036)" stroke="white" stroke-width="3"/>
<rect x="194.345" y="201.856" width="27.3049" height="55.2955" rx="2.5" transform="rotate(-155.384 194.345 201.856)" fill="white" stroke="black"/>
<rect x="143.648" y="185.72" width="27.3049" height="55.2955" rx="2.5" transform="rotate(-178.025 143.648 185.72)" fill="white" stroke="black"/>
<circle cx="130.89" cy="314.036" r="126.226" transform="rotate(2.15807 130.89 314.036)" stroke="white" stroke-width="3"/>
</svg>
