<svg width="1278" height="262" viewBox="0 0 1278 262" fill="none" xmlns="http://www.w3.org/2000/svg">
<circle cx="271.842" cy="196.248" r="176.199" transform="rotate(2.15807 271.842 196.248)" stroke="black" stroke-width="7"/>
<rect x="437.394" y="257.027" width="8.96312" height="16.4948" rx="2.5" transform="rotate(-71.3785 437.394 257.027)" fill="white" stroke="black"/>
<rect x="443.392" y="241.1" width="8.96312" height="16.4948" rx="2.5" transform="rotate(-76.8047 443.392 241.1)" fill="white" stroke="black"/>
<rect x="446.963" y="221.416" width="8.96312" height="16.4948" rx="2.5" transform="rotate(-83.9071 446.963 221.416)" fill="white" stroke="black"/>
<rect x="449.008" y="202.83" width="8.96312" height="16.4948" rx="2.5" transform="rotate(-93.756 449.008 202.83)" fill="white" stroke="black"/>
<rect x="448.98" y="182.879" width="8.96312" height="16.4948" rx="2.5" transform="rotate(-102.686 448.98 182.879)" fill="white" stroke="black"/>
<rect x="447.148" y="167.096" width="8.96312" height="16.4948" rx="2.5" transform="rotate(-111.723 447.148 167.096)" fill="white" stroke="black"/>
<rect x="442.293" y="146.397" width="8.96312" height="16.4948" rx="2.5" transform="rotate(-111.723 442.293 146.397)" fill="white" stroke="black"/>
<rect x="436.069" y="127.876" width="8.96312" height="16.4948" rx="2.5" transform="rotate(-117.108 436.069 127.876)" fill="white" stroke="black"/>
<rect x="417.458" y="96.1321" width="8.96312" height="16.4948" rx="2.5" transform="rotate(-131.479 417.458 96.1321)" fill="white" stroke="black"/>
<rect x="405.131" y="79.6492" width="8.96312" height="16.4948" rx="2.5" transform="rotate(-131.479 405.131 79.6492)" fill="white" stroke="black"/>
<rect x="394.365" y="68.6466" width="8.96312" height="16.4948" rx="2.5" transform="rotate(-133.781 394.365 68.6466)" fill="white" stroke="black"/>
<rect x="381.644" y="57.3147" width="8.96312" height="16.4948" rx="2.5" transform="rotate(-146.007 381.644 57.3147)" fill="white" stroke="black"/>
<rect x="365.864" y="46.3482" width="8.96312" height="16.4948" rx="2.5" transform="rotate(-149.368 365.864 46.3482)" fill="white" stroke="black"/>
<rect x="349.888" y="36.6353" width="8.96312" height="16.4948" rx="2.5" transform="rotate(-159.291 349.888 36.6353)" fill="white" stroke="black"/>
<rect x="333.31" y="29.5855" width="8.96312" height="16.4948" rx="2.5" transform="rotate(-159.291 333.31 29.5855)" fill="white" stroke="black"/>
<rect x="313.27" y="24.257" width="8.96312" height="16.4948" rx="2.5" transform="rotate(-163.905 313.27 24.257)" fill="white" stroke="black"/>
<rect x="294.1" y="19.616" width="8.96312" height="16.4948" rx="2.5" transform="rotate(-172.34 294.1 19.616)" fill="white" stroke="black"/>
<rect x="276.438" y="18.9959" width="8.96312" height="16.4948" rx="2.5" transform="rotate(176.752 276.438 18.9959)" fill="white" stroke="black"/>
<rect x="257.322" y="19.027" width="8.96312" height="16.4948" rx="2.5" transform="rotate(172.557 257.322 19.027)" fill="white" stroke="black"/>
<rect x="239.522" y="21.5478" width="8.96312" height="16.4948" rx="2.5" transform="rotate(167.498 239.522 21.5478)" fill="white" stroke="black"/>
<rect x="222.554" y="26.2345" width="8.96312" height="16.4948" rx="2.5" transform="rotate(165.859 222.554 26.2345)" fill="white" stroke="black"/>
<rect x="204.217" y="32.1498" width="8.96312" height="16.4948" rx="2.5" transform="rotate(159.701 204.217 32.1498)" fill="white" stroke="black"/>
<path d="M271.733 371.5L267.518 251.5H283.5V371.5H271.733Z" fill="white" stroke="black"/>
<path d="M438.87 246.362L323.408 216.765L328.022 201.13L442.269 234.846L438.87 246.362Z" fill="white" stroke="black"/>
<path d="M369.268 53.7566L311.573 152.453L297.819 143.704L359.135 47.3113L369.268 53.7566Z" fill="white" stroke="black"/>
<path d="M168.726 52.7699L242.18 146.064L229.015 155.679L159.029 59.852L168.726 52.7699Z" fill="white" stroke="black"/>
<rect x="188.657" y="39.3788" width="8.96312" height="16.4948" rx="2.5" transform="rotate(144.828 188.657 39.3788)" fill="white" stroke="black"/>
<rect x="173.109" y="48.6893" width="8.96312" height="16.4948" rx="2.5" transform="rotate(144.275 173.109 48.6893)" fill="white" stroke="black"/>
<rect x="155.17" y="62.7371" width="8.96312" height="16.4948" rx="2.5" transform="rotate(138.974 155.17 62.7371)" fill="white" stroke="black"/>
<path d="M136.68 77.0517C137.718 77.9615 137.823 79.5409 136.913 80.5795L134.301 83.5606C133.392 84.5992 131.812 84.7036 130.774 83.7939L122.127 76.2197C121.088 75.31 120.984 73.7305 121.894 72.6919L124.505 69.7108C125.415 68.6722 126.994 68.5678 128.033 69.4776L136.68 77.0517Z" fill="white" stroke="black"/>
<rect x="428.165" y="112.371" width="8.96312" height="16.4948" rx="2.5" transform="rotate(-120.024 428.165 112.371)" fill="white" stroke="black"/>
<rect x="241.814" y="247.982" width="11.9052" height="24.6672" rx="2.5" transform="rotate(16.427 241.814 247.982)" fill="white" stroke="black"/>
<rect x="226.755" y="234.211" width="11.9052" height="24.6672" rx="2.5" transform="rotate(46.2277 226.755 234.211)" fill="white" stroke="black"/>
<rect x="216.496" y="213.563" width="11.9052" height="24.6672" rx="2.5" transform="rotate(73.3859 216.496 213.563)" fill="white" stroke="black"/>
<rect x="222.435" y="166.78" width="11.9052" height="24.6672" rx="2.5" transform="rotate(115.321 222.435 166.78)" fill="white" stroke="black"/>
<rect x="214.139" y="192.609" width="11.9052" height="24.6672" rx="2.5" transform="rotate(93.9545 214.139 192.609)" fill="white" stroke="black"/>
<rect x="268.347" y="254.008" width="11.9052" height="24.6672" rx="2.5" transform="rotate(-2.98128 268.347 254.008)" fill="white" stroke="black"/>
<rect x="290.486" y="251.94" width="11.9052" height="24.6672" rx="2.5" transform="rotate(-23.8172 290.486 251.94)" fill="white" stroke="black"/>
<rect x="310.2" y="240.212" width="11.9052" height="24.6672" rx="2.5" transform="rotate(-46.4861 310.2 240.212)" fill="white" stroke="black"/>
<rect x="322.842" y="225.311" width="11.9052" height="24.6672" rx="2.5" transform="rotate(-74.921 322.842 225.311)" fill="white" stroke="black"/>
<rect x="329.603" y="199.042" width="11.9052" height="24.6672" rx="2.5" transform="rotate(-91.1414 329.603 199.042)" fill="white" stroke="black"/>
<rect x="326.849" y="178.076" width="11.9052" height="24.6672" rx="2.5" transform="rotate(-115.009 326.849 178.076)" fill="white" stroke="black"/>
<rect x="318.283" y="160.622" width="11.9052" height="24.6672" rx="2.5" transform="rotate(-133.853 318.283 160.622)" fill="white" stroke="black"/>
<rect x="300.176" y="144.696" width="11.9052" height="24.6672" rx="2.5" transform="rotate(-155.384 300.176 144.696)" fill="white" stroke="black"/>
<rect x="276.933" y="137.418" width="11.9052" height="24.6672" rx="2.5" transform="rotate(-178.025 276.933 137.418)" fill="white" stroke="black"/>
<rect x="257.041" y="139.008" width="11.9052" height="24.6672" rx="2.5" transform="rotate(154.131 257.041 139.008)" fill="white" stroke="black"/>
<rect x="234.24" y="150.37" width="11.9052" height="24.6672" rx="2.5" transform="rotate(135.797 234.24 150.37)" fill="white" stroke="black"/>
<circle cx="271.532" cy="196.189" r="57.5509" transform="rotate(2.15807 271.532 196.189)" stroke="black" stroke-width="5"/>
<circle cx="271.378" cy="196.203" r="57.5509" transform="rotate(2.15807 271.378 196.203)" stroke="white" stroke-width="3"/>
<ellipse cx="271.571" cy="196.29" rx="176.06" ry="176.199" transform="rotate(2.15807 271.571 196.29)" stroke="white" stroke-width="5"/>
<circle cx="1212.84" cy="227.248" r="176.199" transform="rotate(2.15807 1212.84 227.248)" stroke="black" stroke-width="7"/>
<rect x="1274.31" y="60.5855" width="8.96312" height="16.4948" rx="2.5" transform="rotate(-159.291 1274.31 60.5855)" fill="white" stroke="black"/>
<rect x="1254.27" y="55.257" width="8.96312" height="16.4948" rx="2.5" transform="rotate(-163.905 1254.27 55.257)" fill="white" stroke="black"/>
<rect x="1235.1" y="50.616" width="8.96312" height="16.4948" rx="2.5" transform="rotate(-172.34 1235.1 50.616)" fill="white" stroke="black"/>
<rect x="1217.44" y="49.9959" width="8.96312" height="16.4948" rx="2.5" transform="rotate(176.752 1217.44 49.9959)" fill="white" stroke="black"/>
<rect x="1198.32" y="50.027" width="8.96312" height="16.4948" rx="2.5" transform="rotate(172.557 1198.32 50.027)" fill="white" stroke="black"/>
<rect x="1180.52" y="52.5478" width="8.96312" height="16.4948" rx="2.5" transform="rotate(167.498 1180.52 52.5478)" fill="white" stroke="black"/>
<rect x="1163.55" y="57.2345" width="8.96312" height="16.4948" rx="2.5" transform="rotate(165.859 1163.55 57.2345)" fill="white" stroke="black"/>
<rect x="1145.22" y="63.1498" width="8.96312" height="16.4948" rx="2.5" transform="rotate(159.701 1145.22 63.1498)" fill="white" stroke="black"/>
<path d="M1379.87 277.362L1264.41 247.765L1269.02 232.13L1383.27 265.846L1379.87 277.362Z" fill="white" stroke="black"/>
<path d="M1310.27 84.7566L1252.57 183.453L1238.82 174.704L1300.14 78.3113L1310.27 84.7566Z" fill="white" stroke="black"/>
<path d="M1109.73 83.7699L1183.18 177.064L1170.02 186.679L1100.03 90.852L1109.73 83.7699Z" fill="white" stroke="black"/>
<rect x="1129.66" y="70.3788" width="8.96312" height="16.4948" rx="2.5" transform="rotate(144.828 1129.66 70.3788)" fill="white" stroke="black"/>
<rect x="1114.11" y="79.6893" width="8.96312" height="16.4948" rx="2.5" transform="rotate(144.275 1114.11 79.6893)" fill="white" stroke="black"/>
<rect x="1096.17" y="93.7371" width="8.96312" height="16.4948" rx="2.5" transform="rotate(138.974 1096.17 93.7371)" fill="white" stroke="black"/>
<path d="M1077.68 108.052C1078.72 108.961 1078.82 110.541 1077.91 111.58L1075.3 114.561C1074.39 115.599 1072.81 115.704 1071.77 114.794L1063.13 107.22C1062.09 106.31 1061.98 104.73 1062.89 103.692L1065.51 100.711C1066.41 99.6722 1067.99 99.5678 1069.03 100.478L1077.68 108.052Z" fill="white" stroke="black"/>
<rect x="1157.5" y="244.563" width="11.9052" height="24.6672" rx="2.5" transform="rotate(73.3859 1157.5 244.563)" fill="white" stroke="black"/>
<rect x="1163.43" y="197.78" width="11.9052" height="24.6672" rx="2.5" transform="rotate(115.321 1163.43 197.78)" fill="white" stroke="black"/>
<rect x="1155.14" y="223.609" width="11.9052" height="24.6672" rx="2.5" transform="rotate(93.9545 1155.14 223.609)" fill="white" stroke="black"/>
<rect x="1251.2" y="271.212" width="11.9052" height="24.6672" rx="2.5" transform="rotate(-46.4861 1251.2 271.212)" fill="white" stroke="black"/>
<rect x="1263.84" y="256.311" width="11.9052" height="24.6672" rx="2.5" transform="rotate(-74.921 1263.84 256.311)" fill="white" stroke="black"/>
<rect x="1270.6" y="230.042" width="11.9052" height="24.6672" rx="2.5" transform="rotate(-91.1414 1270.6 230.042)" fill="white" stroke="black"/>
<rect x="1267.85" y="209.076" width="11.9052" height="24.6672" rx="2.5" transform="rotate(-115.009 1267.85 209.076)" fill="white" stroke="black"/>
<rect x="1259.28" y="191.622" width="11.9052" height="24.6672" rx="2.5" transform="rotate(-133.853 1259.28 191.622)" fill="white" stroke="black"/>
<rect x="1241.18" y="175.696" width="11.9052" height="24.6672" rx="2.5" transform="rotate(-155.384 1241.18 175.696)" fill="white" stroke="black"/>
<rect x="1217.93" y="168.418" width="11.9052" height="24.6672" rx="2.5" transform="rotate(-178.025 1217.93 168.418)" fill="white" stroke="black"/>
<rect x="1198.04" y="170.008" width="11.9052" height="24.6672" rx="2.5" transform="rotate(154.131 1198.04 170.008)" fill="white" stroke="black"/>
<rect x="1175.24" y="181.37" width="11.9052" height="24.6672" rx="2.5" transform="rotate(135.797 1175.24 181.37)" fill="white" stroke="black"/>
<circle cx="1212.53" cy="227.189" r="57.5509" transform="rotate(2.15807 1212.53 227.189)" stroke="black" stroke-width="5"/>
<circle cx="1212.38" cy="227.203" r="57.5509" transform="rotate(2.15807 1212.38 227.203)" stroke="white" stroke-width="3"/>
<ellipse cx="1212.57" cy="227.29" rx="176.06" ry="176.199" transform="rotate(2.15807 1212.57 227.29)" stroke="white" stroke-width="5"/>
<rect x="873.934" y="194.219" width="27.3049" height="55.2955" rx="2.5" transform="rotate(115.321 873.934 194.219)" fill="white" stroke="black"/>
<rect x="855.58" y="250.6" width="27.3049" height="55.2955" rx="2.5" transform="rotate(93.9545 855.58 250.6)" fill="white" stroke="black"/>
<rect x="1107.61" y="265.871" width="27.3049" height="55.2955" rx="2.5" transform="rotate(-91.1414 1107.61 265.871)" fill="white" stroke="black"/>
<rect x="1101.86" y="220.071" width="27.3049" height="55.2955" rx="2.5" transform="rotate(-115.009 1101.86 220.071)" fill="white" stroke="black"/>
<rect x="1083.35" y="181.84" width="27.3049" height="55.2955" rx="2.5" transform="rotate(-133.853 1083.35 181.84)" fill="white" stroke="black"/>
<rect x="1043.94" y="146.856" width="27.3049" height="55.2955" rx="2.5" transform="rotate(-155.384 1043.94 146.856)" fill="white" stroke="black"/>
<rect x="993.245" y="130.72" width="27.3049" height="55.2955" rx="2.5" transform="rotate(-178.025 993.245 130.72)" fill="white" stroke="black"/>
<rect x="949.838" y="133.867" width="27.3049" height="55.2955" rx="2.5" transform="rotate(154.131 949.838 133.867)" fill="white" stroke="black"/>
<rect x="899.876" y="158.522" width="27.3049" height="55.2955" rx="2.5" transform="rotate(135.797 899.876 158.522)" fill="white" stroke="black"/>
<circle cx="980.825" cy="259.005" r="126.226" transform="rotate(2.15807 980.825 259.005)" stroke="black" stroke-width="5"/>
<circle cx="980.487" cy="259.036" r="126.226" transform="rotate(2.15807 980.487 259.036)" stroke="white" stroke-width="3"/>
<rect x="152.862" y="288.071" width="27.3049" height="55.2955" rx="2.5" transform="rotate(-115.009 152.862 288.071)" fill="white" stroke="black"/>
<rect x="134.345" y="249.84" width="27.3049" height="55.2955" rx="2.5" transform="rotate(-133.853 134.345 249.84)" fill="white" stroke="black"/>
<rect x="94.9412" y="214.856" width="27.3049" height="55.2955" rx="2.5" transform="rotate(-155.384 94.9412 214.856)" fill="white" stroke="black"/>
<rect x="44.2451" y="198.72" width="27.3049" height="55.2955" rx="2.5" transform="rotate(-178.025 44.2451 198.72)" fill="white" stroke="black"/>
<rect x="0.837807" y="201.867" width="27.3049" height="55.2955" rx="2.5" transform="rotate(154.131 0.837807 201.867)" fill="white" stroke="black"/>
<circle cx="31.8254" cy="327.005" r="126.226" transform="rotate(2.15807 31.8254 327.005)" stroke="black" stroke-width="5"/>
<circle cx="31.4866" cy="327.036" r="126.226" transform="rotate(2.15807 31.4866 327.036)" stroke="white" stroke-width="3"/>
</svg>
