<svg width="814" height="814" viewBox="0 0 814 814" fill="none" xmlns="http://www.w3.org/2000/svg">
<g clip-path="url(#clip0_590_205)">
<rect x="2.10518" y="356.767" width="577" height="577" transform="rotate(-37.9275 2.10518 356.767)" fill="white" stroke="black" stroke-width="3"/>
<path d="M468.707 614.432C457.928 690.638 417.314 760.511 355.744 808.809L3.6787 356.975C65.5614 309.08 143.243 286.778 219.772 294.954C296.626 303.165 366.022 341.439 412.702 401.347C459.383 461.255 479.532 537.902 468.707 614.432Z" stroke="black" stroke-width="2"/>
<rect x="174.451" y="471.582" width="7.60889" height="119.125" transform="rotate(-5.35715 174.451 471.582)" fill="black"/>
<rect x="300.488" y="463.348" width="7.60889" height="171.621" transform="rotate(41.5832 300.488 463.348)" fill="black"/>
<circle cx="191.145" cy="588.991" r="8" transform="rotate(-8.98732 191.145 588.991)" fill="black"/>
<path d="M318.321 749.173L320.546 770.563L319.53 770.3C319.911 769.192 320.417 768.175 321.049 767.25C321.68 766.325 322.417 765.535 323.258 764.88C325.446 763.175 327.821 762.162 330.384 761.842C332.981 761.495 335.466 761.804 337.839 762.767C340.246 763.704 342.289 765.249 343.967 767.403C345.724 769.658 346.743 772.11 347.022 774.759C347.301 777.409 346.922 779.976 345.884 782.462C344.853 784.888 343.211 786.979 340.956 788.736C338.735 790.467 336.288 791.562 333.617 792.021C330.953 792.42 328.37 792.161 325.87 791.242C323.369 790.324 321.254 788.754 319.523 786.533C318.631 785.389 317.934 784.147 317.431 782.808C316.936 781.409 316.607 780.015 316.445 778.627L313.424 752.989L318.321 749.173ZM325.653 769.098C324.24 770.2 323.189 771.559 322.502 773.177C321.849 774.768 321.611 776.44 321.788 778.195C321.999 779.924 322.695 781.546 323.875 783.06C325.029 784.541 326.419 785.595 328.043 786.222C329.668 786.849 331.331 787.04 333.034 786.796C334.77 786.525 336.362 785.825 337.809 784.698C339.256 783.57 340.306 782.211 340.96 780.62C341.647 779.002 341.885 777.329 341.673 775.601C341.462 773.872 340.767 772.25 339.586 770.736C338.433 769.255 337.043 768.201 335.419 767.574C333.794 766.947 332.13 766.756 330.428 767C328.726 767.245 327.134 767.945 325.653 769.098Z" fill="black"/>
<path d="M424.695 696.859C422.642 698.458 420.4 699.503 417.968 699.991C415.57 700.454 413.195 700.357 410.844 699.7C408.527 699.018 406.41 697.828 404.493 696.131L408.093 692.108C409.325 693.204 410.697 694.027 412.209 694.58C413.729 695.072 415.28 695.189 416.863 694.929C418.479 694.643 420.011 693.937 421.458 692.809C423.141 691.498 424.27 689.996 424.844 688.304C425.393 686.578 425.472 684.84 425.081 683.089C424.724 681.312 423.982 679.7 422.854 678.253C421.752 676.839 420.453 675.796 418.955 675.124C417.465 674.392 415.886 674.135 414.217 674.354C412.556 674.512 410.901 675.234 409.252 676.519C407.771 677.673 406.687 679.059 406 680.676C405.313 682.293 405.03 684.082 405.151 686.043L400.057 688.147L389.137 667.366L407.714 652.889L410.822 656.877L393.809 670.134L394.665 666.547L402.813 682.105L401.404 682.796C401.511 680.226 402.051 678.073 403.026 676.34C404.035 674.58 405.263 673.136 406.71 672.009C408.965 670.252 411.37 669.243 413.926 668.982C416.489 668.662 418.954 669.013 421.32 670.036C423.685 671.059 425.695 672.631 427.347 674.751C428.658 676.434 429.601 678.269 430.175 680.255C430.723 682.208 430.901 684.206 430.708 686.25C430.489 688.259 429.885 690.191 428.895 692.044C427.879 693.864 426.479 695.469 424.695 696.859Z" fill="black"/>
<path d="M441.025 547.834L434.494 539.454L417.734 552.514L415.099 549.132L413.959 512.373L417.897 509.304L435.678 532.122L441.332 527.716L444.439 531.704L438.785 536.11L445.316 544.49L441.025 547.834ZM419.391 547.248L417.857 546.009L431.387 535.466L417.343 517.444L418.123 517.404L419.391 547.248Z" fill="black"/>
<path d="M381.248 442.933C378.724 444.899 376.165 446.163 373.572 446.723C370.953 447.249 368.48 447.094 366.151 446.258C363.797 445.388 361.754 443.843 360.023 441.622L364.067 438.065C365.798 440.286 367.949 441.45 370.52 441.556C373.064 441.628 375.616 440.668 378.174 438.675C379.856 437.364 381.094 435.967 381.886 434.484C382.678 433.001 383 431.506 382.853 429.998C382.739 428.464 382.158 427.024 381.109 425.678C380.138 424.432 379.069 423.616 377.901 423.228C376.707 422.806 375.455 422.727 374.146 422.99C372.844 423.193 371.491 423.679 370.089 424.447C368.686 425.216 367.278 426.151 365.865 427.252L363.229 423.87C364.272 423.057 365.216 422.186 366.061 421.257C366.913 420.268 367.556 419.254 367.989 418.213C368.456 417.146 368.62 416.072 368.48 414.991C368.374 413.883 367.889 412.774 367.023 411.663C366.158 410.553 365.128 409.787 363.934 409.365C362.74 408.943 361.501 408.881 360.218 409.177C358.908 409.44 357.614 410.07 356.335 411.067C354.249 412.693 353.062 414.537 352.776 416.599C352.49 418.661 353.025 420.597 354.381 422.407L349.994 425.42C348.473 423.468 347.607 421.384 347.395 419.169C347.158 416.921 347.535 414.733 348.529 412.606C349.556 410.454 351.147 408.538 353.3 406.86C355.353 405.26 357.469 404.261 359.646 403.862C361.831 403.404 363.916 403.51 365.9 404.182C367.883 404.854 369.584 406.098 371 407.916C371.787 408.925 372.343 409.952 372.67 410.996C372.97 412.006 373.07 413.037 372.97 414.088C372.904 415.114 372.671 416.134 372.271 417.148C371.879 418.103 371.384 419.029 370.786 419.928C371.979 419.377 373.218 418.953 374.501 418.656C375.784 418.359 377.071 418.276 378.363 418.406C379.654 418.535 380.898 418.918 382.096 419.553C383.294 420.188 384.392 421.145 385.388 422.424C387.041 424.544 387.958 426.832 388.14 429.286C388.355 431.715 387.875 434.117 386.698 436.495C385.555 438.846 383.738 440.992 381.248 442.933Z" fill="black"/>
<path d="M165.034 362.286L142.926 333.915L145.969 335.113L135.469 343.295L132.794 339.863L138.902 335.103C139.912 334.316 140.498 333.507 140.662 332.676C140.86 331.819 140.539 330.852 139.7 329.775L137.615 327.099L141.906 323.756L169.325 358.942L165.034 362.286Z" fill="black"/>
<path d="M44.2252 417.125L22.117 388.754L25.1604 389.952L14.66 398.135L11.985 394.702L18.0934 389.942C19.1031 389.155 19.6898 388.346 19.8537 387.515C20.0513 386.658 19.7304 385.691 18.8912 384.614L16.8063 381.939L21.0973 378.595L48.5162 413.781L44.2252 417.125ZM60.2065 404.672L57.4528 401.138C57.8964 399.278 58.4464 397.172 59.1029 394.821C59.793 392.445 60.4044 389.967 60.9372 387.388C61.5036 384.783 61.8698 382.199 62.0359 379.635C62.2355 377.045 62.1004 374.581 61.6305 372.243C61.1606 369.905 60.2307 367.843 58.8407 366.06C57.2934 364.074 55.4793 362.891 53.3983 362.512C51.3173 362.132 49.1999 362.781 47.046 364.46C45.4642 365.692 44.4233 367.098 43.9233 368.678C43.4307 370.198 43.4135 371.807 43.8716 373.505C44.3371 375.144 45.1825 376.784 46.4077 378.426L41.9816 381.388C40.6965 379.739 39.7426 377.994 39.1197 376.153C38.4706 374.279 38.2013 372.407 38.3118 370.535C38.3962 368.631 38.8959 366.808 39.8112 365.067C40.7338 363.266 42.1206 361.644 43.9717 360.202C46.0919 358.55 48.297 357.562 50.5869 357.238C52.8505 356.88 55.0493 357.168 57.1832 358.102C59.3244 358.975 61.2343 360.489 62.9128 362.643C64.3814 364.528 65.4442 366.621 66.1012 368.921C66.7918 371.196 67.1308 373.609 67.1182 376.161C67.1392 378.687 66.9096 381.273 66.4293 383.92C65.949 386.566 65.3021 389.206 64.4888 391.841C63.6754 394.477 62.7497 397.037 61.7117 399.523L61.6421 397.143L80.5731 382.391L83.6808 386.379L60.2065 404.672Z" fill="black"/>
<path d="M448.895 373.722C558.536 514.423 530.371 719.721 385.948 832.262C241.525 944.804 35.5691 921.946 -74.0722 781.245C-183.713 640.544 -155.548 435.247 -11.1254 322.705C133.298 210.163 339.253 233.022 448.895 373.722Z" stroke="black"/>
<path d="M353.037 186.656C349.705 189.252 346.157 190.773 342.393 191.218C338.663 191.637 335.015 191.017 331.451 189.359C327.887 187.701 324.676 185.037 321.817 181.369C318.959 177.701 317.174 173.953 316.463 170.125C315.726 166.264 316.017 162.576 317.335 159.061C318.686 155.519 321.028 152.451 324.359 149.854C328.095 146.943 332.043 145.381 336.204 145.168C340.373 144.894 344.318 145.931 348.04 148.278L343.651 155.349C341.311 153.873 338.887 153.192 336.38 153.307C333.907 153.395 331.526 154.331 329.237 156.114C327.151 157.74 325.697 159.657 324.876 161.866C324.088 164.048 323.982 166.376 324.556 168.849C325.139 171.262 326.413 173.731 328.38 176.255C330.347 178.779 332.443 180.635 334.666 181.823C336.924 182.985 339.207 183.45 341.516 183.22C343.858 182.963 346.073 182.022 348.159 180.396C350.448 178.613 351.937 176.533 352.627 174.156C353.351 171.753 353.283 169.236 352.424 166.606L360.314 164.028C361.68 168.211 361.734 172.306 360.476 176.315C359.253 180.298 356.773 183.745 353.037 186.656ZM378.647 166.212C376.931 167.55 375.111 168.13 373.187 167.952C371.264 167.774 369.423 166.558 367.666 164.303L344.929 135.124L351.138 130.285L372.931 158.253C373.482 158.959 374.044 159.333 374.616 159.374C375.163 159.381 375.705 159.174 376.244 158.755C376.513 158.545 376.786 158.305 377.063 158.035C377.313 157.732 377.567 157.399 377.825 157.036L381.995 162.387C381.498 163.207 380.935 163.943 380.307 164.594C379.739 165.253 379.186 165.793 378.647 166.212ZM398.301 150.897C395.878 152.785 393.291 153.908 390.541 154.267C387.791 154.625 385.1 154.26 382.469 153.174C379.844 152.027 377.562 150.209 375.621 147.718C373.654 145.194 372.462 142.553 372.044 139.796C371.6 137.005 371.887 134.319 372.906 131.74C373.959 129.135 375.697 126.888 378.121 125C380.51 123.138 383.08 122.028 385.83 121.67C388.58 121.311 391.254 121.689 393.852 122.802C396.424 123.881 398.693 125.682 400.66 128.206C402.601 130.697 403.794 133.338 404.238 136.129C404.682 138.92 404.407 141.622 403.414 144.235C402.395 146.814 400.691 149.035 398.301 150.897ZM394.013 145.395C395.292 144.398 396.15 143.243 396.587 141.929C397.057 140.589 397.095 139.18 396.701 137.702C396.34 136.198 395.556 134.672 394.35 133.124C393.117 131.542 391.829 130.409 390.485 129.726C389.148 128.982 387.786 128.692 386.398 128.854C385.017 128.956 383.687 129.506 382.408 130.502C381.096 131.525 380.205 132.706 379.734 134.047C379.238 135.353 379.17 136.758 379.53 138.262C379.865 139.733 380.648 141.259 381.881 142.84C383.087 144.389 384.376 145.521 385.746 146.238C387.116 146.956 388.509 147.25 389.923 147.122C391.337 146.993 392.701 146.417 394.013 145.395ZM426.736 128.739C424.717 130.313 422.675 131.336 420.61 131.809C418.552 132.223 416.529 132.23 414.542 131.832C412.588 131.407 410.755 130.617 409.044 129.463C407.333 128.308 405.822 126.889 404.51 125.206C403.225 123.557 402.232 121.762 401.531 119.82C400.829 117.879 400.511 115.909 400.577 113.911C400.676 111.886 401.19 109.943 402.12 108.083C403.058 106.162 404.536 104.415 406.556 102.842C409.08 100.875 411.739 99.7757 414.535 99.5449C417.33 99.3141 420.139 100.073 422.962 101.822L419.201 108.241C417.88 107.378 416.51 106.904 415.091 106.819C413.68 106.674 412.251 107.166 410.804 108.294C409.458 109.343 408.636 110.578 408.338 112.001C408.013 113.389 408.095 114.813 408.583 116.272C409.071 117.731 409.8 119.083 410.77 120.328C411.741 121.574 412.887 122.628 414.208 123.491C415.504 124.321 416.878 124.765 418.33 124.823C419.756 124.848 421.142 124.336 422.488 123.287C423.935 122.159 424.774 120.91 425.005 119.541C425.243 118.111 425.092 116.633 424.551 115.107L431.695 113.029C432.727 116.227 432.79 119.154 431.883 121.808C430.976 124.462 429.26 126.772 426.736 128.739ZM458.624 103.079L442.554 97.3456L442.05 104.716L435.953 96.8914L437.666 79.4104L445.642 73.1949L443.844 89.5253L466.096 97.2567L458.624 103.079ZM441.763 116.218L414.344 81.0316L420.655 76.1143L448.074 111.301L441.763 116.218ZM479.038 87.9831C477.187 89.4255 475.361 90.4151 473.562 90.9519C471.762 91.4887 470.06 91.7335 468.455 91.6863C466.883 91.6129 465.522 91.4289 464.373 91.1343L465.753 84.0549C467.06 84.5514 468.549 84.797 470.222 84.7917C471.902 84.7265 473.533 84.0777 475.115 82.8451C476.36 81.8747 477.136 80.8917 477.442 79.896C477.755 78.8404 477.623 77.9425 477.046 77.202C476.574 76.5963 475.975 76.2787 475.249 76.2495C474.497 76.1865 473.659 76.3258 472.735 76.6671C471.785 76.9749 470.763 77.365 469.671 77.8375C468.519 78.3026 467.307 78.7602 466.035 79.2104C464.763 79.6607 463.497 79.9443 462.236 80.0615C460.949 80.145 459.695 79.9591 458.474 79.5036C457.288 79.022 456.183 78.1249 455.16 76.8124C453.456 74.6248 452.937 72.1891 453.604 69.5054C454.245 66.7881 455.98 64.3279 458.807 62.1249C460.792 60.5776 462.907 59.5784 465.152 59.1273C467.371 58.6425 469.528 58.7734 471.625 59.5199L470.137 65.6284C468.771 65.1245 467.399 65.0303 466.022 65.3459C464.653 65.6016 463.413 66.1622 462.302 67.0277C461.326 67.7882 460.663 68.6027 460.312 69.4712C459.995 70.3135 460.085 71.0543 460.583 71.6938C460.924 72.1313 461.348 72.3966 461.853 72.4897C462.392 72.5565 463.073 72.4586 463.896 72.1959C464.726 71.8733 465.785 71.4271 467.072 70.8571C468.265 70.3059 469.531 69.779 470.87 69.2763C472.209 68.7736 473.573 68.4412 474.961 68.279C476.349 68.1168 477.697 68.284 479.003 68.7805C480.31 69.277 481.527 70.2488 482.654 71.696C483.94 73.3451 484.66 75.1369 484.815 77.0714C484.944 78.9723 484.526 80.8662 483.563 82.7531C482.599 84.64 481.091 86.3834 479.038 87.9831Z" fill="black"/>
<path d="M369.356 222.084L362.026 209.358L357.709 212.721L356.613 210.807L367.177 202.575L368.273 204.49L363.976 207.839L371.306 220.565L369.356 222.084ZM377.136 216.022L371.169 205.671L373.043 204.211L378.991 214.576L377.136 216.022ZM370.029 203.973L368.595 201.47L370.678 199.847L372.13 202.336L370.029 203.973ZM381.555 212.579L375.607 202.213L377.424 200.797L379.014 203.422L378.564 203.743C378.282 202.887 378.182 202.133 378.263 201.482C378.356 200.821 378.552 200.253 378.851 199.777C379.149 199.301 379.5 198.905 379.904 198.591C380.459 198.158 381.034 197.893 381.627 197.795C382.211 197.685 382.795 197.758 383.379 198.013C383.963 198.268 384.532 198.737 385.085 199.421L383.987 200.277C383.707 199.319 383.584 198.471 383.618 197.735C383.666 196.988 383.844 196.332 384.153 195.766C384.463 195.2 384.889 194.706 385.432 194.283C386.126 193.742 386.789 193.448 387.422 193.401C388.058 193.332 388.652 193.457 389.206 193.776C389.749 194.083 390.232 194.508 390.655 195.051C390.773 195.202 390.875 195.346 390.961 195.482C391.049 195.596 391.135 195.732 391.218 195.89L394.844 202.223L393.008 203.654L389.59 197.706C389.517 197.56 389.431 197.424 389.333 197.298C389.247 197.162 389.145 197.018 389.027 196.867C388.585 196.299 388.137 195.958 387.683 195.845C387.22 195.719 386.736 195.853 386.231 196.246C385.563 196.767 385.203 197.464 385.151 198.335C385.113 199.197 385.408 200.174 386.036 201.267L389.146 206.663L387.291 208.109L383.818 202.052C383.735 201.893 383.65 201.757 383.561 201.644C383.475 201.508 383.383 201.376 383.285 201.25C382.842 200.682 382.393 200.353 381.937 200.262C381.493 200.162 381.032 200.298 380.552 200.672C379.883 201.193 379.517 201.894 379.453 202.776C379.402 203.647 379.691 204.629 380.319 205.722L383.429 211.118L381.555 212.579ZM401.584 197.244C400.675 197.953 399.793 198.356 398.937 198.455C398.071 198.542 397.268 198.396 396.528 198.02C395.779 197.63 395.124 197.076 394.563 196.356C394.012 195.65 393.584 194.878 393.277 194.042C392.96 193.193 392.799 192.335 392.793 191.468C392.789 190.578 392.968 189.729 393.331 188.919C393.694 188.109 394.266 187.399 395.049 186.789C395.907 186.12 396.745 185.751 397.563 185.682C398.372 185.599 399.123 185.744 399.818 186.115C400.526 186.477 401.15 187.004 401.691 187.698C401.897 187.964 402.105 188.269 402.313 188.614C402.511 188.946 402.677 189.263 402.81 189.565L396.203 194.713C396.25 194.799 396.302 194.879 396.361 194.955C396.42 195.031 396.481 195.095 396.543 195.148C397.077 195.807 397.675 196.172 398.339 196.243C399.006 196.292 399.68 196.051 400.361 195.52C400.891 195.106 401.302 194.644 401.594 194.133C401.898 193.612 402.114 193.018 402.242 192.35L404.295 192.758C404.098 193.703 403.789 194.543 403.367 195.277C402.935 195.999 402.341 196.654 401.584 197.244ZM400.466 189.718C400.333 189.497 400.224 189.318 400.139 189.182C400.053 189.046 399.936 188.883 399.789 188.694C399.533 188.366 399.223 188.11 398.858 187.928C398.483 187.734 398.077 187.655 397.639 187.692C397.201 187.729 396.742 187.934 396.263 188.308C395.733 188.721 395.358 189.216 395.138 189.793C394.921 190.347 394.832 190.923 394.872 191.521C394.915 192.096 395.052 192.649 395.282 193.179L400.772 188.901L400.466 189.718ZM409.762 190.872C409.219 191.295 408.666 191.482 408.102 191.435C407.537 191.388 407.019 191.062 406.547 190.456C406.488 190.38 406.424 190.298 406.355 190.21C406.289 190.099 406.228 189.994 406.172 189.896L399.12 177.684L400.956 176.253L407.8 188.08C407.836 188.153 407.879 188.221 407.928 188.284C407.968 188.335 408.012 188.392 408.061 188.455C408.238 188.682 408.416 188.807 408.596 188.829C408.778 188.829 408.964 188.755 409.154 188.607C409.28 188.509 409.396 188.398 409.503 188.274C409.612 188.128 409.728 187.977 409.85 187.822L410.891 189.627C410.72 189.902 410.531 190.141 410.323 190.343C410.126 190.558 409.939 190.734 409.762 190.872ZM416.762 185.417C415.853 186.125 414.971 186.529 414.115 186.628C413.249 186.714 412.446 186.569 411.707 186.192C410.957 185.803 410.302 185.248 409.741 184.529C409.19 183.822 408.762 183.051 408.455 182.215C408.138 181.366 407.977 180.508 407.971 179.641C407.967 178.751 408.146 177.901 408.509 177.091C408.872 176.281 409.444 175.571 410.227 174.961C411.085 174.293 411.923 173.924 412.741 173.854C413.55 173.772 414.301 173.916 414.996 174.288C415.704 174.649 416.328 175.177 416.869 175.871C417.075 176.136 417.283 176.441 417.491 176.786C417.689 177.118 417.855 177.435 417.988 177.737L411.381 182.885C411.428 182.971 411.481 183.052 411.54 183.127C411.599 183.203 411.659 183.268 411.721 183.321C412.255 183.98 412.853 184.345 413.517 184.416C414.184 184.464 414.858 184.223 415.539 183.692C416.069 183.279 416.48 182.817 416.772 182.306C417.076 181.785 417.292 181.19 417.42 180.522L419.473 180.931C419.276 181.876 418.967 182.715 418.545 183.449C418.113 184.171 417.519 184.827 416.762 185.417ZM415.644 177.891C415.511 177.669 415.403 177.49 415.317 177.354C415.231 177.218 415.114 177.056 414.967 176.866C414.711 176.538 414.401 176.283 414.036 176.101C413.661 175.906 413.255 175.827 412.817 175.864C412.379 175.901 411.92 176.106 411.441 176.48C410.911 176.893 410.536 177.388 410.316 177.965C410.099 178.52 410.01 179.096 410.05 179.693C410.093 180.269 410.23 180.822 410.46 181.352L415.95 177.074L415.644 177.891ZM426.246 178.026C425.565 178.557 424.899 178.914 424.25 179.095C423.6 179.277 422.988 179.338 422.414 179.278C421.84 179.218 421.337 179.093 420.905 178.903L421.505 176.822C422.058 177.142 422.651 177.278 423.284 177.231C423.917 177.184 424.523 176.935 425.104 176.482C425.495 176.178 425.798 175.85 426.012 175.501C426.229 175.129 426.338 174.76 426.338 174.395C426.35 174.021 426.243 173.688 426.017 173.398C425.83 173.158 425.602 173.021 425.332 172.988C425.053 172.942 424.73 172.97 424.364 173.073C423.998 173.176 423.567 173.339 423.072 173.563C422.688 173.72 422.287 173.87 421.87 174.012C421.454 174.154 421.038 174.245 420.622 174.285C420.207 174.324 419.814 174.276 419.444 174.138C419.063 173.989 418.716 173.712 418.401 173.308C417.948 172.727 417.707 172.105 417.675 171.439C417.646 170.752 417.805 170.07 418.151 169.395C418.497 168.72 419.03 168.102 419.749 167.541C420.481 166.971 421.254 166.622 422.068 166.495C422.882 166.368 423.647 166.492 424.365 166.866L423.735 168.634C423.221 168.365 422.723 168.287 422.242 168.398C421.751 168.497 421.285 168.718 420.843 169.062C420.351 169.446 420.005 169.887 419.806 170.387C419.608 170.887 419.661 171.332 419.966 171.724C420.182 172.001 420.475 172.117 420.846 172.072C421.219 172.005 421.755 171.82 422.453 171.519C423.034 171.249 423.633 171.016 424.25 170.819C424.88 170.612 425.486 170.556 426.067 170.651C426.638 170.733 427.16 171.077 427.632 171.683C428.143 172.339 428.42 173.046 428.463 173.804C428.509 174.539 428.343 175.277 427.966 176.017C427.589 176.757 427.016 177.426 426.246 178.026ZM435.249 171.011C434.568 171.542 433.902 171.898 433.253 172.08C432.603 172.261 431.991 172.322 431.417 172.262C430.843 172.202 430.34 172.077 429.908 171.887L430.508 169.807C431.061 170.126 431.654 170.262 432.287 170.216C432.92 170.169 433.527 169.919 434.107 169.467C434.498 169.162 434.801 168.834 435.016 168.485C435.233 168.113 435.341 167.744 435.341 167.379C435.353 167.005 435.246 166.672 435.02 166.382C434.833 166.142 434.605 166.006 434.335 165.972C434.056 165.926 433.733 165.954 433.367 166.057C433.001 166.16 432.57 166.323 432.075 166.547C431.691 166.704 431.29 166.854 430.874 166.996C430.457 167.138 430.041 167.229 429.626 167.269C429.21 167.309 428.817 167.26 428.447 167.123C428.066 166.973 427.719 166.696 427.404 166.292C426.952 165.712 426.71 165.089 426.678 164.424C426.65 163.736 426.808 163.055 427.154 162.379C427.5 161.704 428.033 161.086 428.752 160.525C429.484 159.955 430.257 159.606 431.071 159.479C431.885 159.352 432.65 159.476 433.368 159.85L432.738 161.619C432.224 161.35 431.727 161.271 431.245 161.382C430.754 161.481 430.288 161.702 429.846 162.046C429.354 162.43 429.008 162.872 428.81 163.371C428.611 163.871 428.664 164.317 428.969 164.708C429.185 164.985 429.479 165.102 429.849 165.056C430.222 164.989 430.758 164.804 431.457 164.503C432.037 164.233 432.636 164 433.254 163.803C433.884 163.596 434.489 163.54 435.07 163.635C435.641 163.717 436.163 164.061 436.635 164.667C437.146 165.323 437.423 166.03 437.466 166.788C437.512 167.523 437.346 168.261 436.969 169.001C436.593 169.741 436.019 170.411 435.249 171.011ZM449.89 159.602C449.019 160.281 448.151 160.663 447.285 160.75C446.432 160.826 445.619 160.668 444.847 160.276C444.087 159.874 443.412 159.294 442.822 158.537C442.262 157.818 441.839 157.041 441.555 156.208C441.261 155.362 441.128 154.502 441.157 153.628C441.186 152.754 441.391 151.924 441.774 151.139C442.146 150.342 442.717 149.643 443.487 149.043C444.409 148.325 445.36 147.959 446.343 147.944C447.328 147.907 448.27 148.257 449.171 148.996L447.918 150.824C447.423 150.398 446.905 150.163 446.364 150.118C445.825 150.052 445.278 150.234 444.722 150.667C444.205 151.07 443.844 151.544 443.64 152.089C443.435 152.634 443.347 153.21 443.374 153.817C443.414 154.415 443.546 155.002 443.771 155.577C443.996 156.152 444.291 156.673 444.655 157.14C444.999 157.582 445.388 157.938 445.822 158.208C446.258 158.456 446.717 158.576 447.196 158.567C447.679 158.536 448.16 158.333 448.64 157.959C449.258 157.477 449.653 156.916 449.823 156.276C449.997 155.614 449.996 154.935 449.819 154.241L451.981 153.774C452.225 155.024 452.154 156.144 451.769 157.133C451.374 158.11 450.748 158.933 449.89 159.602ZM457.699 153.516C457.157 153.939 456.603 154.127 456.039 154.08C455.475 154.033 454.957 153.706 454.485 153.101C454.426 153.025 454.362 152.943 454.293 152.854C454.227 152.744 454.166 152.639 454.109 152.541L447.057 140.328L448.894 138.897L455.737 150.725C455.774 150.798 455.816 150.866 455.866 150.929C455.905 150.98 455.949 151.036 455.998 151.099C456.175 151.327 456.354 151.451 456.533 151.474C456.716 151.473 456.902 151.4 457.091 151.252C457.217 151.154 457.334 151.043 457.44 150.919C457.549 150.773 457.665 150.622 457.787 150.466L458.828 152.271C458.658 152.547 458.468 152.785 458.261 152.988C458.063 153.203 457.876 153.379 457.699 153.516ZM464.396 148.298C463.652 148.878 462.875 149.209 462.067 149.291C461.249 149.361 460.459 149.206 459.697 148.826C458.934 148.447 458.248 147.866 457.638 147.083C457.068 146.351 456.636 145.562 456.342 144.716C456.06 143.86 455.928 143 455.944 142.136C455.95 141.259 456.125 140.443 456.47 139.687C456.817 138.91 457.344 138.245 458.051 137.695C458.631 137.242 459.225 136.962 459.831 136.855C460.44 136.726 461.029 136.753 461.599 136.938C462.182 137.113 462.703 137.457 463.164 137.97L462.834 138.562L461.156 135.549L462.935 134.162L468.902 144.513L467.103 145.915L465.33 142.976L466.018 142.804C466.261 143.61 466.34 144.349 466.256 145.023C466.185 145.687 465.99 146.295 465.671 146.848C465.364 147.392 464.939 147.875 464.396 148.298ZM463.504 146.255C464.009 145.861 464.375 145.394 464.602 144.852C464.828 144.31 464.938 143.748 464.931 143.165C464.923 142.583 464.812 142.011 464.596 141.448C464.394 140.876 464.106 140.35 463.732 139.87C463.348 139.378 462.931 139.024 462.478 138.808C462.029 138.57 461.567 138.484 461.091 138.551C460.618 138.595 460.148 138.799 459.681 139.162C459.177 139.556 458.811 140.023 458.584 140.565C458.347 141.095 458.226 141.655 458.221 142.247C458.229 142.83 458.334 143.407 458.536 143.98C458.739 144.552 459.027 145.078 459.401 145.557C459.784 146.05 460.207 146.41 460.669 146.638C461.144 146.857 461.624 146.939 462.109 146.885C462.585 146.819 463.05 146.609 463.504 146.255ZM474.978 140.052C474.297 140.583 473.631 140.939 472.982 141.121C472.332 141.302 471.721 141.363 471.147 141.303C470.573 141.244 470.069 141.118 469.637 140.928L470.237 138.848C470.79 139.167 471.383 139.303 472.016 139.257C472.649 139.21 473.256 138.96 473.836 138.508C474.227 138.203 474.53 137.876 474.745 137.526C474.962 137.154 475.07 136.785 475.07 136.421C475.082 136.046 474.975 135.713 474.749 135.423C474.562 135.183 474.334 135.047 474.065 135.013C473.785 134.967 473.462 134.996 473.096 135.098C472.73 135.201 472.299 135.364 471.804 135.588C471.42 135.745 471.019 135.895 470.603 136.037C470.186 136.179 469.77 136.27 469.355 136.31C468.94 136.35 468.547 136.301 468.176 136.164C467.796 136.014 467.448 135.737 467.133 135.333C466.681 134.753 466.439 134.13 466.407 133.465C466.379 132.777 466.537 132.096 466.883 131.42C467.229 130.745 467.762 130.127 468.481 129.567C469.213 128.996 469.986 128.647 470.8 128.52C471.614 128.393 472.38 128.517 473.097 128.891L472.467 130.66C471.953 130.391 471.456 130.312 470.974 130.423C470.483 130.522 470.017 130.743 469.575 131.087C469.083 131.471 468.738 131.913 468.539 132.412C468.34 132.912 468.393 133.358 468.698 133.749C468.914 134.027 469.208 134.143 469.578 134.098C469.951 134.03 470.487 133.845 471.186 133.545C471.766 133.275 472.365 133.041 472.983 132.844C473.613 132.637 474.218 132.581 474.799 132.676C475.37 132.758 475.892 133.102 476.364 133.708C476.875 134.364 477.153 135.071 477.195 135.829C477.241 136.564 477.075 137.302 476.698 138.042C476.322 138.782 475.748 139.452 474.978 140.052ZM483.982 133.036C483.3 133.567 482.635 133.923 481.985 134.105C481.336 134.286 480.724 134.347 480.15 134.288C479.576 134.228 479.073 134.103 478.64 133.912L479.24 131.832C479.794 132.151 480.387 132.288 481.019 132.241C481.652 132.194 482.259 131.944 482.839 131.492C483.231 131.187 483.534 130.86 483.748 130.51C483.965 130.138 484.073 129.77 484.073 129.405C484.085 129.03 483.978 128.698 483.752 128.407C483.565 128.167 483.337 128.031 483.068 127.997C482.788 127.951 482.466 127.98 482.1 128.083C481.733 128.185 481.303 128.348 480.808 128.572C480.423 128.73 480.023 128.879 479.606 129.022C479.189 129.164 478.773 129.255 478.358 129.294C477.943 129.334 477.55 129.285 477.179 129.148C476.799 128.998 476.451 128.721 476.137 128.317C475.684 127.737 475.442 127.114 475.411 126.449C475.382 125.761 475.541 125.08 475.887 124.405C476.233 123.729 476.765 123.111 477.485 122.551C478.217 121.98 478.99 121.632 479.803 121.505C480.617 121.378 481.383 121.501 482.1 121.875L481.47 123.644C480.957 123.375 480.459 123.296 479.978 123.407C479.487 123.506 479.02 123.727 478.579 124.072C478.086 124.455 477.741 124.897 477.542 125.397C477.343 125.896 477.396 126.342 477.701 126.733C477.918 127.011 478.211 127.127 478.581 127.082C478.955 127.014 479.49 126.83 480.189 126.529C480.77 126.259 481.369 126.025 481.986 125.828C482.616 125.621 483.221 125.565 483.802 125.66C484.374 125.743 484.895 126.087 485.367 126.692C485.879 127.349 486.156 128.056 486.199 128.813C486.244 129.549 486.079 130.286 485.702 131.026C485.325 131.766 484.752 132.436 483.982 133.036ZM489.483 128.475L483.516 118.125L485.39 116.664L491.338 127.03L489.483 128.475ZM482.376 116.427L480.942 113.923L483.024 112.301L484.477 114.79L482.376 116.427ZM498.104 122.031C497.234 122.709 496.365 123.092 495.5 123.178C494.646 123.255 493.834 123.097 493.062 122.705C492.302 122.303 491.627 121.723 491.037 120.966C490.477 120.246 490.054 119.47 489.77 118.637C489.476 117.791 489.343 116.931 489.372 116.057C489.4 115.182 489.606 114.353 489.988 113.568C490.361 112.771 490.932 112.072 491.702 111.472C492.623 110.754 493.575 110.388 494.557 110.373C495.542 110.335 496.485 110.686 497.385 111.425L496.132 113.253C495.638 112.827 495.12 112.591 494.578 112.547C494.039 112.48 493.492 112.663 492.937 113.096C492.42 113.499 492.059 113.973 491.854 114.518C491.65 115.062 491.561 115.638 491.588 116.246C491.628 116.844 491.761 117.43 491.986 118.005C492.211 118.581 492.505 119.102 492.869 119.569C493.213 120.01 493.602 120.366 494.036 120.637C494.473 120.885 494.931 121.004 495.411 120.995C495.894 120.964 496.375 120.762 496.855 120.388C497.473 119.906 497.868 119.345 498.038 118.705C498.212 118.042 498.21 117.364 498.034 116.67L500.196 116.202C500.439 117.452 500.369 118.572 499.984 119.562C499.589 120.539 498.963 121.362 498.104 122.031Z" fill="black"/>
<path d="M271.098 388.664L268.344 385.13C268.788 383.27 269.338 381.164 269.994 378.814C270.684 376.437 271.296 373.959 271.828 371.38C272.395 368.775 272.761 366.191 272.927 363.627C273.127 361.038 272.992 358.573 272.522 356.235C272.052 353.897 271.122 351.836 269.732 350.052C268.185 348.066 266.37 346.884 264.289 346.504C262.208 346.124 260.091 346.773 257.937 348.452C256.355 349.684 255.314 351.09 254.814 352.67C254.322 354.19 254.305 355.799 254.763 357.497C255.228 359.136 256.074 360.776 257.299 362.418L252.873 365.38C251.588 363.731 250.634 361.986 250.011 360.146C249.362 358.271 249.092 356.399 249.203 354.528C249.287 352.623 249.787 350.8 250.702 349.059C251.625 347.258 253.012 345.637 254.863 344.194C256.983 342.542 259.188 341.554 261.478 341.23C263.742 340.872 265.94 341.16 268.074 342.094C270.216 342.968 272.125 344.481 273.804 346.635C275.273 348.52 276.335 350.613 276.992 352.914C277.683 355.188 278.022 357.602 278.009 360.154C278.03 362.68 277.801 365.266 277.32 367.912C276.84 370.558 276.193 373.198 275.38 375.834C274.567 378.469 273.641 381.029 272.603 383.515L272.533 381.135L291.464 366.383L294.572 370.371L271.098 388.664Z" fill="black"/>
<path d="M781.696 456.664C782.236 457.356 782.55 458.093 782.639 458.876C782.715 459.657 782.57 460.427 782.203 461.186C781.83 461.938 781.246 462.623 780.451 463.243C779.656 463.862 778.852 464.258 778.04 464.43C777.214 464.6 776.435 464.55 775.704 464.28C774.96 464.008 774.318 463.526 773.779 462.834C773.193 462.083 772.873 461.285 772.819 460.44C772.756 459.601 772.958 458.805 773.424 458.052L774.203 458.527C773.843 459.128 773.679 459.752 773.711 460.402C773.744 461.051 773.998 461.681 774.474 462.292C774.91 462.851 775.424 463.238 776.016 463.451C776.603 463.656 777.228 463.684 777.891 463.534C778.555 463.383 779.222 463.047 779.892 462.525C780.562 462.003 781.055 461.436 781.37 460.823C781.678 460.216 781.804 459.603 781.748 458.985C781.686 458.358 781.437 457.766 781.001 457.206C780.525 456.595 779.976 456.194 779.354 456.004C778.725 455.82 778.08 455.826 777.417 456.023L777.135 455.16C777.979 454.893 778.804 454.889 779.61 455.148C780.416 455.408 781.111 455.913 781.696 456.664ZM776.428 449.971C776.818 450.471 777.05 451.012 777.124 451.593C777.185 452.173 777.092 452.737 776.844 453.284C776.59 453.838 776.19 454.327 775.645 454.752C775.1 455.176 774.535 455.445 773.949 455.559C773.357 455.665 772.791 455.615 772.252 455.408C771.699 455.2 771.225 454.842 770.829 454.334C770.433 453.826 770.207 453.286 770.152 452.713C770.083 452.14 770.173 451.579 770.421 451.031C770.662 450.476 771.056 449.986 771.6 449.561C772.145 449.137 772.72 448.872 773.325 448.768C773.917 448.662 774.486 448.709 775.033 448.91C775.573 449.117 776.037 449.47 776.428 449.971ZM775.809 450.453C775.511 450.07 775.161 449.81 774.759 449.674C774.351 449.53 773.925 449.507 773.48 449.605C773.029 449.709 772.586 449.93 772.151 450.268C771.709 450.612 771.387 450.988 771.183 451.395C770.973 451.808 770.891 452.227 770.938 452.651C770.972 453.075 771.138 453.478 771.436 453.86C771.734 454.243 772.088 454.506 772.495 454.65C772.903 454.794 773.332 454.82 773.782 454.73C774.227 454.632 774.67 454.411 775.111 454.067C775.546 453.729 775.868 453.353 776.079 452.94C776.277 452.526 776.356 452.103 776.316 451.673C776.276 451.242 776.107 450.836 775.809 450.453ZM772.494 444.923C772.735 445.232 772.832 445.553 772.784 445.887C772.728 446.226 772.487 446.561 772.06 446.894L765.511 451.997L764.969 451.301L771.396 446.293C771.647 446.098 771.79 445.91 771.826 445.728C771.861 445.546 771.816 445.374 771.69 445.212C771.633 445.139 771.562 445.063 771.479 444.987C771.388 444.915 771.29 444.843 771.186 444.771L771.783 444.306C771.924 444.397 772.058 444.5 772.183 444.615C772.31 444.717 772.414 444.82 772.494 444.923ZM769.226 440.729C769.616 441.229 769.848 441.77 769.922 442.351C769.983 442.931 769.89 443.495 769.643 444.042C769.388 444.596 768.988 445.085 768.443 445.51C767.898 445.934 767.333 446.203 766.747 446.317C766.155 446.423 765.589 446.373 765.05 446.166C764.497 445.958 764.023 445.6 763.627 445.092C763.231 444.584 763.005 444.044 762.95 443.471C762.882 442.898 762.971 442.337 763.219 441.789C763.46 441.234 763.854 440.744 764.399 440.319C764.943 439.895 765.518 439.63 766.123 439.526C766.715 439.42 767.284 439.467 767.831 439.668C768.371 439.874 768.836 440.228 769.226 440.729ZM768.607 441.211C768.309 440.828 767.959 440.568 767.557 440.432C767.149 440.288 766.723 440.265 766.278 440.363C765.827 440.467 765.384 440.688 764.949 441.026C764.508 441.37 764.185 441.746 763.981 442.153C763.771 442.566 763.689 442.984 763.736 443.409C763.77 443.832 763.936 444.235 764.234 444.618C764.533 445.001 764.886 445.264 765.293 445.408C765.701 445.552 766.13 445.578 766.58 445.488C767.025 445.39 767.468 445.169 767.909 444.825C768.344 444.486 768.666 444.111 768.877 443.698C769.075 443.284 769.154 442.861 769.114 442.431C769.075 442 768.906 441.593 768.607 441.211ZM765.998 436.746L760.554 440.988L760.003 440.282L761.45 439.154L761.62 439.305C761.236 439.51 760.852 439.602 760.469 439.581C760.086 439.56 759.732 439.463 759.408 439.29C759.076 439.123 758.816 438.917 758.626 438.674C758.512 438.527 758.415 438.366 758.337 438.19C758.246 438.012 758.183 437.825 758.148 437.628L759.044 437.479C759.074 437.609 759.121 437.745 759.183 437.886C759.245 438.026 759.32 438.152 759.406 438.262C759.555 438.454 759.741 438.617 759.964 438.751C760.186 438.885 760.442 438.97 760.73 439.005C761.005 439.039 761.304 438.99 761.626 438.857C761.76 438.801 761.916 438.72 762.095 438.616C762.268 438.505 762.499 438.337 762.786 438.113L765.447 436.039L765.998 436.746ZM758.526 435.425L757.333 436.355L756.679 435.516L757.872 434.586L758.526 435.425ZM762.535 432.302L761.342 433.231L760.688 432.392L761.881 431.462L762.535 432.302ZM756.313 424.158C756.588 424.511 756.771 424.89 756.86 425.293C756.937 425.695 756.924 426.096 756.821 426.495C756.718 426.895 756.535 427.275 756.271 427.634L756.021 427.473L757.733 426.14L758.275 426.835L750.578 432.833L750.036 432.138L753.989 429.057L754.025 429.331C753.646 429.496 753.253 429.577 752.848 429.574C752.443 429.57 752.055 429.482 751.684 429.309C751.313 429.137 750.989 428.874 750.714 428.521C750.353 428.057 750.146 427.549 750.095 426.998C750.031 426.444 750.122 425.894 750.37 425.346C750.617 424.798 751.021 424.306 751.58 423.87C752.11 423.457 752.672 423.191 753.266 423.072C753.846 422.951 754.407 422.981 754.95 423.161C755.48 423.34 755.934 423.672 756.313 424.158ZM755.758 424.767C755.472 424.399 755.127 424.147 754.725 424.011C754.31 423.873 753.877 423.849 753.427 423.94C752.977 424.03 752.542 424.239 752.123 424.566C751.703 424.893 751.394 425.263 751.196 425.678C750.999 426.092 750.92 426.515 750.959 426.945C750.993 427.368 751.154 427.764 751.441 428.132C751.727 428.5 752.072 428.752 752.474 428.889C752.876 429.025 753.302 429.048 753.752 428.958C754.197 428.86 754.629 428.647 755.048 428.32C755.468 427.993 755.779 427.626 755.983 427.219C756.181 426.805 756.266 426.383 756.24 425.954C756.206 425.531 756.045 425.136 755.758 424.767ZM752.468 419.224C752.709 419.533 752.806 419.855 752.758 420.188C752.702 420.527 752.461 420.863 752.034 421.195L745.486 426.298L744.944 425.603L751.371 420.594C751.621 420.399 751.764 420.211 751.8 420.029C751.836 419.847 751.79 419.675 751.664 419.513C751.607 419.44 751.536 419.365 751.453 419.288C751.362 419.217 751.264 419.145 751.16 419.072L751.757 418.607C751.898 418.698 752.032 418.801 752.157 418.916C752.284 419.018 752.388 419.121 752.468 419.224ZM749.63 415.582C749.928 415.965 750.109 416.356 750.173 416.757C750.229 417.163 750.162 417.563 749.974 417.959C749.772 418.353 749.432 418.736 748.953 419.109L745.563 421.751L745.021 421.055L748.168 418.603C748.566 418.293 748.857 417.983 749.041 417.674C749.219 417.37 749.296 417.067 749.274 416.765C749.244 416.469 749.112 416.169 748.876 415.868C748.624 415.544 748.332 415.328 747.999 415.22C747.667 415.112 747.296 415.123 746.888 415.252C746.474 415.373 746.02 415.626 745.527 416.011L742.766 418.162L742.224 417.466L747.668 413.224L748.21 413.92L746.94 414.909L746.811 414.744C747.369 414.533 747.895 414.509 748.387 414.67C748.866 414.829 749.28 415.133 749.63 415.582ZM744.714 409.274C745.03 409.679 745.241 410.094 745.348 410.519C745.449 410.938 745.455 411.347 745.365 411.749C745.275 412.15 745.104 412.537 744.852 412.912C744.593 413.279 744.273 413.611 743.89 413.91C743.5 414.214 743.095 414.446 742.676 414.607C742.25 414.774 741.83 414.858 741.418 414.86C740.992 414.86 740.591 414.771 740.214 414.591C739.832 414.404 739.488 414.115 739.184 413.725C738.863 413.313 738.661 412.902 738.579 412.493C738.484 412.082 738.49 411.687 738.596 411.308C738.69 410.927 738.85 410.578 739.076 410.26C739.296 409.935 739.556 409.655 739.858 409.419C739.917 409.373 739.997 409.317 740.099 409.25C740.194 409.175 740.281 409.119 740.359 409.082L743.5 413.113C744.114 412.611 744.471 412.067 744.57 411.48C744.664 410.887 744.498 410.318 744.074 409.773C743.804 409.427 743.523 409.172 743.231 409.01C742.925 408.846 742.559 408.747 742.13 408.714L742.185 407.873C742.559 407.912 742.896 407.987 743.194 408.098C743.486 408.214 743.759 408.367 744.015 408.559C744.258 408.748 744.491 408.987 744.714 409.274ZM740.522 410.02C740.451 410.052 740.387 410.09 740.328 410.136C740.262 410.188 740.199 410.236 740.14 410.282C739.949 410.431 739.78 410.617 739.632 410.838C739.479 411.052 739.374 411.288 739.315 411.547C739.256 411.805 739.259 412.082 739.322 412.375C739.385 412.669 739.532 412.963 739.761 413.258C740.025 413.596 740.342 413.829 740.712 413.954C741.076 414.073 741.453 414.093 741.842 414.015C742.231 413.937 742.61 413.771 742.981 413.518L740.175 409.918L740.522 410.02Z" fill="black"/>
<path d="M767.957 468.333C768.543 469.084 768.827 469.851 768.809 470.633C768.792 471.416 768.5 472.111 767.932 472.719L767.205 472.15C767.681 471.637 767.921 471.088 767.928 470.504C767.92 469.918 767.707 469.356 767.289 468.819C767.042 468.502 766.759 468.267 766.438 468.115C766.112 467.954 765.778 467.89 765.435 467.92C765.092 467.951 764.773 468.081 764.479 468.31C764.162 468.557 763.974 468.84 763.915 469.158C763.848 469.482 763.854 469.839 763.932 470.228C764.01 470.616 764.12 471.039 764.263 471.496C764.418 472.014 764.531 472.5 764.601 472.954C764.664 473.414 764.638 473.836 764.524 474.221C764.404 474.599 764.152 474.937 763.769 475.235C763.387 475.533 762.98 475.702 762.549 475.742C762.111 475.787 761.679 475.71 761.251 475.511C760.818 475.304 760.429 474.98 760.085 474.538C759.718 474.067 759.5 473.568 759.433 473.041C759.365 472.514 759.452 471.979 759.692 471.437L760.493 471.736C760.321 472.154 760.254 472.561 760.291 472.958C760.323 473.348 760.473 473.715 760.743 474.061C760.972 474.356 761.228 474.571 761.511 474.705C761.793 474.84 762.083 474.893 762.379 474.863C762.668 474.839 762.938 474.729 763.188 474.534C763.453 474.328 763.623 474.083 763.698 473.8C763.767 473.509 763.765 473.18 763.691 472.811C763.611 472.436 763.497 472.016 763.348 471.552C763.178 470.999 763.062 470.485 763.001 470.012C762.927 469.538 762.954 469.102 763.083 468.706C763.212 468.309 763.479 467.954 763.884 467.638C764.311 467.305 764.77 467.113 765.262 467.061C765.754 467.009 766.236 467.089 766.709 467.3C767.174 467.517 767.59 467.862 767.957 468.333ZM764.943 464.669L759.499 468.912L758.957 468.216L764.401 463.974L764.943 464.669ZM758.49 469.804L757.298 470.734L756.652 469.905L757.845 468.976L758.49 469.804ZM763.404 462.695L762.885 463.099L755.542 462.947L755.649 462.81L758.386 466.322L757.822 466.761L754.587 462.609L755.15 462.17L762.487 462.292L762.305 462.469L759.483 458.847L760.057 458.399L763.404 462.695ZM757.475 454.926C757.79 455.331 758.002 455.747 758.108 456.172C758.209 456.59 758.215 457 758.125 457.401C758.036 457.802 757.865 458.19 757.612 458.564C757.354 458.931 757.033 459.264 756.65 459.562C756.26 459.866 755.856 460.099 755.437 460.26C755.01 460.426 754.591 460.511 754.178 460.513C753.753 460.513 753.351 460.423 752.975 460.244C752.592 460.056 752.249 459.768 751.945 459.378C751.624 458.965 751.422 458.555 751.34 458.145C751.244 457.735 751.25 457.34 751.357 456.96C751.451 456.58 751.61 456.23 751.836 455.913C752.056 455.587 752.317 455.307 752.619 455.072C752.678 455.026 752.758 454.97 752.859 454.902C752.955 454.828 753.042 454.772 753.119 454.735L756.26 458.766C756.875 458.263 757.231 457.719 757.331 457.133C757.424 456.539 757.259 455.97 756.834 455.425C756.565 455.079 756.284 454.825 755.991 454.662C755.686 454.498 755.319 454.4 754.891 454.366L754.945 453.525C755.32 453.565 755.656 453.64 755.955 453.75C756.246 453.866 756.52 454.02 756.776 454.211C757.018 454.401 757.251 454.639 757.475 454.926ZM753.282 455.673C753.212 455.704 753.147 455.743 753.088 455.789C753.022 455.84 752.96 455.889 752.901 455.935C752.709 456.084 752.54 456.269 752.393 456.49C752.24 456.704 752.134 456.94 752.076 457.199C752.017 457.458 752.019 457.734 752.082 458.028C752.146 458.322 752.292 458.616 752.522 458.91C752.785 459.249 753.102 459.481 753.473 459.607C753.837 459.725 754.214 459.746 754.602 459.667C754.991 459.589 755.371 459.424 755.741 459.17L752.936 455.57L753.282 455.673ZM750.454 454.344L749.261 455.273L748.607 454.434L749.8 453.505L750.454 454.344ZM754.463 451.22L753.27 452.15L752.616 451.31L753.809 450.381L754.463 451.22ZM748.576 443.507C748.995 444.045 749.267 444.59 749.391 445.144C749.508 445.704 749.475 446.232 749.294 446.728C749.105 447.23 748.775 447.665 748.304 448.032L747.727 447.382C748.264 446.963 748.544 446.449 748.566 445.84C748.589 445.231 748.362 444.621 747.886 444.01C747.576 443.612 747.24 443.318 746.878 443.127C746.516 442.936 746.153 442.857 745.79 442.892C745.413 442.925 745.063 443.068 744.739 443.32C744.43 443.561 744.228 443.825 744.132 444.113C744.029 444.406 744.011 444.71 744.079 445.024C744.139 445.344 744.262 445.669 744.447 445.997C744.619 446.325 744.829 446.647 745.075 446.963L744.512 447.402C744.328 447.166 744.126 446.945 743.906 446.738C743.673 446.53 743.43 446.37 743.178 446.259C742.92 446.14 742.653 446.094 742.377 446.12C742.101 446.145 741.823 446.267 741.543 446.485C741.278 446.692 741.094 446.941 740.992 447.235C740.881 447.533 740.863 447.844 740.936 448.165C741.002 448.493 741.155 448.811 741.396 449.12C741.786 449.621 742.236 449.909 742.745 449.986C743.241 450.061 743.713 449.93 744.16 449.593L744.65 450.312C744.23 450.639 743.785 450.826 743.313 450.874C742.842 450.922 742.38 450.838 741.928 450.623C741.476 450.407 741.072 450.071 740.716 449.614C740.378 449.18 740.164 448.731 740.075 448.268C739.981 447.797 740.006 447.352 740.151 446.931C740.291 446.503 740.556 446.136 740.946 445.832C741.196 445.637 741.449 445.506 741.703 445.438C741.95 445.375 742.201 445.363 742.456 445.401C742.703 445.445 742.936 445.524 743.155 445.638C743.368 445.744 743.572 445.869 743.767 446.013C743.626 445.756 743.513 445.483 743.429 445.193C743.34 444.896 743.301 444.595 743.312 444.29C743.323 443.986 743.4 443.69 743.542 443.401C743.677 443.119 743.895 442.86 744.197 442.625C744.653 442.269 745.144 442.07 745.667 442.029C746.191 441.988 746.704 442.091 747.205 442.339C747.706 442.588 748.163 442.977 748.576 443.507ZM743.692 437.239C744.008 437.644 744.2 438.051 744.269 438.458C744.333 438.858 744.304 439.254 744.182 439.644C744.06 440.035 743.874 440.411 743.623 440.772C743.365 441.139 743.065 441.491 742.724 441.828C742.377 442.157 742.02 442.465 741.652 442.752C741.284 443.039 740.901 443.307 740.504 443.557C740.1 443.813 739.692 444.019 739.281 444.174C738.862 444.334 738.451 444.43 738.048 444.46C737.64 444.482 737.253 444.411 736.888 444.246C736.515 444.087 736.174 443.808 735.864 443.411C735.572 443.035 735.393 442.654 735.328 442.267C735.25 441.878 735.264 441.494 735.371 441.115C735.472 440.728 735.648 440.355 735.899 439.993C736.144 439.625 736.438 439.266 736.781 438.916C737.124 438.566 737.497 438.233 737.902 437.918C738.307 437.602 738.721 437.321 739.144 437.074C739.561 436.82 739.979 436.619 740.396 436.471C740.813 436.324 741.219 436.244 741.613 436.233C742.006 436.222 742.383 436.296 742.742 436.453C743.089 436.609 743.405 436.871 743.692 437.239ZM743.019 437.764C742.709 437.367 742.319 437.156 741.85 437.131C741.376 437.098 740.852 437.216 740.28 437.484C739.703 437.745 739.101 438.12 738.475 438.607C737.827 439.112 737.303 439.616 736.901 440.118C736.5 440.62 736.257 441.105 736.172 441.573C736.087 442.042 736.205 442.482 736.527 442.894C736.785 443.226 737.088 443.433 737.437 443.516C737.78 443.592 738.151 443.575 738.551 443.465C738.95 443.355 739.372 443.174 739.815 442.923C740.245 442.671 740.681 442.372 741.123 442.028C741.55 441.695 741.939 441.351 742.289 440.996C742.633 440.633 742.907 440.271 743.112 439.911C743.31 439.543 743.412 439.18 743.416 438.821C743.415 438.455 743.283 438.103 743.019 437.764ZM740.96 433.892L736.666 434.008L735.515 438.135L734.844 437.273L735.819 433.923L732.332 434.049L731.669 433.198L735.96 433.102L737.113 428.956L737.784 429.817L736.79 433.165L740.297 433.042L740.96 433.892ZM734.551 425.508C734.97 426.046 735.241 426.591 735.365 427.146C735.482 427.705 735.45 428.233 735.268 428.73C735.08 429.232 734.75 429.666 734.279 430.033L733.701 429.383C734.238 428.964 734.518 428.45 734.541 427.841C734.563 427.232 734.336 426.622 733.86 426.011C733.55 425.614 733.214 425.319 732.852 425.128C732.49 424.937 732.128 424.859 731.764 424.893C731.388 424.926 731.037 425.069 730.714 425.321C730.404 425.562 730.202 425.827 730.106 426.114C730.004 426.407 729.986 426.711 730.053 427.025C730.113 427.345 730.236 427.67 730.421 427.999C730.593 428.326 730.803 428.648 731.05 428.964L730.486 429.403C730.303 429.168 730.101 428.946 729.88 428.739C729.647 428.531 729.404 428.371 729.152 428.26C728.894 428.142 728.627 428.095 728.351 428.121C728.075 428.146 727.798 428.268 727.518 428.486C727.253 428.693 727.069 428.943 726.966 429.236C726.856 429.535 726.837 429.845 726.91 430.167C726.976 430.494 727.129 430.812 727.37 431.121C727.761 431.622 728.21 431.911 728.719 431.987C729.216 432.062 729.687 431.931 730.135 431.594L730.624 432.313C730.205 432.64 729.759 432.828 729.288 432.875C728.816 432.923 728.354 432.84 727.902 432.624C727.45 432.408 727.046 432.072 726.691 431.616C726.352 431.181 726.138 430.732 726.05 430.269C725.955 429.799 725.98 429.353 726.126 428.932C726.265 428.504 726.53 428.138 726.92 427.834C727.171 427.638 727.423 427.507 727.678 427.439C727.925 427.376 728.176 427.364 728.43 427.402C728.678 427.446 728.911 427.525 729.129 427.639C729.342 427.745 729.546 427.87 729.741 428.014C729.6 427.757 729.488 427.484 729.404 427.194C729.314 426.897 729.275 426.596 729.286 426.292C729.298 425.987 729.374 425.691 729.516 425.402C729.651 425.12 729.87 424.861 730.171 424.626C730.628 424.27 731.118 424.072 731.642 424.03C732.166 423.989 732.678 424.092 733.179 424.341C733.681 424.589 734.138 424.978 734.551 425.508ZM729.667 419.241C729.982 419.645 730.175 420.052 730.244 420.459C730.307 420.86 730.278 421.255 730.156 421.646C730.035 422.036 729.848 422.412 729.597 422.773C729.339 423.14 729.039 423.492 728.698 423.829C728.352 424.158 727.994 424.466 727.626 424.753C727.258 425.04 726.876 425.308 726.479 425.559C726.075 425.814 725.667 426.02 725.255 426.175C724.836 426.336 724.425 426.431 724.023 426.461C723.614 426.483 723.227 426.412 722.862 426.247C722.489 426.088 722.148 425.809 721.838 425.412C721.546 425.036 721.367 424.655 721.302 424.268C721.224 423.879 721.238 423.495 721.345 423.116C721.446 422.73 721.622 422.356 721.873 421.995C722.119 421.626 722.413 421.267 722.755 420.917C723.098 420.567 723.472 420.234 723.877 419.919C724.282 419.603 724.695 419.322 725.118 419.075C725.536 418.821 725.953 418.62 726.37 418.473C726.788 418.325 727.193 418.245 727.587 418.234C727.981 418.223 728.357 418.297 728.717 418.454C729.063 418.61 729.38 418.872 729.667 419.241ZM728.993 419.766C728.683 419.368 728.294 419.157 727.825 419.132C727.35 419.099 726.827 419.217 726.255 419.486C725.677 419.746 725.075 420.121 724.449 420.608C723.802 421.113 723.277 421.617 722.875 422.119C722.474 422.621 722.231 423.106 722.146 423.575C722.062 424.043 722.18 424.483 722.501 424.895C722.759 425.227 723.063 425.434 723.411 425.517C723.755 425.593 724.126 425.576 724.525 425.466C724.924 425.356 725.346 425.175 725.789 424.924C726.22 424.672 726.656 424.373 727.097 424.029C727.524 423.696 727.913 423.352 728.263 422.997C728.607 422.634 728.882 422.272 729.086 421.912C729.284 421.544 729.386 421.181 729.391 420.822C729.389 420.456 729.257 420.104 728.993 419.766Z" fill="black"/>
<path d="M539.188 471.34L525.478 453.747L527.119 452.469L533.236 460.319L542.525 453.081L536.408 445.231L538.074 443.932L551.783 461.526L550.117 462.824L543.725 454.62L534.436 461.859L540.828 470.062L539.188 471.34ZM564.201 451.849L561.897 449.101L558.061 444.179C557.169 443.035 556.2 442.398 555.152 442.267C554.104 442.137 553.008 442.518 551.863 443.41C551.123 443.987 550.56 444.669 550.173 445.458C549.773 446.229 549.571 447.184 549.567 448.324L547.638 448.244C547.682 446.912 547.972 445.739 548.508 444.727C549.048 443.684 549.839 442.756 550.883 441.943C552.464 440.71 554.012 440.18 555.526 440.353C557.027 440.509 558.393 441.378 559.626 442.959L565.664 450.708L564.201 451.849ZM559.946 455.448C559.021 456.17 558.088 456.639 557.149 456.857C556.227 457.062 555.365 457.031 554.562 456.764C553.762 456.467 553.068 455.94 552.478 455.183C551.953 454.51 551.64 453.848 551.538 453.197C551.44 452.516 551.497 451.877 551.708 451.28C551.926 450.623 552.276 450.013 552.756 449.449C553.253 448.872 553.838 448.322 554.511 447.797L558.626 444.591L559.57 445.803L555.657 448.851C555.169 449.232 554.723 449.647 554.317 450.099C553.928 450.537 553.672 451.007 553.549 451.508C553.424 451.903 553.404 452.311 553.489 452.732C553.577 453.123 553.778 453.52 554.093 453.924C554.683 454.681 555.424 455.077 556.317 455.112C557.213 455.117 558.133 454.752 559.075 454.018C559.832 453.428 560.384 452.713 560.732 451.875C561.066 451.02 561.169 450.128 561.041 449.2C560.929 448.259 560.566 447.393 559.949 446.602L561.221 446.828C561.871 447.836 562.251 448.879 562.36 449.957C562.47 451.034 562.314 452.048 561.892 452.999C561.47 453.95 560.821 454.767 559.946 455.448ZM569.428 447.776L559.731 435.332L561.347 434.073L563.609 436.976L563.328 437.397C563.01 436.536 562.868 435.713 562.905 434.927C562.942 434.142 563.139 433.406 563.498 432.721C563.874 432.023 564.406 431.405 565.096 430.867C566.442 429.818 567.809 429.402 569.195 429.62C570.569 429.821 571.892 430.737 573.164 432.37L579.222 440.144L577.632 441.383L572.026 434.189C570.951 432.81 569.896 431.995 568.863 431.745C567.847 431.482 566.826 431.751 565.799 432.55C565.093 433.101 564.608 433.763 564.345 434.536C564.085 435.279 564.107 436.141 564.411 437.121C564.702 438.084 565.313 439.163 566.244 440.358L571.044 446.517L569.428 447.776ZM588.099 433.511C586.988 434.376 585.787 434.866 584.496 434.979C583.209 435.062 581.948 434.815 580.712 434.236C579.481 433.627 578.393 432.717 577.449 431.505C576.452 430.226 575.832 428.911 575.59 427.558C575.347 426.206 575.452 424.934 575.904 423.744C576.342 422.536 577.083 421.526 578.126 420.713C578.951 420.071 579.822 419.662 580.741 419.487C581.646 419.296 582.549 419.309 583.449 419.527C584.35 419.745 585.166 420.15 585.898 420.743L585.685 421.355L578.643 412.318L580.234 411.079L593.943 428.672L592.353 429.911L589.304 425.999L589.947 425.782C590.331 426.727 590.526 427.671 590.53 428.614C590.535 429.557 590.34 430.452 589.946 431.3C589.539 432.131 588.923 432.868 588.099 433.511ZM587.21 431.85C588.052 431.194 588.628 430.407 588.94 429.488C589.238 428.552 589.276 427.576 589.052 426.561C588.845 425.532 588.368 424.538 587.621 423.579C586.873 422.619 586.026 421.914 585.079 421.462C584.149 420.997 583.2 420.803 582.233 420.881C581.265 420.958 580.361 421.325 579.52 421.981C578.695 422.623 578.119 423.41 577.79 424.343C577.462 425.275 577.401 426.255 577.608 427.284C577.814 428.313 578.291 429.307 579.039 430.266C579.786 431.225 580.634 431.931 581.581 432.383C582.528 432.835 583.5 433.024 584.497 432.95C585.481 432.859 586.386 432.492 587.21 431.85ZM600.037 424.207C599.331 424.758 598.596 424.979 597.835 424.869C597.06 424.742 596.292 424.191 595.532 423.215L583.868 408.247L585.458 407.008L596.906 421.698C597.352 422.27 597.782 422.598 598.198 422.679C598.613 422.761 599.006 422.658 599.376 422.37C599.544 422.239 599.716 422.077 599.892 421.886C600.055 421.679 600.219 421.456 600.385 421.218L601.448 422.581C601.24 422.905 601.005 423.21 600.741 423.497C600.508 423.787 600.273 424.024 600.037 424.207ZM609.372 416.933C608.446 417.655 607.497 418.137 606.525 418.381C605.569 418.612 604.632 418.625 603.715 418.42C602.798 418.216 601.912 417.824 601.056 417.247C600.218 416.656 599.457 415.924 598.775 415.049C598.08 414.157 597.549 413.232 597.181 412.274C596.801 411.3 596.608 410.341 596.603 409.398C596.603 408.425 596.808 407.508 597.218 406.647C597.646 405.773 598.306 404.988 599.198 404.293C600.14 403.559 601.079 403.098 602.014 402.91C602.953 402.692 603.856 402.705 604.723 402.95C605.593 403.164 606.391 403.529 607.118 404.045C607.861 404.547 608.501 405.144 609.039 405.834C609.144 405.968 609.273 406.152 609.427 406.383C609.597 406.602 609.725 406.8 609.809 406.978L600.596 414.157C601.744 415.561 602.988 416.377 604.328 416.604C605.685 416.818 606.986 416.44 608.231 415.469C609.022 414.853 609.603 414.211 609.975 413.543C610.35 412.844 610.576 412.006 610.652 411.027L612.575 411.152C612.484 412.007 612.312 412.776 612.06 413.459C611.795 414.126 611.444 414.751 611.007 415.335C610.573 415.889 610.028 416.422 609.372 416.933ZM607.665 407.35C607.594 407.19 607.506 407.042 607.401 406.907C607.283 406.756 607.171 406.613 607.067 406.478C606.726 406.041 606.302 405.654 605.797 405.317C605.308 404.968 604.768 404.726 604.177 404.592C603.585 404.458 602.954 404.463 602.282 404.608C601.611 404.752 600.938 405.087 600.265 405.612C599.491 406.215 598.961 406.939 598.673 407.785C598.403 408.618 598.357 409.479 598.535 410.368C598.714 411.256 599.093 412.124 599.672 412.971L607.9 406.559L607.665 407.35ZM626.798 403.07L613.491 393.439L615.183 392.121L625.807 400.029L621.316 387.342L622.78 386.201L633.971 393.586L628.939 381.401L630.63 380.084L636.692 395.36L635.178 396.54L623.785 388.948L628.338 401.87L626.798 403.07ZM643.131 390.343L633.434 377.899L635.024 376.66L644.721 389.104L643.131 390.343ZM631.394 375.594L629.27 372.868L631.163 371.393L633.287 374.119L631.394 375.594ZM652.577 383.266C652.022 383.698 651.449 383.969 650.858 384.078C650.266 384.187 649.676 384.107 649.086 383.836C648.5 383.535 647.932 383.031 647.381 382.325L637.193 369.25L638.08 367.057L648.702 380.687C649.226 381.36 649.749 381.805 650.269 382.022C650.793 382.208 651.341 382.079 651.913 381.633C652.115 381.475 652.321 381.288 652.53 381.071C652.727 380.837 652.933 380.581 653.15 380.304L654.133 381.566C653.909 381.903 653.665 382.215 653.402 382.501C653.138 382.788 652.863 383.043 652.577 383.266ZM638.198 376.215L637.215 374.953L644.535 369.248L645.518 370.511L638.198 376.215ZM657.033 379.509L643.324 361.916L644.939 360.657L651.214 368.709L650.908 369.15C650.589 368.29 650.448 367.467 650.485 366.681C650.538 365.882 650.744 365.14 651.103 364.455C651.478 363.756 652.011 363.139 652.701 362.601C654.064 361.539 655.437 361.132 656.82 361.379C658.207 361.597 659.523 362.505 660.769 364.103L666.827 371.878L665.236 373.117L659.631 365.923C658.555 364.543 657.501 363.729 656.468 363.479C655.452 363.216 654.431 363.484 653.404 364.284C652.327 365.123 651.784 366.196 651.774 367.502C651.781 368.795 652.472 370.325 653.849 372.092L658.648 378.251L657.033 379.509ZM569.962 500.889C569.087 501.571 568.18 502.021 567.241 502.239C566.289 502.44 565.34 502.436 564.393 502.228C563.463 502.006 562.57 501.606 561.714 501.029C560.858 500.452 560.083 499.717 559.388 498.825C558.706 497.95 558.19 497.027 557.839 496.056C557.488 495.086 557.319 494.122 557.331 493.166C557.36 492.197 557.595 491.284 558.036 490.426C558.464 489.552 559.115 488.774 559.99 488.092C561.118 487.214 562.327 486.718 563.618 486.604C564.909 486.491 566.21 486.842 567.523 487.659L566.517 489.335C565.631 488.754 564.717 488.466 563.774 488.47C562.831 488.475 561.93 488.812 561.072 489.48C560.163 490.189 559.598 491.008 559.376 491.938C559.154 492.868 559.187 493.83 559.474 494.823C559.778 495.803 560.271 496.731 560.953 497.606C561.635 498.481 562.421 499.194 563.31 499.745C564.203 500.266 565.127 500.533 566.083 500.545C567.04 500.557 567.972 500.209 568.881 499.501C569.739 498.832 570.285 498.041 570.52 497.128C570.755 496.215 570.693 495.249 570.332 494.232L572.204 493.666C572.679 495.108 572.71 496.45 572.297 497.691C571.885 498.932 571.107 499.998 569.962 500.889ZM586.023 488.09L583.719 485.342L579.884 480.42C578.992 479.276 578.022 478.638 576.974 478.508C575.926 478.378 574.83 478.759 573.686 479.651C572.946 480.228 572.382 480.91 571.996 481.698C571.596 482.47 571.394 483.425 571.389 484.564L569.461 484.485C569.505 483.153 569.795 481.98 570.331 480.967C570.87 479.925 571.662 478.997 572.705 478.184C574.287 476.951 575.835 476.421 577.349 476.594C578.849 476.75 580.216 477.619 581.449 479.2L587.487 486.949L586.023 488.09ZM581.769 491.689C580.843 492.411 579.911 492.88 578.972 493.098C578.05 493.303 577.187 493.272 576.384 493.005C575.585 492.708 574.89 492.181 574.3 491.424C573.776 490.751 573.463 490.089 573.361 489.438C573.263 488.757 573.32 488.118 573.531 487.521C573.749 486.864 574.098 486.253 574.579 485.69C575.076 485.113 575.661 484.562 576.334 484.038L580.448 480.832L581.392 482.043L577.48 485.092C576.992 485.472 576.545 485.888 576.14 486.34C575.751 486.778 575.495 487.248 575.372 487.749C575.247 488.144 575.227 488.552 575.311 488.973C575.4 489.364 575.601 489.761 575.916 490.165C576.506 490.922 577.247 491.318 578.14 491.353C579.036 491.358 579.955 490.993 580.898 490.259C581.655 489.669 582.207 488.954 582.554 488.116C582.888 487.26 582.991 486.369 582.863 485.441C582.752 484.5 582.388 483.634 581.772 482.843L583.044 483.069C583.694 484.077 584.074 485.12 584.183 486.197C584.293 487.275 584.136 488.289 583.714 489.24C583.292 490.191 582.644 491.007 581.769 491.689ZM591.251 484.016L581.554 471.573L583.169 470.314L585.746 473.62L585.401 474.011C584.933 473.132 584.722 472.254 584.77 471.379C584.818 470.503 585.04 469.695 585.436 468.953C585.819 468.195 586.288 467.6 586.843 467.167C587.18 466.905 587.549 466.685 587.951 466.506C588.357 466.298 588.785 466.154 589.236 466.073L589.575 468.122C589.277 468.191 588.968 468.297 588.646 468.44C588.324 468.582 588.037 468.752 587.785 468.948C587.347 469.289 586.975 469.714 586.669 470.224C586.363 470.733 586.169 471.317 586.087 471.975C586.009 472.604 586.122 473.287 586.426 474.024C586.555 474.329 586.739 474.686 586.977 475.095C587.231 475.492 587.615 476.018 588.126 476.675L592.866 482.758L591.251 484.016ZM605.633 473.093C604.707 473.814 603.758 474.297 602.786 474.541C601.83 474.772 600.893 474.785 599.976 474.58C599.059 474.375 598.173 473.984 597.317 473.407C596.478 472.816 595.718 472.084 595.036 471.209C594.341 470.317 593.81 469.392 593.442 468.434C593.062 467.46 592.869 466.501 592.864 465.558C592.864 464.585 593.069 463.668 593.479 462.807C593.907 461.933 594.567 461.148 595.459 460.453C596.401 459.719 597.34 459.258 598.275 459.07C599.214 458.852 600.117 458.865 600.984 459.109C601.854 459.324 602.652 459.689 603.379 460.205C604.122 460.707 604.762 461.304 605.3 461.994C605.405 462.128 605.534 462.311 605.688 462.543C605.858 462.762 605.986 462.96 606.07 463.138L596.857 470.317C598.005 471.721 599.249 472.537 600.589 472.764C601.946 472.978 603.247 472.6 604.492 471.629C605.283 471.013 605.864 470.371 606.236 469.702C606.611 469.004 606.837 468.166 606.913 467.187L608.836 467.312C608.745 468.167 608.573 468.936 608.321 469.619C608.056 470.285 607.705 470.911 607.268 471.495C606.834 472.049 606.289 472.582 605.633 473.093ZM603.926 463.51C603.855 463.349 603.767 463.202 603.662 463.067C603.544 462.916 603.432 462.773 603.328 462.638C602.987 462.201 602.563 461.814 602.058 461.477C601.569 461.128 601.029 460.886 600.438 460.752C599.846 460.618 599.215 460.623 598.543 460.768C597.872 460.912 597.199 461.247 596.526 461.771C595.752 462.375 595.222 463.099 594.934 463.945C594.664 464.778 594.618 465.639 594.796 466.527C594.975 467.416 595.354 468.284 595.932 469.131L604.161 462.719L603.926 463.51Z" fill="black"/>
<path d="M539.816 476.571L556.702 463.413L557.489 464.422L540.602 477.581L539.816 476.571ZM556.701 463.414L583.813 442.287L584.599 443.296L557.487 464.423L556.701 463.414ZM583.692 442.381L598.685 430.697L599.472 431.707L584.479 443.39L583.692 442.381ZM598.433 430.894L604.945 425.819L605.732 426.829L599.219 431.904L598.433 430.894ZM604.94 425.823L625.109 410.106L625.896 411.116L605.727 426.833L604.94 425.823ZM625.103 410.111L649.438 391.148L650.225 392.158L625.89 411.12L625.103 410.111ZM649.433 391.152L657.863 384.583L658.65 385.592L650.219 392.162L649.433 391.152ZM657.863 384.583L671.42 374.018L672.207 375.028L658.65 385.593L657.863 384.583ZM565.632 509.701L578.656 499.551L579.443 500.561L566.418 510.71L565.632 509.701ZM578.523 499.655L602.101 481.281L602.888 482.291L579.31 500.664L578.523 499.655ZM601.201 481.983L614.806 471.381L615.593 472.391L601.988 482.993L601.201 481.983Z" fill="black"/>
<path d="M617.87 241.094C618.41 241.786 618.724 242.523 618.813 243.305C618.889 244.086 618.743 244.856 618.377 245.615C618.004 246.367 617.42 247.053 616.625 247.672C615.83 248.292 615.026 248.688 614.213 248.86C613.388 249.03 612.609 248.98 611.878 248.709C611.133 248.438 610.492 247.956 609.952 247.264C609.367 246.513 609.047 245.715 608.992 244.87C608.93 244.031 609.132 243.235 609.598 242.481L610.377 242.957C610.017 243.557 609.853 244.182 609.885 244.831C609.918 245.48 610.172 246.11 610.648 246.721C611.084 247.281 611.598 247.667 612.19 247.88C612.776 248.086 613.401 248.114 614.065 247.963C614.729 247.813 615.396 247.477 616.066 246.955C616.736 246.433 617.228 245.865 617.544 245.253C617.852 244.646 617.978 244.033 617.922 243.414C617.86 242.788 617.611 242.195 617.175 241.636C616.698 241.025 616.15 240.624 615.528 240.434C614.899 240.249 614.253 240.256 613.591 240.453L613.309 239.59C614.153 239.322 614.978 239.318 615.784 239.578C616.59 239.837 617.285 240.343 617.87 241.094ZM612.601 234.4C612.992 234.901 613.224 235.442 613.298 236.023C613.359 236.603 613.266 237.166 613.018 237.714C612.763 238.268 612.364 238.757 611.819 239.181C611.274 239.606 610.709 239.875 610.123 239.988C609.531 240.095 608.965 240.044 608.425 239.838C607.873 239.629 607.398 239.271 607.003 238.763C606.607 238.255 606.381 237.715 606.326 237.143C606.257 236.569 606.347 236.009 606.594 235.461C606.836 234.906 607.229 234.416 607.774 233.991C608.319 233.567 608.894 233.302 609.499 233.198C610.09 233.091 610.66 233.139 611.207 233.34C611.746 233.546 612.211 233.9 612.601 234.4ZM611.983 234.882C611.685 234.5 611.335 234.24 610.932 234.104C610.525 233.96 610.099 233.937 609.654 234.035C609.202 234.138 608.759 234.359 608.325 234.698C607.883 235.042 607.561 235.418 607.357 235.825C607.146 236.237 607.065 236.656 607.112 237.081C607.146 237.504 607.312 237.907 607.61 238.29C607.908 238.673 608.261 238.936 608.669 239.08C609.077 239.224 609.506 239.25 609.956 239.16C610.4 239.062 610.843 238.841 611.285 238.497C611.72 238.158 612.042 237.783 612.253 237.37C612.451 236.955 612.53 236.533 612.49 236.102C612.45 235.672 612.281 235.265 611.983 234.882ZM608.668 229.353C608.909 229.662 609.005 229.983 608.957 230.316C608.902 230.655 608.661 230.991 608.234 231.324L601.685 236.427L601.143 235.731L607.57 230.723C607.821 230.528 607.964 230.339 607.999 230.158C608.035 229.976 607.99 229.804 607.864 229.642C607.807 229.568 607.736 229.493 607.653 229.416C607.562 229.345 607.464 229.273 607.36 229.2L607.956 228.736C608.098 228.826 608.232 228.929 608.357 229.045C608.484 229.147 608.588 229.25 608.668 229.353ZM605.4 225.158C605.79 225.659 606.022 226.2 606.096 226.781C606.157 227.361 606.064 227.924 605.816 228.472C605.561 229.026 605.162 229.515 604.617 229.939C604.072 230.364 603.507 230.633 602.921 230.746C602.329 230.852 601.763 230.802 601.224 230.596C600.671 230.387 600.197 230.029 599.801 229.521C599.405 229.013 599.179 228.473 599.124 227.901C599.055 227.327 599.145 226.767 599.392 226.219C599.634 225.663 600.028 225.174 600.572 224.749C601.117 224.325 601.692 224.06 602.297 223.955C602.889 223.849 603.458 223.897 604.005 224.098C604.545 224.304 605.009 224.658 605.4 225.158ZM604.781 225.64C604.483 225.257 604.133 224.998 603.731 224.862C603.323 224.718 602.897 224.695 602.452 224.793C602.001 224.896 601.557 225.117 601.123 225.456C600.681 225.8 600.359 226.176 600.155 226.583C599.944 226.995 599.863 227.414 599.91 227.839C599.944 228.262 600.11 228.665 600.408 229.048C600.706 229.431 601.059 229.694 601.467 229.838C601.875 229.981 602.304 230.008 602.754 229.918C603.199 229.82 603.642 229.599 604.083 229.255C604.518 228.916 604.84 228.541 605.051 228.128C605.249 227.713 605.328 227.291 605.288 226.86C605.248 226.43 605.079 226.023 604.781 225.64ZM602.172 221.176L596.728 225.418L596.177 224.711L597.623 223.584L597.794 223.735C597.41 223.94 597.026 224.032 596.643 224.011C596.26 223.99 595.906 223.893 595.582 223.72C595.25 223.552 594.989 223.347 594.8 223.104C594.685 222.957 594.589 222.795 594.511 222.619C594.42 222.442 594.357 222.254 594.322 222.057L595.218 221.909C595.248 222.039 595.295 222.175 595.357 222.315C595.419 222.456 595.493 222.582 595.579 222.692C595.729 222.884 595.915 223.046 596.137 223.18C596.36 223.314 596.616 223.399 596.904 223.435C597.179 223.469 597.478 223.42 597.8 223.287C597.933 223.23 598.09 223.15 598.269 223.046C598.442 222.934 598.673 222.767 598.96 222.543L601.621 220.469L602.172 221.176ZM594.7 219.855L593.507 220.784L592.853 219.945L594.046 219.016L594.7 219.855ZM598.709 216.731L597.516 217.661L596.862 216.821L598.055 215.892L598.709 216.731ZM592.487 208.588C592.762 208.941 592.945 209.319 593.034 209.723C593.111 210.125 593.098 210.525 592.995 210.925C592.892 211.325 592.709 211.704 592.444 212.064L592.195 211.903L593.907 210.569L594.449 211.265L586.752 217.263L586.21 216.567L590.163 213.487L590.199 213.76C589.819 213.926 589.427 214.007 589.022 214.003C588.616 214 588.228 213.912 587.857 213.739C587.486 213.567 587.163 213.304 586.888 212.951C586.526 212.487 586.32 211.979 586.269 211.427C586.205 210.874 586.296 210.323 586.544 209.776C586.791 209.228 587.195 208.736 587.754 208.3C588.284 207.887 588.846 207.621 589.439 207.501C590.02 207.38 590.581 207.41 591.124 207.591C591.654 207.769 592.108 208.102 592.487 208.588ZM591.932 209.197C591.645 208.829 591.301 208.577 590.899 208.441C590.484 208.303 590.051 208.279 589.601 208.369C589.151 208.46 588.716 208.668 588.296 208.995C587.877 209.322 587.568 209.693 587.37 210.108C587.173 210.522 587.094 210.944 587.133 211.375C587.167 211.798 587.328 212.194 587.614 212.562C587.901 212.93 588.246 213.182 588.648 213.318C589.05 213.455 589.476 213.478 589.926 213.387C590.37 213.289 590.803 213.077 591.222 212.75C591.642 212.423 591.953 212.056 592.157 211.649C592.354 211.235 592.44 210.813 592.413 210.384C592.38 209.961 592.219 209.565 591.932 209.197ZM588.642 203.654C588.883 203.963 588.98 204.284 588.932 204.618C588.876 204.956 588.635 205.292 588.208 205.625L581.659 210.728L581.117 210.032L587.544 205.024C587.795 204.829 587.938 204.641 587.974 204.459C588.01 204.277 587.964 204.105 587.838 203.943C587.781 203.87 587.71 203.794 587.627 203.717C587.536 203.646 587.438 203.574 587.334 203.502L587.931 203.037C588.072 203.128 588.206 203.231 588.331 203.346C588.458 203.448 588.562 203.551 588.642 203.654ZM585.804 200.012C586.102 200.395 586.283 200.786 586.347 201.186C586.403 201.592 586.336 201.993 586.148 202.389C585.946 202.783 585.605 203.166 585.127 203.539L581.737 206.181L581.195 205.485L584.342 203.032C584.739 202.723 585.031 202.413 585.215 202.103C585.393 201.8 585.47 201.497 585.448 201.195C585.418 200.898 585.286 200.599 585.05 200.297C584.798 199.973 584.505 199.758 584.173 199.65C583.841 199.542 583.47 199.553 583.062 199.682C582.648 199.803 582.194 200.056 581.701 200.44L578.94 202.592L578.398 201.896L583.842 197.654L584.384 198.349L583.114 199.339L582.985 199.173C583.543 198.963 584.068 198.939 584.561 199.099C585.04 199.259 585.454 199.563 585.804 200.012ZM580.888 193.703C581.204 194.108 581.415 194.524 581.522 194.949C581.623 195.367 581.628 195.777 581.539 196.178C581.449 196.579 581.278 196.967 581.025 197.342C580.767 197.708 580.446 198.041 580.064 198.339C579.673 198.643 579.269 198.876 578.85 199.037C578.424 199.203 578.004 199.288 577.592 199.29C577.166 199.29 576.765 199.2 576.388 199.021C576.006 198.833 575.662 198.545 575.358 198.155C575.037 197.742 574.835 197.332 574.753 196.922C574.658 196.512 574.663 196.117 574.77 195.737C574.864 195.357 575.024 195.007 575.249 194.69C575.469 194.364 575.73 194.084 576.032 193.849C576.091 193.803 576.171 193.747 576.273 193.679C576.368 193.605 576.455 193.549 576.533 193.512L579.674 197.543C580.288 197.041 580.645 196.496 580.744 195.91C580.838 195.316 580.672 194.747 580.248 194.203C579.978 193.857 579.697 193.602 579.405 193.44C579.099 193.275 578.732 193.177 578.304 193.143L578.359 192.302C578.733 192.342 579.069 192.417 579.368 192.527C579.66 192.643 579.933 192.797 580.189 192.988C580.431 193.178 580.664 193.416 580.888 193.703ZM576.696 194.45C576.625 194.481 576.561 194.52 576.502 194.566C576.436 194.617 576.373 194.666 576.314 194.712C576.123 194.861 575.953 195.046 575.806 195.267C575.653 195.481 575.548 195.718 575.489 195.976C575.43 196.235 575.432 196.511 575.496 196.805C575.559 197.099 575.705 197.393 575.935 197.688C576.199 198.026 576.516 198.258 576.886 198.384C577.25 198.502 577.627 198.523 578.016 198.444C578.404 198.366 578.784 198.201 579.155 197.947L576.349 194.347L576.696 194.45Z" fill="black"/>
<path d="M605.132 253.466C605.717 254.217 606.001 254.984 605.984 255.767C605.967 256.549 605.674 257.245 605.107 257.852L604.379 257.283C604.855 256.771 605.096 256.222 605.102 255.637C605.095 255.051 604.882 254.49 604.463 253.952C604.217 253.636 603.933 253.401 603.613 253.248C603.287 253.088 602.953 253.023 602.61 253.054C602.267 253.084 601.948 253.214 601.654 253.444C601.337 253.691 601.149 253.973 601.09 254.292C601.023 254.616 601.028 254.972 601.107 255.361C601.185 255.75 601.295 256.173 601.438 256.629C601.593 257.147 601.706 257.633 601.776 258.088C601.838 258.548 601.813 258.97 601.698 259.355C601.578 259.732 601.327 260.07 600.944 260.369C600.561 260.667 600.155 260.836 599.724 260.876C599.286 260.921 598.853 260.844 598.426 260.645C597.993 260.438 597.604 260.114 597.26 259.672C596.893 259.201 596.675 258.702 596.608 258.175C596.54 257.647 596.626 257.113 596.867 256.571L597.667 256.87C597.496 257.287 597.429 257.695 597.466 258.092C597.497 258.481 597.648 258.849 597.918 259.195C598.147 259.489 598.403 259.704 598.686 259.839C598.968 259.974 599.258 260.026 599.554 259.997C599.843 259.973 600.112 259.863 600.363 259.668C600.628 259.461 600.798 259.217 600.873 258.933C600.942 258.643 600.94 258.313 600.866 257.945C600.786 257.569 600.672 257.149 600.523 256.685C600.352 256.132 600.237 255.619 600.176 255.146C600.101 254.671 600.129 254.236 600.258 253.839C600.387 253.443 600.654 253.087 601.059 252.772C601.486 252.439 601.945 252.246 602.437 252.194C602.929 252.142 603.411 252.222 603.884 252.434C604.349 252.651 604.765 252.995 605.132 253.466ZM602.118 249.803L596.674 254.045L596.131 253.35L601.576 249.107L602.118 249.803ZM595.665 254.938L594.472 255.867L593.827 255.039L595.02 254.11L595.665 254.938ZM600.579 247.829L600.06 248.233L592.717 248.08L592.824 247.944L595.56 251.455L594.997 251.894L591.762 247.742L592.325 247.303L599.662 247.425L599.48 247.602L596.657 243.98L597.232 243.533L600.579 247.829ZM594.65 240.06C594.965 240.465 595.176 240.88 595.283 241.306C595.384 241.724 595.39 242.134 595.3 242.535C595.211 242.936 595.039 243.324 594.787 243.698C594.529 244.065 594.208 244.398 593.825 244.696C593.435 245 593.03 245.232 592.611 245.393C592.185 245.56 591.766 245.644 591.353 245.646C590.927 245.646 590.526 245.557 590.149 245.377C589.767 245.19 589.424 244.901 589.12 244.511C588.798 244.099 588.597 243.688 588.514 243.279C588.419 242.868 588.425 242.473 588.532 242.094C588.626 241.713 588.785 241.364 589.011 241.046C589.231 240.721 589.492 240.441 589.794 240.206C589.852 240.16 589.933 240.103 590.034 240.036C590.13 239.961 590.216 239.906 590.294 239.869L593.435 243.899C594.049 243.397 594.406 242.853 594.506 242.267C594.599 241.673 594.434 241.104 594.009 240.559C593.74 240.213 593.459 239.959 593.166 239.796C592.861 239.632 592.494 239.533 592.066 239.5L592.12 238.659C592.494 238.699 592.831 238.774 593.13 238.884C593.421 239 593.695 239.153 593.95 239.345C594.193 239.534 594.426 239.773 594.65 240.06ZM590.457 240.807C590.387 240.838 590.322 240.876 590.263 240.922C590.197 240.974 590.134 241.023 590.076 241.068C589.884 241.218 589.715 241.403 589.568 241.624C589.415 241.838 589.309 242.074 589.25 242.333C589.192 242.591 589.194 242.868 589.257 243.162C589.321 243.455 589.467 243.75 589.696 244.044C589.96 244.383 590.277 244.615 590.647 244.741C591.012 244.859 591.388 244.879 591.777 244.801C592.166 244.723 592.546 244.557 592.916 244.304L590.111 240.704L590.457 240.807ZM587.629 239.477L586.436 240.407L585.782 239.568L586.975 238.638L587.629 239.477ZM591.637 236.354L590.445 237.283L589.791 236.444L590.983 235.514L591.637 236.354ZM585.751 228.641C586.17 229.178 586.441 229.724 586.566 230.278C586.682 230.838 586.65 231.366 586.469 231.862C586.28 232.364 585.95 232.799 585.479 233.166L584.901 232.515C585.439 232.097 585.719 231.583 585.741 230.974C585.763 230.365 585.537 229.755 585.06 229.144C584.751 228.746 584.415 228.452 584.053 228.26C583.691 228.069 583.328 227.991 582.965 228.026C582.588 228.059 582.238 228.201 581.914 228.454C581.605 228.695 581.402 228.959 581.307 229.246C581.204 229.54 581.186 229.843 581.254 230.158C581.314 230.478 581.436 230.802 581.622 231.131C581.794 231.458 582.003 231.78 582.25 232.097L581.687 232.536C581.503 232.3 581.301 232.079 581.081 231.872C580.847 231.663 580.605 231.504 580.352 231.392C580.094 231.274 579.827 231.228 579.552 231.253C579.276 231.279 578.998 231.401 578.718 231.619C578.453 231.825 578.269 232.075 578.166 232.368C578.056 232.667 578.038 232.977 578.111 233.299C578.177 233.626 578.33 233.945 578.571 234.254C578.961 234.754 579.411 235.043 579.92 235.119C580.416 235.194 580.888 235.063 581.335 234.726L581.825 235.446C581.405 235.773 580.959 235.96 580.488 236.008C580.016 236.056 579.555 235.972 579.103 235.756C578.651 235.541 578.247 235.204 577.891 234.748C577.553 234.314 577.339 233.865 577.25 233.402C577.156 232.931 577.181 232.485 577.326 232.064C577.466 231.636 577.731 231.27 578.121 230.966C578.371 230.771 578.624 230.639 578.878 230.571C579.125 230.509 579.376 230.497 579.631 230.535C579.878 230.579 580.111 230.658 580.33 230.771C580.543 230.877 580.747 231.002 580.941 231.146C580.8 230.889 580.688 230.616 580.604 230.326C580.515 230.029 580.476 229.729 580.487 229.424C580.498 229.119 580.575 228.823 580.717 228.535C580.852 228.252 581.07 227.993 581.372 227.758C581.828 227.403 582.318 227.204 582.842 227.163C583.366 227.121 583.879 227.225 584.38 227.473C584.881 227.721 585.338 228.111 585.751 228.641ZM580.867 222.373C581.183 222.778 581.375 223.184 581.444 223.592C581.508 223.992 581.478 224.387 581.357 224.778C581.235 225.169 581.049 225.544 580.798 225.906C580.54 226.273 580.24 226.624 579.899 226.961C579.552 227.291 579.195 227.599 578.827 227.886C578.458 228.172 578.076 228.441 577.679 228.691C577.275 228.947 576.867 229.152 576.456 229.307C576.037 229.468 575.626 229.563 575.223 229.593C574.815 229.616 574.428 229.544 574.063 229.379C573.69 229.22 573.349 228.942 573.039 228.544C572.746 228.169 572.568 227.787 572.503 227.4C572.424 227.011 572.439 226.628 572.546 226.248C572.647 225.862 572.823 225.488 573.074 225.127C573.319 224.758 573.613 224.399 573.956 224.049C574.298 223.699 574.672 223.367 575.077 223.051C575.482 222.736 575.896 222.455 576.319 222.208C576.736 221.954 577.153 221.753 577.571 221.605C577.988 221.457 578.394 221.378 578.787 221.367C579.181 221.356 579.558 221.429 579.917 221.587C580.264 221.743 580.58 222.005 580.867 222.373ZM580.194 222.898C579.884 222.5 579.494 222.289 579.025 222.264C578.55 222.232 578.027 222.35 577.455 222.618C576.877 222.879 576.276 223.253 575.65 223.741C575.002 224.246 574.477 224.749 574.076 225.251C573.674 225.753 573.431 226.239 573.347 226.707C573.262 227.175 573.38 227.616 573.701 228.028C573.96 228.359 574.263 228.566 574.612 228.65C574.955 228.725 575.326 228.708 575.726 228.598C576.125 228.488 576.546 228.308 576.99 228.057C577.42 227.804 577.856 227.506 578.298 227.162C578.725 226.829 579.113 226.485 579.463 226.129C579.808 225.766 580.082 225.405 580.286 225.044C580.485 224.676 580.587 224.313 580.591 223.955C580.59 223.589 580.457 223.237 580.194 222.898ZM578.134 219.026L573.841 219.141L572.69 223.268L572.019 222.407L572.993 219.056L569.506 219.182L568.844 218.332L573.135 218.236L574.288 214.089L574.959 214.951L573.965 218.299L577.472 218.175L578.134 219.026ZM571.726 210.642C572.144 211.179 572.416 211.725 572.54 212.279C572.657 212.839 572.624 213.367 572.443 213.863C572.255 214.365 571.925 214.8 571.453 215.167L570.876 214.517C571.413 214.098 571.693 213.584 571.715 212.975C571.738 212.366 571.511 211.756 571.035 211.145C570.725 210.747 570.389 210.453 570.027 210.262C569.665 210.07 569.302 209.992 568.939 210.027C568.562 210.06 568.212 210.203 567.888 210.455C567.579 210.696 567.377 210.96 567.281 211.248C567.178 211.541 567.161 211.844 567.228 212.159C567.288 212.479 567.411 212.803 567.596 213.132C567.768 213.459 567.978 213.781 568.224 214.098L567.661 214.537C567.478 214.301 567.276 214.08 567.055 213.873C566.822 213.664 566.579 213.505 566.327 213.394C566.069 213.275 565.802 213.229 565.526 213.254C565.25 213.28 564.972 213.402 564.693 213.62C564.428 213.826 564.244 214.076 564.141 214.369C564.03 214.668 564.012 214.978 564.085 215.3C564.151 215.627 564.304 215.946 564.545 216.255C564.935 216.756 565.385 217.044 565.894 217.121C566.39 217.195 566.862 217.064 567.31 216.728L567.799 217.447C567.379 217.774 566.934 217.961 566.462 218.009C565.991 218.057 565.529 217.973 565.077 217.757C564.625 217.542 564.221 217.206 563.865 216.749C563.527 216.315 563.313 215.866 563.224 215.403C563.13 214.932 563.155 214.486 563.301 214.066C563.44 213.637 563.705 213.271 564.095 212.967C564.346 212.772 564.598 212.64 564.852 212.572C565.1 212.51 565.351 212.498 565.605 212.536C565.852 212.58 566.085 212.659 566.304 212.772C566.517 212.878 566.721 213.004 566.916 213.147C566.775 212.891 566.662 212.617 566.579 212.328C566.489 212.03 566.45 211.73 566.461 211.425C566.472 211.121 566.549 210.824 566.691 210.536C566.826 210.253 567.044 209.995 567.346 209.759C567.803 209.404 568.293 209.205 568.817 209.164C569.34 209.122 569.853 209.226 570.354 209.474C570.855 209.723 571.313 210.112 571.726 210.642ZM566.842 204.374C567.157 204.779 567.349 205.185 567.418 205.593C567.482 205.993 567.453 206.389 567.331 206.779C567.21 207.17 567.023 207.546 566.772 207.907C566.514 208.274 566.214 208.626 565.873 208.962C565.526 209.292 565.169 209.6 564.801 209.887C564.433 210.174 564.05 210.442 563.654 210.692C563.249 210.948 562.842 211.153 562.43 211.308C562.011 211.469 561.6 211.565 561.197 211.594C560.789 211.617 560.402 211.546 560.037 211.381C559.664 211.221 559.323 210.943 559.013 210.545C558.721 210.17 558.542 209.789 558.477 209.401C558.399 209.013 558.413 208.629 558.52 208.25C558.621 207.863 558.797 207.489 559.048 207.128C559.293 206.759 559.587 206.4 559.93 206.05C560.273 205.701 560.647 205.368 561.051 205.052C561.456 204.737 561.87 204.456 562.293 204.209C562.711 203.955 563.128 203.754 563.545 203.606C563.963 203.458 564.368 203.379 564.762 203.368C565.156 203.357 565.532 203.43 565.892 203.588C566.238 203.744 566.555 204.006 566.842 204.374ZM566.168 204.899C565.858 204.502 565.469 204.29 565 204.265C564.525 204.233 564.001 204.351 563.429 204.619C562.852 204.88 562.25 205.254 561.624 205.742C560.976 206.247 560.452 206.75 560.05 207.252C559.649 207.755 559.406 208.24 559.321 208.708C559.236 209.176 559.355 209.617 559.676 210.029C559.934 210.36 560.237 210.567 560.586 210.651C560.929 210.726 561.301 210.709 561.7 210.599C562.099 210.489 562.521 210.309 562.964 210.058C563.395 209.805 563.831 209.507 564.272 209.163C564.699 208.83 565.088 208.486 565.438 208.13C565.782 207.767 566.056 207.406 566.261 207.045C566.459 206.678 566.561 206.314 566.565 205.956C566.564 205.59 566.432 205.238 566.168 204.899Z" fill="black"/>
</g>
<defs>
<clipPath id="clip0_590_205">
<rect width="580" height="580" fill="white" transform="translate(0 356.505) rotate(-37.9275)"/>
</clipPath>
</defs>
</svg>
