<svg width="173" height="360" viewBox="0 0 173 360" fill="none" xmlns="http://www.w3.org/2000/svg">
<rect x="54" width="69" height="110" fill="black"/>
<rect x="53" y="252" width="69" height="108" fill="black"/>
<circle cx="86.5" cy="180.5" r="85" fill="white" stroke="black" stroke-width="3"/>
<circle cx="87" cy="181" r="74.5" stroke="black" stroke-width="3"/>
<rect x="53.8086" y="162.359" width="4.665" height="49.6765" transform="rotate(-55.0755 53.8086 162.359)" fill="black"/>
<path d="M105.96 124.595L80.3628 203.829L76.7709 202.577L105.96 124.595Z" fill="black"/>
<circle cx="86.8962" cy="182.726" r="3" transform="rotate(-5.3839 86.8962 182.726)" fill="black"/>
<rect width="2" height="16.696" transform="matrix(-0.868268 0.496095 0.496095 0.868268 56.7539 132.548)" fill="black"/>
<rect width="2" height="16.696" transform="matrix(-0.713069 -0.701094 -0.701094 0.713069 122.132 134.402)" fill="black"/>
<rect width="2" height="16.696" transform="matrix(-0.885564 -0.464517 -0.464517 0.885564 65.9863 218.939)" fill="black"/>
<rect width="2" height="16.696" transform="matrix(-0.50612 -0.862463 -0.862463 0.50612 51.7998 204.93)" fill="black"/>
<rect width="2" height="16.696" transform="matrix(-0.50612 -0.862463 -0.862463 0.50612 138.457 154.576)" fill="black"/>
<rect width="2" height="16.696" transform="matrix(-0.868268 0.496095 0.496095 0.868268 106.214 219.074)" fill="black"/>
<rect width="2" height="16.696" transform="matrix(-0.522056 0.852911 0.852911 0.522056 123.801 203.208)" fill="black"/>
<rect width="2" height="16.696" transform="matrix(-0.522056 0.852911 0.852911 0.522056 37.2061 154.263)" fill="black"/>
<rect width="2" height="16.696" transform="matrix(-0.0938285 -0.995588 -0.995588 0.0938285 45.4072 183.429)" fill="black"/>
<rect width="2" height="16.696" transform="matrix(-0.995588 0.0938285 0.0938285 0.995588 86.7607 223.921)" fill="black"/>
<rect x="112.5" y="170.5" width="33" height="25" rx="6.5" stroke="black"/>
<path d="M128.05 187V177.242H129.478V187H128.05Z" fill="black"/>
<path d="M74.152 211.036C73.9653 211.036 73.7987 210.992 73.652 210.904C73.5053 210.816 73.3893 210.695 73.304 210.54C73.2213 210.385 73.18 210.209 73.18 210.012C73.18 209.815 73.2213 209.64 73.304 209.488C73.3867 209.333 73.5013 209.212 73.648 209.124C73.7973 209.036 73.9653 208.992 74.152 208.992C74.3413 208.992 74.508 209.036 74.652 209.124C74.796 209.212 74.9093 209.333 74.992 209.488C75.0773 209.64 75.12 209.815 75.12 210.012C75.12 210.209 75.0773 210.385 74.992 210.54C74.9093 210.692 74.7947 210.813 74.648 210.904C74.504 210.992 74.3387 211.036 74.152 211.036ZM74.152 210.688C74.2693 210.688 74.3707 210.66 74.456 210.604C74.544 210.548 74.6107 210.469 74.656 210.368C74.704 210.267 74.728 210.148 74.728 210.012C74.728 209.873 74.704 209.753 74.656 209.652C74.6107 209.551 74.544 209.473 74.456 209.42C74.3707 209.364 74.2693 209.336 74.152 209.336C74.032 209.336 73.928 209.364 73.84 209.42C73.7547 209.476 73.688 209.555 73.64 209.656C73.5947 209.755 73.572 209.873 73.572 210.012C73.572 210.148 73.5947 210.267 73.64 210.368C73.688 210.469 73.7547 210.548 73.84 210.604C73.928 210.66 74.032 210.688 74.152 210.688ZM75.6495 211V209.332H75.3095V209.028H75.6495V208.872C75.6495 208.725 75.6855 208.601 75.7575 208.5C75.8295 208.396 75.9269 208.316 76.0495 208.26C76.1722 208.204 76.3042 208.176 76.4455 208.176C76.5389 208.176 76.6335 208.189 76.7295 208.216C76.8282 208.24 76.9189 208.281 77.0015 208.34C77.0735 208.284 77.1549 208.243 77.2455 208.216C77.3389 208.189 77.4322 208.176 77.5255 208.176C77.6775 208.176 77.8069 208.193 77.9135 208.228C78.0229 208.26 78.1255 208.308 78.2215 208.372L78.0375 208.648C77.9735 208.6 77.8989 208.563 77.8135 208.536C77.7309 208.509 77.6415 208.496 77.5455 208.496C77.4095 208.496 77.3082 208.529 77.2415 208.596C77.1749 208.663 77.1415 208.759 77.1415 208.884V209.028H78.2495V211H77.8575V209.332H77.1415V211H76.7535V209.332H76.0375V211H75.6495ZM76.0375 209.028H76.7535V208.876C76.7535 208.823 76.7589 208.767 76.7695 208.708C76.7829 208.649 76.7975 208.609 76.8135 208.588C76.7655 208.559 76.7122 208.536 76.6535 208.52C76.5975 208.504 76.5349 208.496 76.4655 208.496C76.3242 208.496 76.2175 208.531 76.1455 208.6C76.0735 208.669 76.0375 208.763 76.0375 208.88V209.028ZM79.6002 211.036C79.4509 211.036 79.3175 211.009 79.2002 210.956C79.0855 210.9 78.9882 210.824 78.9082 210.728C78.8309 210.632 78.7722 210.523 78.7322 210.4C78.6922 210.277 78.6722 210.148 78.6722 210.012C78.6722 209.879 78.6922 209.751 78.7322 209.628C78.7722 209.505 78.8309 209.396 78.9082 209.3C78.9882 209.204 79.0855 209.129 79.2002 209.076C79.3175 209.02 79.4509 208.992 79.6002 208.992C79.7922 208.992 79.9589 209.039 80.1002 209.132C80.2442 209.225 80.3495 209.367 80.4162 209.556L80.0722 209.688C80.0375 209.584 79.9815 209.499 79.9042 209.432C79.8269 209.365 79.7255 209.332 79.6002 209.332C79.4775 209.332 79.3762 209.365 79.2962 209.432C79.2162 209.496 79.1575 209.58 79.1202 209.684C79.0829 209.785 79.0642 209.895 79.0642 210.012C79.0642 210.129 79.0829 210.24 79.1202 210.344C79.1575 210.448 79.2162 210.532 79.2962 210.596C79.3762 210.66 79.4775 210.692 79.6002 210.692C79.7255 210.692 79.8269 210.66 79.9042 210.596C79.9815 210.529 80.0375 210.443 80.0722 210.336L80.4162 210.468C80.3495 210.66 80.2442 210.803 80.1002 210.896C79.9589 210.989 79.7922 211.036 79.6002 211.036ZM82.1264 211L82.0944 210.636V209.76C82.0944 209.621 82.0544 209.515 81.9744 209.44C81.8944 209.365 81.7784 209.328 81.6264 209.328C81.5197 209.328 81.4171 209.349 81.3184 209.392C81.2224 209.435 81.1304 209.504 81.0424 209.6L80.7984 209.348C80.9157 209.225 81.0451 209.136 81.1864 209.08C81.3304 209.021 81.4864 208.992 81.6544 208.992C81.9184 208.992 82.1224 209.06 82.2664 209.196C82.4131 209.329 82.4864 209.517 82.4864 209.76V211H82.1264ZM81.4904 211.036C81.3437 211.036 81.2144 211.009 81.1024 210.956C80.9904 210.903 80.9037 210.829 80.8424 210.736C80.7811 210.64 80.7504 210.529 80.7504 210.404C80.7504 210.295 80.7731 210.201 80.8184 210.124C80.8637 210.044 80.9224 209.983 80.9944 209.94C81.0611 209.897 81.1371 209.868 81.2224 209.852C81.3104 209.833 81.4037 209.824 81.5024 209.824H82.1304V210.12H81.5584C81.5051 210.12 81.4491 210.125 81.3904 210.136C81.3344 210.144 81.2864 210.163 81.2464 210.192C81.2144 210.216 81.1891 210.247 81.1704 210.284C81.1517 210.319 81.1424 210.36 81.1424 210.408C81.1424 210.501 81.1784 210.576 81.2504 210.632C81.3224 210.688 81.4184 210.716 81.5384 210.716C81.6397 210.716 81.7317 210.693 81.8144 210.648C81.8997 210.6 81.9677 210.536 82.0184 210.456C82.0691 210.373 82.0944 210.28 82.0944 210.176L82.2344 210.36C82.2104 210.499 82.1637 210.62 82.0944 210.724C82.0251 210.825 81.9384 210.903 81.8344 210.956C81.7331 211.009 81.6184 211.036 81.4904 211.036ZM83.4264 211.036C83.301 211.036 83.1984 210.997 83.1184 210.92C83.0384 210.843 82.9984 210.72 82.9984 210.552V208.212H83.3864V210.476C83.3864 210.545 83.401 210.596 83.4304 210.628C83.4624 210.657 83.5037 210.672 83.5544 210.672C83.5757 210.672 83.5997 210.671 83.6264 210.668C83.6557 210.663 83.685 210.655 83.7144 210.644V210.976C83.6664 210.997 83.6157 211.012 83.5624 211.02C83.5117 211.031 83.4664 211.036 83.4264 211.036ZM84.5006 211.036C84.3753 211.036 84.2726 210.997 84.1926 210.92C84.1126 210.843 84.0726 210.72 84.0726 210.552V208.212H84.4606V210.476C84.4606 210.545 84.4753 210.596 84.5046 210.628C84.5366 210.657 84.5779 210.672 84.6286 210.672C84.6499 210.672 84.6739 210.671 84.7006 210.668C84.7299 210.663 84.7593 210.655 84.7886 210.644V210.976C84.7406 210.997 84.6899 211.012 84.6366 211.02C84.5859 211.031 84.5406 211.036 84.5006 211.036ZM85.3388 211.812L85.7228 210.884L84.9628 209.028H85.3948L85.9308 210.492L86.4748 209.028H86.8988L85.7668 211.812H85.3388ZM89.1353 211.036C88.986 211.036 88.8527 211.009 88.7353 210.956C88.6207 210.9 88.5233 210.824 88.4433 210.728C88.366 210.632 88.3073 210.523 88.2673 210.4C88.2273 210.277 88.2073 210.148 88.2073 210.012C88.2073 209.879 88.2273 209.751 88.2673 209.628C88.3073 209.505 88.366 209.396 88.4433 209.3C88.5233 209.204 88.6207 209.129 88.7353 209.076C88.8527 209.02 88.986 208.992 89.1353 208.992C89.3273 208.992 89.494 209.039 89.6353 209.132C89.7793 209.225 89.8847 209.367 89.9513 209.556L89.6073 209.688C89.5727 209.584 89.5167 209.499 89.4393 209.432C89.362 209.365 89.2607 209.332 89.1353 209.332C89.0127 209.332 88.9113 209.365 88.8313 209.432C88.7513 209.496 88.6927 209.58 88.6553 209.684C88.618 209.785 88.5993 209.895 88.5993 210.012C88.5993 210.129 88.618 210.24 88.6553 210.344C88.6927 210.448 88.7513 210.532 88.8313 210.596C88.9113 210.66 89.0127 210.692 89.1353 210.692C89.2607 210.692 89.362 210.66 89.4393 210.596C89.5167 210.529 89.5727 210.443 89.6073 210.336L89.9513 210.468C89.8847 210.66 89.7793 210.803 89.6353 210.896C89.494 210.989 89.3273 211.036 89.1353 211.036ZM91.2216 211.036C91.0616 211.036 90.9229 211.009 90.8056 210.956C90.6882 210.903 90.5909 210.829 90.5136 210.736C90.4362 210.64 90.3776 210.532 90.3376 210.412C90.3002 210.289 90.2816 210.161 90.2816 210.028C90.2816 209.895 90.3002 209.767 90.3376 209.644C90.3749 209.519 90.4309 209.408 90.5056 209.312C90.5802 209.213 90.6736 209.136 90.7856 209.08C90.9002 209.021 91.0349 208.992 91.1896 208.992C91.3442 208.992 91.4776 209.019 91.5896 209.072C91.7016 209.123 91.7936 209.195 91.8656 209.288C91.9376 209.379 91.9909 209.481 92.0256 209.596C92.0629 209.711 92.0816 209.832 92.0816 209.96C92.0816 209.973 92.0802 209.999 92.0776 210.036C92.0776 210.071 92.0749 210.104 92.0696 210.136H90.6736C90.6816 210.312 90.7349 210.448 90.8336 210.544C90.9349 210.637 91.0682 210.684 91.2336 210.684C91.3456 210.684 91.4456 210.667 91.5336 210.632C91.6216 210.595 91.7029 210.537 91.7776 210.46L92.0176 210.708C91.9402 210.785 91.8602 210.848 91.7776 210.896C91.6976 210.944 91.6122 210.979 91.5216 211C91.4336 211.024 91.3336 211.036 91.2216 211.036ZM91.6936 209.94C91.6989 209.919 91.7016 209.897 91.7016 209.876C91.7042 209.855 91.7056 209.833 91.7056 209.812C91.7056 209.751 91.6949 209.691 91.6736 209.632C91.6522 209.573 91.6202 209.521 91.5776 209.476C91.5349 209.428 91.4816 209.391 91.4176 209.364C91.3562 209.335 91.2842 209.32 91.2016 209.32C91.0922 209.32 90.9989 209.345 90.9216 209.396C90.8442 209.444 90.7842 209.508 90.7416 209.588C90.7016 209.668 90.6776 209.755 90.6696 209.848H91.8216L91.6936 209.94ZM92.5337 211V209.028H92.9297V209.56L92.8457 209.576C92.8591 209.459 92.8991 209.357 92.9657 209.272C93.0351 209.184 93.1164 209.116 93.2097 209.068C93.3031 209.017 93.3951 208.992 93.4857 208.992C93.5497 208.992 93.6097 209 93.6657 209.016C93.7244 209.029 93.7831 209.053 93.8417 209.088L93.6497 209.44C93.6204 209.424 93.5831 209.411 93.5377 209.4C93.4924 209.389 93.4497 209.384 93.4097 209.384C93.3484 209.384 93.2884 209.395 93.2297 209.416C93.1711 209.437 93.1177 209.472 93.0697 209.52C93.0244 209.568 92.9897 209.631 92.9657 209.708C92.9551 209.745 92.9457 209.795 92.9377 209.856C92.9324 209.915 92.9297 209.996 92.9297 210.1V211H92.5337ZM94.8741 211.036C94.7781 211.036 94.6887 211.017 94.6061 210.98C94.5261 210.943 94.4621 210.883 94.4141 210.8C94.3687 210.715 94.3461 210.605 94.3461 210.472V208.524L94.7421 208.304V210.368C94.7421 210.477 94.7581 210.563 94.7901 210.624C94.8247 210.683 94.8874 210.712 94.9781 210.712C95.0047 210.712 95.0354 210.709 95.0701 210.704C95.1074 210.696 95.1474 210.687 95.1901 210.676V210.98C95.1367 210.999 95.0834 211.012 95.0301 211.02C94.9767 211.031 94.9247 211.036 94.8741 211.036ZM93.9541 209.332V209.028H95.1901V209.332H93.9541ZM95.5922 211V209.028H95.9842V211H95.5922ZM95.5642 208.688V208.212H96.0082V208.688H95.5642ZM96.6339 211V209.332H96.2939V209.028H96.6339V208.876C96.6339 208.724 96.6699 208.596 96.7419 208.492C96.8139 208.388 96.9086 208.309 97.0259 208.256C97.1459 208.203 97.2739 208.176 97.4099 208.176C97.5592 208.176 97.6886 208.193 97.7979 208.228C97.9099 208.26 98.0126 208.308 98.1059 208.372L97.9219 208.648C97.8552 208.597 97.7806 208.56 97.6979 208.536C97.6152 208.509 97.5259 208.496 97.4299 208.496C97.2939 208.496 97.1912 208.531 97.1219 208.6C97.0552 208.667 97.0219 208.771 97.0219 208.912V209.028H97.8539V209.332H97.0219V211H96.6339ZM97.7139 211V209.028H98.1019V211H97.7139ZM99.4716 211.036C99.3116 211.036 99.1729 211.009 99.0556 210.956C98.9382 210.903 98.8409 210.829 98.7636 210.736C98.6862 210.64 98.6276 210.532 98.5876 210.412C98.5502 210.289 98.5316 210.161 98.5316 210.028C98.5316 209.895 98.5502 209.767 98.5876 209.644C98.6249 209.519 98.6809 209.408 98.7556 209.312C98.8302 209.213 98.9236 209.136 99.0356 209.08C99.1502 209.021 99.2849 208.992 99.4396 208.992C99.5942 208.992 99.7276 209.019 99.8396 209.072C99.9516 209.123 100.044 209.195 100.116 209.288C100.188 209.379 100.241 209.481 100.276 209.596C100.313 209.711 100.332 209.832 100.332 209.96C100.332 209.973 100.33 209.999 100.328 210.036C100.328 210.071 100.325 210.104 100.32 210.136H98.9236C98.9316 210.312 98.9849 210.448 99.0836 210.544C99.1849 210.637 99.3182 210.684 99.4836 210.684C99.5956 210.684 99.6956 210.667 99.7836 210.632C99.8716 210.595 99.9529 210.537 100.028 210.46L100.268 210.708C100.19 210.785 100.11 210.848 100.028 210.896C99.9476 210.944 99.8622 210.979 99.7716 211C99.6836 211.024 99.5836 211.036 99.4716 211.036ZM99.9436 209.94C99.9489 209.919 99.9516 209.897 99.9516 209.876C99.9542 209.855 99.9556 209.833 99.9556 209.812C99.9556 209.751 99.9449 209.691 99.9236 209.632C99.9022 209.573 99.8702 209.521 99.8276 209.476C99.7849 209.428 99.7316 209.391 99.6676 209.364C99.6062 209.335 99.5342 209.32 99.4516 209.32C99.3422 209.32 99.2489 209.345 99.1716 209.396C99.0942 209.444 99.0342 209.508 98.9916 209.588C98.9516 209.668 98.9276 209.755 98.9196 209.848H100.072L99.9436 209.94ZM101.572 211.036C101.393 211.036 101.238 210.992 101.108 210.904C100.977 210.813 100.874 210.691 100.8 210.536C100.728 210.379 100.692 210.204 100.692 210.012C100.692 209.801 100.73 209.62 100.808 209.468C100.888 209.316 100.994 209.199 101.128 209.116C101.261 209.033 101.409 208.992 101.572 208.992C101.689 208.992 101.796 209.016 101.892 209.064C101.99 209.112 102.073 209.179 102.14 209.264C102.206 209.349 102.253 209.449 102.28 209.564L102.18 209.596V208.212H102.568V211H102.18V210.432L102.296 210.436C102.261 210.564 102.209 210.673 102.14 210.764C102.07 210.852 101.986 210.92 101.888 210.968C101.792 211.013 101.686 211.036 101.572 211.036ZM101.652 210.676C101.766 210.676 101.865 210.648 101.948 210.592C102.033 210.536 102.098 210.459 102.144 210.36C102.192 210.259 102.216 210.143 102.216 210.012C102.216 209.881 102.192 209.767 102.144 209.668C102.098 209.567 102.033 209.489 101.948 209.436C101.865 209.38 101.766 209.352 101.652 209.352C101.54 209.352 101.441 209.38 101.356 209.436C101.27 209.489 101.204 209.567 101.156 209.668C101.11 209.767 101.088 209.881 101.088 210.012C101.088 210.143 101.11 210.259 101.156 210.36C101.204 210.459 101.27 210.536 101.356 210.592C101.441 210.648 101.54 210.676 101.652 210.676Z" fill="black"/>
<path d="M69.34 135.09C68.9933 135.09 68.6867 135.04 68.42 134.94C68.1533 134.833 67.9233 134.7 67.73 134.54C67.5433 134.373 67.3933 134.203 67.28 134.03L67.95 133.45C68.0767 133.677 68.2567 133.873 68.49 134.04C68.73 134.2 69.0167 134.28 69.35 134.28C69.6433 134.28 69.8733 134.22 70.04 134.1C70.2133 133.973 70.3 133.81 70.3 133.61C70.3 133.45 70.2467 133.323 70.14 133.23C70.0333 133.13 69.8933 133.05 69.72 132.99C69.5467 132.923 69.3567 132.867 69.15 132.82C68.9633 132.767 68.7733 132.707 68.58 132.64C68.3867 132.573 68.21 132.49 68.05 132.39C67.8967 132.283 67.77 132.15 67.67 131.99C67.5767 131.823 67.53 131.62 67.53 131.38C67.53 130.96 67.69 130.623 68.01 130.37C68.3367 130.11 68.7667 129.98 69.3 129.98C69.68 129.98 70.0267 130.06 70.34 130.22C70.6533 130.373 70.8967 130.603 71.07 130.91L70.46 131.38C70.3267 131.16 70.1533 131 69.94 130.9C69.7333 130.8 69.5067 130.75 69.26 130.75C69.0267 130.75 68.83 130.8 68.67 130.9C68.5167 130.993 68.44 131.123 68.44 131.29C68.44 131.41 68.4733 131.51 68.54 131.59C68.6133 131.663 68.7233 131.73 68.87 131.79C69.0233 131.843 69.21 131.897 69.43 131.95C69.6367 131.997 69.8467 132.053 70.06 132.12C70.2733 132.187 70.47 132.273 70.65 132.38C70.83 132.487 70.9767 132.63 71.09 132.81C71.2033 132.99 71.26 133.223 71.26 133.51C71.26 133.823 71.18 134.1 71.02 134.34C70.86 134.573 70.6367 134.757 70.35 134.89C70.0633 135.023 69.7267 135.09 69.34 135.09ZM75.607 135L75.527 134.09V131.9C75.527 131.553 75.427 131.287 75.227 131.1C75.027 130.913 74.737 130.82 74.357 130.82C74.0904 130.82 73.8337 130.873 73.587 130.98C73.347 131.087 73.117 131.26 72.897 131.5L72.287 130.87C72.5804 130.563 72.9037 130.34 73.257 130.2C73.617 130.053 74.007 129.98 74.427 129.98C75.087 129.98 75.597 130.15 75.957 130.49C76.3237 130.823 76.507 131.293 76.507 131.9V135H75.607ZM74.017 135.09C73.6504 135.09 73.327 135.023 73.047 134.89C72.767 134.757 72.5504 134.573 72.397 134.34C72.2437 134.1 72.167 133.823 72.167 133.51C72.167 133.237 72.2237 133.003 72.337 132.81C72.4504 132.61 72.597 132.457 72.777 132.35C72.9437 132.243 73.1337 132.17 73.347 132.13C73.567 132.083 73.8004 132.06 74.047 132.06H75.617V132.8H74.187C74.0537 132.8 73.9137 132.813 73.767 132.84C73.627 132.86 73.507 132.907 73.407 132.98C73.327 133.04 73.2637 133.117 73.217 133.21C73.1704 133.297 73.147 133.4 73.147 133.52C73.147 133.753 73.237 133.94 73.417 134.08C73.597 134.22 73.837 134.29 74.137 134.29C74.3904 134.29 74.6204 134.233 74.827 134.12C75.0404 134 75.2104 133.84 75.337 133.64C75.4637 133.433 75.527 133.2 75.527 132.94L75.877 133.4C75.817 133.747 75.7004 134.05 75.527 134.31C75.3537 134.563 75.137 134.757 74.877 134.89C74.6237 135.023 74.337 135.09 74.017 135.09ZM79.527 135.09C79.287 135.09 79.0636 135.043 78.857 134.95C78.657 134.857 78.497 134.707 78.377 134.5C78.2636 134.287 78.207 134.013 78.207 133.68V128.81L79.197 128.26V133.42C79.197 133.693 79.237 133.907 79.317 134.06C79.4036 134.207 79.5603 134.28 79.787 134.28C79.8536 134.28 79.9303 134.273 80.017 134.26C80.1103 134.24 80.2103 134.217 80.317 134.19V134.95C80.1836 134.997 80.0503 135.03 79.917 135.05C79.7836 135.077 79.6536 135.09 79.527 135.09ZM77.227 130.83V130.07H80.317V130.83H77.227ZM83.0223 135.09C82.6557 135.09 82.339 135.017 82.0723 134.87C81.8123 134.717 81.6123 134.5 81.4723 134.22C81.339 133.933 81.2723 133.587 81.2723 133.18V130.07H82.2523V132.87C82.2523 133.163 82.289 133.413 82.3623 133.62C82.4357 133.82 82.549 133.973 82.7023 134.08C82.8623 134.18 83.0623 134.23 83.3023 134.23C83.5823 134.23 83.809 134.16 83.9823 134.02C84.1623 133.88 84.2957 133.673 84.3823 133.4C84.469 133.12 84.5123 132.773 84.5123 132.36V130.07H85.4823V135H84.5123V133.94L84.7123 133.98C84.5657 134.347 84.3423 134.623 84.0423 134.81C83.7423 134.997 83.4023 135.09 83.0223 135.09ZM86.8597 135V130.07H87.8497V131.4L87.6397 131.44C87.673 131.147 87.773 130.893 87.9397 130.68C88.113 130.46 88.3164 130.29 88.5497 130.17C88.783 130.043 89.013 129.98 89.2397 129.98C89.3997 129.98 89.5497 130 89.6897 130.04C89.8364 130.073 89.983 130.133 90.1297 130.22L89.6497 131.1C89.5764 131.06 89.483 131.027 89.3697 131C89.2564 130.973 89.1497 130.96 89.0497 130.96C88.8964 130.96 88.7464 130.987 88.5997 131.04C88.453 131.093 88.3197 131.18 88.1997 131.3C88.0864 131.42 87.9997 131.577 87.9397 131.77C87.913 131.863 87.8897 131.987 87.8697 132.14C87.8564 132.287 87.8497 132.49 87.8497 132.75V135H86.8597ZM92.6871 135.09C92.2404 135.09 91.8538 134.98 91.5271 134.76C91.2004 134.533 90.9438 134.227 90.7571 133.84C90.5771 133.447 90.4871 133.01 90.4871 132.53C90.4871 132.003 90.5838 131.55 90.7771 131.17C90.9771 130.79 91.2438 130.497 91.5771 130.29C91.9104 130.083 92.2804 129.98 92.6871 129.98C92.9804 129.98 93.2471 130.04 93.4871 130.16C93.7338 130.28 93.9404 130.447 94.1071 130.66C94.2738 130.873 94.3904 131.123 94.4571 131.41L94.2071 131.49V128.03H95.1771V135H94.2071V133.58L94.4971 133.59C94.4104 133.91 94.2804 134.183 94.1071 134.41C93.9338 134.63 93.7238 134.8 93.4771 134.92C93.2371 135.033 92.9738 135.09 92.6871 135.09ZM92.8871 134.19C93.1738 134.19 93.4204 134.12 93.6271 133.98C93.8404 133.84 94.0038 133.647 94.1171 133.4C94.2371 133.147 94.2971 132.857 94.2971 132.53C94.2971 132.203 94.2371 131.917 94.1171 131.67C94.0038 131.417 93.8404 131.223 93.6271 131.09C93.4204 130.95 93.1738 130.88 92.8871 130.88C92.6071 130.88 92.3604 130.95 92.1471 131.09C91.9338 131.223 91.7671 131.417 91.6471 131.67C91.5338 131.917 91.4771 132.203 91.4771 132.53C91.4771 132.857 91.5338 133.147 91.6471 133.4C91.7671 133.647 91.9338 133.84 92.1471 133.98C92.3604 134.12 92.6071 134.19 92.8871 134.19ZM99.7672 135L99.6872 134.09V131.9C99.6872 131.553 99.5872 131.287 99.3872 131.1C99.1872 130.913 98.8972 130.82 98.5172 130.82C98.2505 130.82 97.9939 130.873 97.7472 130.98C97.5072 131.087 97.2772 131.26 97.0572 131.5L96.4472 130.87C96.7405 130.563 97.0639 130.34 97.4172 130.2C97.7772 130.053 98.1672 129.98 98.5872 129.98C99.2472 129.98 99.7572 130.15 100.117 130.49C100.484 130.823 100.667 131.293 100.667 131.9V135H99.7672ZM98.1772 135.09C97.8105 135.09 97.4872 135.023 97.2072 134.89C96.9272 134.757 96.7105 134.573 96.5572 134.34C96.4039 134.1 96.3272 133.823 96.3272 133.51C96.3272 133.237 96.3839 133.003 96.4972 132.81C96.6105 132.61 96.7572 132.457 96.9372 132.35C97.1039 132.243 97.2939 132.17 97.5072 132.13C97.7272 132.083 97.9605 132.06 98.2072 132.06H99.7772V132.8H98.3472C98.2139 132.8 98.0739 132.813 97.9272 132.84C97.7872 132.86 97.6672 132.907 97.5672 132.98C97.4872 133.04 97.4239 133.117 97.3772 133.21C97.3305 133.297 97.3072 133.4 97.3072 133.52C97.3072 133.753 97.3972 133.94 97.5772 134.08C97.7572 134.22 97.9972 134.29 98.2972 134.29C98.5505 134.29 98.7805 134.233 98.9872 134.12C99.2005 134 99.3705 133.84 99.4972 133.64C99.6239 133.433 99.6872 133.2 99.6872 132.94L100.037 133.4C99.9772 133.747 99.8605 134.05 99.6872 134.31C99.5139 134.563 99.2972 134.757 99.0372 134.89C98.7839 135.023 98.4972 135.09 98.1772 135.09ZM102.3 137.03L103.26 134.71L101.36 130.07H102.44L103.78 133.73L105.14 130.07H106.2L103.37 137.03H102.3Z" fill="black"/>
</svg>
