<svg width="212" height="240" viewBox="0 0 212 240" fill="none" xmlns="http://www.w3.org/2000/svg">
<path fill-rule="evenodd" clip-rule="evenodd" d="M9.98157 217.602C17.1834 226.018 28.4934 232.45 43.9115 236.899C56.4576 240.519 67.3113 240.97 76.4727 238.251C85.7413 235.725 91.7399 229.818 94.4686 220.53C96.097 214.988 95.9057 210.057 93.8948 205.739C91.9911 201.615 88.8312 197.859 84.4151 194.473C79.9991 191.086 74.8463 187.974 68.957 185.137C63.2187 182.344 57.4049 179.529 51.5155 176.692C45.9285 173.942 40.9145 171.195 36.4735 168.451C32.1837 165.751 28.9769 162.713 26.8531 159.337C24.7733 155.812 24.4376 151.653 25.846 146.859L21.1792 146C19.5508 151.543 19.8616 156.345 22.1117 160.407C24.3305 164.2 27.6219 167.679 31.9859 170.843L5.70576 184.436C5.29054 185.291 4.95089 186.168 4.68683 187.067L3.96065 189.539C0.879871 200.025 2.88684 209.379 9.98157 217.602ZM9.84439 187.093L35.2015 172.939C39.7607 175.723 44.7806 178.397 50.2612 180.961C55.8923 183.561 61.3502 186.192 66.635 188.855C71.9637 191.367 76.6534 194.102 80.704 197.058C84.7106 200.164 87.5807 203.511 89.3141 207.099C91.1988 210.73 91.4369 214.943 90.0286 219.737C87.652 227.826 82.2417 232.846 73.7979 234.797C65.5052 236.792 55.9171 236.219 45.0338 233.079C30.9761 229.022 20.6898 223.292 14.1748 215.887C7.61582 208.632 5.70067 200.36 8.42936 191.072L9.08952 188.825C9.26557 188.226 9.51719 187.648 9.84439 187.093Z" fill="black"/>
<circle cx="104.111" cy="104.111" r="100.401" transform="rotate(2.15807 104.111 104.111)" fill="white" stroke="black" stroke-width="3"/>
<circle cx="104.049" cy="104.261" r="89.9377" transform="rotate(2.15807 104.049 104.261)" stroke="black" stroke-width="3"/>
<g clip-path="url(#clip0_644_1019)">
<path d="M50.6009 265.51C31.0142 259.807 16.6464 251.562 7.49734 240.774C-1.51559 230.234 -4.06519 218.243 -0.151463 204.802C0.0721782 204.033 0.379685 202.977 0.771058 201.633C1.10652 200.481 1.53799 199.357 2.06548 198.261L37.8048 179.608L41.3341 182.51L7.32307 201.666C6.90741 202.378 6.58775 203.118 6.36411 203.887C6.08456 204.847 5.80501 205.807 5.52546 206.767C2.05902 218.673 4.49197 229.275 12.8243 238.575C21.1007 248.068 34.1682 255.414 52.0266 260.613C65.8525 264.639 78.0328 265.373 88.5676 262.816C99.2945 260.315 106.167 253.88 109.187 243.51C110.976 237.366 110.673 231.966 108.279 227.311C106.077 222.712 102.431 218.422 97.3411 214.44C92.1953 210.65 86.2376 207.145 79.4681 203.924C72.7545 200.512 65.821 197.139 58.6674 193.806C50.6096 190.002 43.3358 186.009 36.8458 181.828C30.6038 177.511 25.9576 172.721 22.9071 167.459C20.0487 162.252 19.6538 156.096 21.7225 148.991C23.5116 142.846 26.7494 138.165 31.4359 134.947C36.1783 131.537 42.5773 129.234 50.6327 128.038L52.339 132.909C45.2753 133.56 39.7441 135.387 35.7455 138.389C31.8028 141.199 29.1047 145.1 27.651 150.093C25.8619 156.237 26.2884 161.569 28.9305 166.088C31.6285 170.415 35.7023 174.309 41.1519 177.77C46.7936 181.288 53.1632 184.809 60.2609 188.333C67.7426 191.97 75.1282 195.578 82.4179 199.159C89.8996 202.795 96.4455 206.784 102.056 211.126C107.666 215.467 111.68 220.281 114.098 225.568C116.653 231.103 116.896 237.423 114.827 244.528C111.361 256.433 103.74 264.005 91.9657 267.243C80.3273 270.728 66.5391 270.15 50.6009 265.51ZM78.4118 151.749C68.8105 148.953 60.8244 144.545 54.4536 138.524C48.2748 132.559 44.0516 125.601 41.7838 117.65C39.572 109.507 39.7521 101.019 42.324 92.1857C44.9517 83.1605 49.3843 75.8064 55.6217 70.1235C61.9149 64.2485 69.3652 60.4811 77.9724 58.821C86.6355 56.969 95.6717 57.4128 105.081 60.1524C114.49 62.892 122.16 67.3124 128.091 73.4136C134.27 79.3788 138.341 86.5009 140.305 94.7799C142.517 102.923 142.281 111.603 139.597 120.82C137.025 129.653 132.621 136.912 126.384 142.594C120.394 148.141 113.192 151.773 104.777 153.489C96.6093 155.068 87.8211 154.488 78.4118 151.749ZM79.6333 146.48C92.307 150.17 103.671 149.417 113.724 144.22C123.97 139.08 130.798 130.652 134.208 118.939C137.787 106.649 136.662 95.4896 130.833 85.4604C125.196 75.487 116.137 68.6832 103.655 65.0491C90.9816 61.359 79.37 62.2484 68.8205 67.7173C58.519 73.0501 51.635 81.6694 48.1686 93.575C44.7581 105.289 45.8711 116.132 51.5078 126.105C57.3924 135.943 66.7676 142.734 79.6333 146.48ZM138.373 93.9048L135.263 89.5623L167.031 73.8155L168.738 78.6867L138.373 93.9048Z" fill="black"/>
</g>
<defs>
<clipPath id="clip0_644_1019">
<rect x="52.0674" y="3.25488" width="165.755" height="178.396" rx="81" transform="rotate(16.2334 52.0674 3.25488)" fill="white"/>
</clipPath>
</defs>
</svg>
