<svg width="190" height="308" viewBox="0 0 190 308" fill="none" xmlns="http://www.w3.org/2000/svg">
<circle cx="98.2549" cy="222.5" r="73" stroke="black" stroke-width="3"/>
<g clip-path="url(#clip0_644_1012)">
<path d="M88.7066 280.167C81.5215 279.704 76.1809 277.055 72.6849 272.22C69.4013 267.198 68.0878 259.597 68.7443 249.419L80.4075 68.5944L86.395 68.9805L74.7705 249.206C74.217 257.788 75.3148 264.072 78.064 268.057C80.8132 272.042 84.982 274.215 90.5703 274.576C92.9654 274.73 95.473 274.691 98.0934 274.46C100.727 274.028 103.572 273.41 106.63 272.605L106.283 277.994C103.025 278.786 99.9799 279.391 97.1471 279.81C94.3143 280.228 91.5008 280.347 88.7066 280.167Z" fill="black"/>
</g>
<circle cx="98.7549" cy="222" r="84.5" stroke="black" stroke-width="3"/>
<g clip-path="url(#clip1_644_1012)">
<path d="M91.5589 213.222C86.7636 213.011 83.1679 211.318 80.7719 208.142C78.515 204.84 77.5361 199.792 77.8352 192.999L83.1488 72.3155L87.1449 72.4915L81.8489 192.775C81.5967 198.503 82.414 202.676 84.3006 205.295C86.1872 207.914 88.9954 209.305 92.7251 209.469C94.3236 209.54 95.9945 209.48 97.7379 209.29C99.4871 208.966 101.375 208.516 103.403 207.938L103.244 211.534C101.084 212.106 99.0624 212.551 97.1799 212.869C95.2975 213.186 93.4238 213.304 91.5589 213.222Z" fill="black"/>
</g>
<defs>
<clipPath id="clip0_644_1012">
<rect x="37.8799" y="135.052" width="149.136" height="135.502" rx="67.7512" transform="rotate(16.2334 37.8799 135.052)" fill="white"/>
</clipPath>
<clipPath id="clip1_644_1012">
<rect width="156" height="135.075" fill="white" transform="translate(30.7549 3.18359) rotate(-1.16938)"/>
</clipPath>
</defs>
</svg>
