<svg width="333" height="369" viewBox="0 0 333 369" fill="none" xmlns="http://www.w3.org/2000/svg">
<rect x="118.725" y="352.156" width="6.45099" height="13.8192" rx="2.5" transform="rotate(10.1422 118.725 352.156)" fill="white" stroke="black"/>
<rect x="159.185" y="348.452" width="6.45099" height="13.8192" rx="2.5" transform="rotate(-30.5862 159.185 348.452)" fill="white" stroke="black"/>
<rect x="170.017" y="341.16" width="6.45099" height="13.8192" rx="2.5" transform="rotate(-36.0284 170.017 341.16)" fill="white" stroke="black"/>
<rect x="180.509" y="332.032" width="6.45099" height="13.8192" rx="2.5" transform="rotate(-53.9397 180.509 332.032)" fill="white" stroke="black"/>
<rect x="188.202" y="321.939" width="6.45099" height="13.8192" rx="2.5" transform="rotate(-64.0349 188.202 321.939)" fill="white" stroke="black"/>
<path d="M90.5262 340.444L119.005 304.245L124.281 308.77L94.3212 343.699L90.5262 340.444Z" fill="white" stroke="black"/>
<path d="M66.813 279.088L112.766 282.203L112.003 289.111L66.264 284.058L66.813 279.088Z" fill="white" stroke="black"/>
<path d="M109.919 227.405L126.122 268.14L119.558 270.419L105.195 229.045L109.919 227.405Z" fill="white" stroke="black"/>
<path d="M173.914 241.628L148.804 272.446L143.64 267.8L170.195 238.282L173.914 241.628Z" fill="white" stroke="black"/>
<path d="M195.932 301.196L154.561 294.458L155.995 287.66L196.964 296.302L195.932 301.196Z" fill="white" stroke="black"/>
<rect x="193.368" y="310.416" width="6.45099" height="13.8192" rx="2.5" transform="rotate(-70.8431 193.368 310.416)" fill="white" stroke="black"/>
<rect x="195.932" y="297.838" width="6.45099" height="13.8192" rx="2.5" transform="rotate(-84.3016 195.932 297.838)" fill="white" stroke="black"/>
<rect x="197.426" y="285.564" width="6.45099" height="13.8192" rx="2.5" transform="rotate(-96.1615 197.426 285.564)" fill="white" stroke="black"/>
<rect x="194.982" y="272.195" width="6.45099" height="13.8192" rx="2.5" transform="rotate(-113.853 194.982 272.195)" fill="white" stroke="black"/>
<rect x="188.09" y="256.999" width="6.45099" height="13.8192" rx="2.5" transform="rotate(-124.152 188.09 256.999)" fill="white" stroke="black"/>
<rect x="181.263" y="247.569" width="6.45099" height="13.8192" rx="2.5" transform="rotate(-133.964 181.263 247.569)" fill="white" stroke="black"/>
<rect x="171.408" y="237.928" width="6.45099" height="13.8192" rx="2.5" transform="rotate(-145.743 171.408 237.928)" fill="white" stroke="black"/>
<rect x="160.88" y="231.34" width="6.45099" height="13.8192" rx="2.5" transform="rotate(-160.865 160.88 231.34)" fill="white" stroke="black"/>
<rect x="147.533" y="227.19" width="6.45099" height="13.8192" rx="2.5" transform="rotate(-169.191 147.533 227.19)" fill="white" stroke="black"/>
<rect x="133.691" y="225.551" width="6.45099" height="13.8192" rx="2.5" transform="rotate(-178.023 133.691 225.551)" fill="white" stroke="black"/>
<rect x="120.283" y="226.198" width="6.45099" height="13.8192" rx="2.5" transform="rotate(167.999 120.283 226.198)" fill="white" stroke="black"/>
<rect x="109.279" y="229.352" width="6.95099" height="14.3192" rx="2.75" transform="rotate(152.571 109.279 229.352)" fill="white" stroke="black" stroke-width="0.5"/>
<rect x="98.0057" y="235.495" width="6.45099" height="13.8192" rx="2.5" transform="rotate(146.27 98.0057 235.495)" fill="white" stroke="black"/>
<rect x="88.1309" y="242.301" width="6.45099" height="13.8192" rx="2.5" transform="rotate(134.115 88.1309 242.301)" fill="white" stroke="black"/>
<rect x="80.1186" y="251.821" width="6.45099" height="13.8192" rx="2.5" transform="rotate(125.694 80.1186 251.821)" fill="white" stroke="black"/>
<rect x="74.4801" y="261.069" width="6.45099" height="13.8192" rx="2.5" transform="rotate(108.574 74.4801 261.069)" fill="white" stroke="black"/>
<rect x="70.3264" y="273.646" width="6.45099" height="13.8192" rx="2.5" transform="rotate(101.204 70.3264 273.646)" fill="white" stroke="black"/>
<rect x="132.817" y="353.954" width="6.45099" height="13.8192" rx="2.5" transform="rotate(-5.45527 132.817 353.954)" fill="white" stroke="black"/>
<rect x="145.169" y="352.395" width="6.45099" height="13.8192" rx="2.5" transform="rotate(-8.79128 145.169 352.395)" fill="white" stroke="black"/>
<rect x="68.3234" y="284.705" width="6.45099" height="13.8192" rx="2.5" transform="rotate(89.4206 68.3234 284.705)" fill="white" stroke="black"/>
<rect x="68.6032" y="297.616" width="6.45099" height="13.8192" rx="2.5" transform="rotate(77.5273 68.6032 297.616)" fill="white" stroke="black"/>
<rect x="70.7555" y="309.247" width="6.45099" height="13.8192" rx="2.5" transform="rotate(63.5551 70.7555 309.247)" fill="white" stroke="black"/>
<rect x="76.9331" y="320.676" width="6.45099" height="13.8192" rx="2.5" transform="rotate(56.0307 76.9331 320.676)" fill="white" stroke="black"/>
<rect x="82.7403" y="331.714" width="6.45099" height="13.8192" rx="2.5" transform="rotate(46.5808 82.7403 331.714)" fill="white" stroke="black"/>
<rect x="104.498" y="347.052" width="6.45099" height="13.8192" rx="2.5" transform="rotate(20.6414 104.498 347.052)" fill="white" stroke="black"/>
<rect x="92.8468" y="339.371" width="6.45099" height="13.8192" rx="2.5" transform="rotate(35.5338 92.8468 339.371)" fill="white" stroke="black"/>
<circle cx="132.875" cy="289.48" r="65.5" transform="rotate(2.15807 132.875 289.48)" stroke="black" stroke-width="5"/>
<circle cx="133.265" cy="288.074" r="20.7316" transform="rotate(2.15807 133.265 288.074)" stroke="black" stroke-width="5"/>
<circle cx="132.699" cy="289.496" r="65.5" transform="rotate(2.15807 132.699 289.496)" stroke="white" stroke-width="3"/>
<circle cx="133.21" cy="288.079" r="20.7316" transform="rotate(2.15807 133.21 288.079)" stroke="white" stroke-width="3"/>
<path d="M141.479 288.403C141.317 292.695 137.823 296.02 133.709 295.865C129.594 295.71 126.36 292.132 126.522 287.839C126.684 283.546 130.177 280.221 134.292 280.376C138.407 280.532 141.64 284.11 141.479 288.403Z" stroke="black"/>
<rect x="225.203" y="265.33" width="4.75232" height="9.1008" rx="1.5" transform="rotate(23.2104 225.203 265.33)" fill="white" stroke="black"/>
<rect x="219.087" y="260.373" width="4.75232" height="9.1008" rx="1.5" transform="rotate(36.6067 219.087 260.373)" fill="white" stroke="black"/>
<rect x="213.081" y="255.786" width="4.75232" height="9.1008" rx="1.5" transform="rotate(42.3722 213.081 255.786)" fill="white" stroke="black"/>
<rect x="207.433" y="249.592" width="4.75232" height="9.1008" rx="1.5" transform="rotate(49.8308 207.433 249.592)" fill="white" stroke="black"/>
<rect x="203.059" y="242.583" width="4.75232" height="9.1008" rx="1.5" transform="rotate(55.2428 203.059 242.583)" fill="white" stroke="black"/>
<rect x="197.953" y="233.905" width="4.75232" height="9.1008" rx="1.5" transform="rotate(66.195 197.953 233.905)" fill="white" stroke="black"/>
<rect x="194.252" y="225.598" width="4.75232" height="9.1008" rx="1.5" transform="rotate(70.7136 194.252 225.598)" fill="white" stroke="black"/>
<rect x="192.775" y="215.965" width="4.75232" height="9.1008" rx="1.5" transform="rotate(80.5363 192.775 215.965)" fill="white" stroke="black"/>
<rect x="193.005" y="207.043" width="4.75232" height="9.1008" rx="1.5" transform="rotate(90.9795 193.005 207.043)" fill="white" stroke="black"/>
<rect x="193.252" y="198.627" width="4.75232" height="9.1008" rx="1.5" transform="rotate(98.2054 193.252 198.627)" fill="white" stroke="black"/>
<rect x="196.36" y="188.037" width="4.75232" height="9.1008" rx="1.5" transform="rotate(104.006 196.36 188.037)" fill="white" stroke="black"/>
<rect x="200.69" y="178.64" width="4.75232" height="9.1008" rx="1.5" transform="rotate(117.058 200.69 178.64)" fill="white" stroke="black"/>
<rect x="204.901" y="170.893" width="4.75232" height="9.1008" rx="1.5" transform="rotate(119.992 204.901 170.893)" fill="white" stroke="black"/>
<rect x="210.8" y="162.722" width="4.75232" height="9.1008" rx="1.5" transform="rotate(129.184 210.8 162.722)" fill="white" stroke="black"/>
<rect x="216.32" y="158.315" width="4.75232" height="9.1008" rx="1.5" transform="rotate(143.206 216.32 158.315)" fill="white" stroke="black"/>
<rect x="223.576" y="153.263" width="4.75232" height="9.1008" rx="1.5" transform="rotate(150.926 223.576 153.263)" fill="white" stroke="black"/>
<rect x="230.645" y="149.026" width="4.75232" height="9.1008" rx="1.5" transform="rotate(161.178 230.645 149.026)" fill="white" stroke="black"/>
<rect x="239.206" y="145.727" width="4.75232" height="9.1008" rx="1.5" transform="rotate(158.239 239.206 145.727)" fill="white" stroke="black"/>
<rect x="246.695" y="144.353" width="4.75232" height="9.1008" rx="1.5" transform="rotate(172.171 246.695 144.353)" fill="white" stroke="black"/>
<rect x="254.795" y="143.298" width="4.75232" height="9.1008" rx="1.5" transform="rotate(176.583 254.795 143.298)" fill="white" stroke="black"/>
<rect x="263.983" y="143.039" width="4.75232" height="9.1008" rx="1.5" transform="rotate(-174.778 263.983 143.039)" fill="white" stroke="black"/>
<rect x="272.561" y="144.937" width="4.75232" height="9.1008" rx="1.5" transform="rotate(-166.828 272.561 144.937)" fill="white" stroke="black"/>
<rect x="232.555" y="268.422" width="4.75232" height="9.1008" rx="1.5" transform="rotate(15.8935 232.555 268.422)" fill="white" stroke="black"/>
<rect x="241.869" y="271.337" width="4.75232" height="9.1008" rx="1.5" transform="rotate(13.6003 241.869 271.337)" fill="white" stroke="black"/>
<rect x="250.981" y="273.515" width="4.75232" height="9.1008" rx="1.5" transform="rotate(5.10154 250.981 273.515)" fill="white" stroke="black"/>
<rect x="258.448" y="273.675" width="4.75232" height="9.1008" rx="1.5" transform="rotate(-5.83523 258.448 273.675)" fill="white" stroke="black"/>
<rect x="268.936" y="273.144" width="4.75232" height="9.1008" rx="1.5" transform="rotate(-13.8945 268.936 273.144)" fill="white" stroke="black"/>
<rect x="278.981" y="270.03" width="4.75232" height="9.1008" rx="1.5" transform="rotate(-23.3277 278.981 270.03)" fill="white" stroke="black"/>
<rect x="288.516" y="265.342" width="4.75232" height="9.1008" rx="1.5" transform="rotate(-25.1575 288.516 265.342)" fill="white" stroke="black"/>
<rect x="295.655" y="261.054" width="4.75232" height="9.1008" rx="1.5" transform="rotate(-34.4054 295.655 261.054)" fill="white" stroke="black"/>
<rect x="303.354" y="254.734" width="4.75232" height="9.1008" rx="1.5" transform="rotate(-42.7166 303.354 254.734)" fill="white" stroke="black"/>
<rect x="309.401" y="248.735" width="4.75232" height="9.1008" rx="1.5" transform="rotate(-55.7166 309.401 248.735)" fill="white" stroke="black"/>
<rect x="314.642" y="241.42" width="4.75232" height="9.1008" rx="1.5" transform="rotate(-57.1219 314.642 241.42)" fill="white" stroke="black"/>
<rect x="318.624" y="232.959" width="4.75232" height="9.1008" rx="1.5" transform="rotate(-72.5636 318.624 232.959)" fill="white" stroke="black"/>
<rect x="320.691" y="225.294" width="4.75232" height="9.1008" rx="1.5" transform="rotate(-77.8301 320.691 225.294)" fill="white" stroke="black"/>
<rect x="322.702" y="217.364" width="4.75232" height="9.1008" rx="1.5" transform="rotate(-83.1285 322.702 217.364)" fill="white" stroke="black"/>
<rect x="322.829" y="209.623" width="4.75232" height="9.1008" rx="1.5" transform="rotate(-91.4348 322.829 209.623)" fill="white" stroke="black"/>
<rect x="323.171" y="202.002" width="4.75232" height="9.1008" rx="1.5" transform="rotate(-102.82 323.171 202.002)" fill="white" stroke="black"/>
<rect x="321.721" y="193.049" width="4.75232" height="9.1008" rx="1.5" transform="rotate(-104.657 321.721 193.049)" fill="white" stroke="black"/>
<rect x="318.788" y="184.046" width="4.75232" height="9.1008" rx="1.5" transform="rotate(-119.562 318.788 184.046)" fill="white" stroke="black"/>
<rect x="315.271" y="175.15" width="4.75232" height="9.1008" rx="1.5" transform="rotate(-123.273 315.271 175.15)" fill="white" stroke="black"/>
<rect x="309.577" y="167.495" width="4.75232" height="9.1008" rx="1.5" transform="rotate(-127.255 309.577 167.495)" fill="white" stroke="black"/>
<rect x="304.361" y="161.97" width="4.75232" height="9.1008" rx="1.5" transform="rotate(-137.063 304.361 161.97)" fill="white" stroke="black"/>
<rect x="297.048" y="156.443" width="4.75232" height="9.1008" rx="1.5" transform="rotate(-147.302 297.048 156.443)" fill="white" stroke="black"/>
<rect x="290.569" y="151.59" width="4.75232" height="9.1008" rx="1.5" transform="rotate(-157.578 290.569 151.59)" fill="white" stroke="black"/>
<rect x="281.006" y="147.552" width="4.75232" height="9.1008" rx="1.5" transform="rotate(-157.578 281.006 147.552)" fill="white" stroke="black"/>
<circle cx="258.056" cy="207.594" r="65.5" transform="rotate(2.15807 258.056 207.594)" stroke="black" stroke-width="5"/>
<circle cx="257.88" cy="207.609" r="65.5" transform="rotate(2.15807 257.88 207.609)" stroke="white" stroke-width="3"/>
<rect x="80.2026" y="213.505" width="4.75232" height="9.1008" rx="2.37616" transform="rotate(14.4075 80.2026 213.505)" fill="white" stroke="black"/>
<rect x="91.7118" y="215.773" width="4.75232" height="9.1008" rx="2.37616" transform="rotate(2.52767 91.7118 215.773)" fill="white" stroke="black"/>
<rect x="102.541" y="216.45" width="4.75232" height="9.1008" rx="2.37616" transform="rotate(-0.2718 102.541 216.45)" fill="white" stroke="black"/>
<rect x="113.266" y="216.384" width="4.75232" height="9.1008" rx="2.37616" transform="rotate(-1.2797 113.266 216.384)" fill="white" stroke="black"/>
<rect x="123.31" y="215.194" width="4.75232" height="9.1008" rx="2.37616" transform="rotate(-15.7343 123.31 215.194)" fill="white" stroke="black"/>
<rect x="133.097" y="213.1" width="4.75232" height="9.1008" rx="2.37616" transform="rotate(-21.5822 133.097 213.1)" fill="white" stroke="black"/>
<rect x="143.189" y="209.599" width="4.75232" height="9.1008" rx="2.37616" transform="rotate(-27.0562 143.189 209.599)" fill="white" stroke="black"/>
<rect x="152.238" y="206.086" width="4.75232" height="9.1008" rx="2.37616" transform="rotate(-32.8127 152.238 206.086)" fill="white" stroke="black"/>
<rect x="160.277" y="200.602" width="4.75232" height="9.1008" rx="2.37616" transform="rotate(-39.2803 160.277 200.602)" fill="white" stroke="black"/>
<rect x="169.44" y="193.799" width="4.75232" height="9.1008" rx="2.37616" transform="rotate(-42.5261 169.44 193.799)" fill="white" stroke="black"/>
<rect x="178.651" y="185.63" width="4.75232" height="9.1008" rx="2.37616" transform="rotate(-42.2935 178.651 185.63)" fill="white" stroke="black"/>
<rect x="185.562" y="177.687" width="4.75232" height="9.1008" rx="2.37616" transform="rotate(-41.8931 185.562 177.687)" fill="white" stroke="black"/>
<rect x="192.239" y="170.087" width="4.75232" height="9.1008" rx="2.37616" transform="rotate(-57.8529 192.239 170.087)" fill="white" stroke="black"/>
<rect x="197.518" y="161.072" width="4.75232" height="9.1008" rx="2.37616" transform="rotate(-63.9134 197.518 161.072)" fill="white" stroke="black"/>
<rect x="202.67" y="149.895" width="4.75232" height="9.1008" rx="2.37616" transform="rotate(-76.8047 202.67 149.895)" fill="white" stroke="black"/>
<rect x="205.444" y="139.044" width="4.75232" height="9.1008" rx="2.37616" transform="rotate(-76.8047 205.444 139.044)" fill="white" stroke="black"/>
<rect x="208.639" y="127.649" width="4.75232" height="9.1008" rx="2.37616" transform="rotate(-83.9071 208.639 127.649)" fill="white" stroke="black"/>
<rect x="209.785" y="116.881" width="4.75232" height="9.1008" rx="2.37616" transform="rotate(-93.756 209.785 116.881)" fill="white" stroke="black"/>
<rect x="209.153" y="105.335" width="4.75232" height="9.1008" rx="2.37616" transform="rotate(-102.686 209.153 105.335)" fill="white" stroke="black"/>
<rect x="208.054" y="95.6229" width="4.75232" height="9.1008" rx="2.37616" transform="rotate(-111.723 208.054 95.6229)" fill="white" stroke="black"/>
<rect x="205.251" y="84.2491" width="4.75232" height="9.1008" rx="2.37616" transform="rotate(-111.723 205.251 84.2491)" fill="white" stroke="black"/>
<rect x="201.631" y="73.5461" width="4.75232" height="9.1008" rx="2.37616" transform="rotate(-117.108 201.631 73.5461)" fill="white" stroke="black"/>
<rect x="190.813" y="53.4722" width="4.75232" height="9.1008" rx="2.37616" transform="rotate(-131.479 190.813 53.4722)" fill="white" stroke="black"/>
<rect x="183.696" y="45.1104" width="4.75232" height="9.1008" rx="2.37616" transform="rotate(-131.479 183.696 45.1104)" fill="white" stroke="black"/>
<rect x="176.89" y="38.1803" width="4.75232" height="9.1008" rx="2.37616" transform="rotate(-133.781 176.89 38.1803)" fill="white" stroke="black"/>
<rect x="168.905" y="30.4885" width="4.75232" height="9.1008" rx="2.37616" transform="rotate(-146.007 168.905 30.4885)" fill="white" stroke="black"/>
<rect x="159.777" y="24.7379" width="4.75232" height="9.1008" rx="2.37616" transform="rotate(-149.368 159.777 24.7379)" fill="white" stroke="black"/>
<rect x="150.504" y="19.7244" width="4.75232" height="9.1008" rx="2.37616" transform="rotate(-159.291 150.504 19.7244)" fill="white" stroke="black"/>
<rect x="140.933" y="15.6543" width="4.75232" height="9.1008" rx="2.37616" transform="rotate(-159.291 140.933 15.6543)" fill="white" stroke="black"/>
<rect x="129.55" y="12.5416" width="4.75232" height="9.1008" rx="2.37616" transform="rotate(-166.299 129.55 12.5416)" fill="white" stroke="black"/>
<rect x="118.236" y="11.0877" width="4.75232" height="9.1008" rx="2.37616" transform="rotate(-172.34 118.236 11.0877)" fill="white" stroke="black"/>
<rect x="107.997" y="9.6136" width="4.75232" height="9.1008" rx="2.37616" transform="rotate(176.752 107.997 9.6136)" fill="white" stroke="black"/>
<rect x="96.9463" y="10.2257" width="4.75232" height="9.1008" rx="2.37616" transform="rotate(172.557 96.9463 10.2257)" fill="white" stroke="black"/>
<rect x="86.6536" y="11.1252" width="4.75232" height="9.1008" rx="2.37616" transform="rotate(167.498 86.6536 11.1252)" fill="white" stroke="black"/>
<rect x="76.853" y="14.4159" width="4.75232" height="9.1008" rx="2.37616" transform="rotate(165.859 76.853 14.4159)" fill="white" stroke="black"/>
<rect x="65.673" y="17.8598" width="4.75232" height="9.1008" rx="2.37616" transform="rotate(159.701 65.673 17.8598)" fill="white" stroke="black"/>
<rect x="56.6666" y="20.9523" width="4.75232" height="9.1008" rx="2.37616" transform="rotate(144.828 56.6666 20.9523)" fill="white" stroke="black"/>
<rect x="47.6889" y="26.9082" width="4.75232" height="9.1008" rx="2.37616" transform="rotate(144.275 47.6889 26.9082)" fill="white" stroke="black"/>
<rect x="37.9059" y="34.4691" width="4.75232" height="9.1008" rx="2.37616" transform="rotate(138.974 37.9059 34.4691)" fill="white" stroke="black"/>
<rect x="28.6687" y="43.702" width="5.25232" height="9.6008" rx="2.62616" transform="rotate(131.218 28.6687 43.702)" fill="white" stroke="black" stroke-width="0.5"/>
<rect x="197.585" y="65.3787" width="4.75232" height="9.1008" rx="2.37616" transform="rotate(-128.721 197.585 65.3787)" fill="white" stroke="black"/>
<rect x="70.0093" y="210.365" width="4.75232" height="9.1008" rx="2.37616" transform="rotate(17.7505 70.0093 210.365)" fill="white" stroke="black"/>
<rect x="51.1023" y="200.518" width="4.75232" height="9.1008" rx="2.37616" transform="rotate(37.6424 51.1023 200.518)" fill="white" stroke="black"/>
<rect x="40.8078" y="194.474" width="4.75232" height="9.1008" rx="2.37616" transform="rotate(34.3212 40.8078 194.474)" fill="white" stroke="black"/>
<rect x="33.5719" y="187.702" width="4.75232" height="9.1008" rx="2.37616" transform="rotate(44.6377 33.5719 187.702)" fill="white" stroke="black"/>
<rect x="25.9417" y="179.17" width="5.25232" height="9.6008" rx="2.62616" transform="rotate(44.6377 25.9417 179.17)" fill="white" stroke="black" stroke-width="0.5"/>
<rect x="59.9949" y="205.371" width="4.75232" height="9.1008" rx="2.37616" transform="rotate(26.163 59.9949 205.371)" fill="white" stroke="black"/>
<path d="M105.825 214.316L103.361 145.316H112.343V214.316H105.825Z" fill="white" stroke="black"/>
<path d="M204.846 142.866L135.603 125.002L138.145 116.387L206.691 136.616L204.846 142.866Z" fill="white" stroke="black"/>
<path d="M164.028 27.1766L127.09 89.8408L119.51 85.0195L158.53 23.679L164.028 27.1766Z" fill="white" stroke="black"/>
<path d="M45.9913 30.7584L89.5418 86.2092L82.2882 91.5069L40.7284 34.6022L45.9913 30.7584Z" fill="white" stroke="black"/>
<circle cx="105.566" cy="113.306" r="101.731" transform="rotate(2.15807 105.566 113.306)" stroke="black" stroke-width="7"/>
<rect x="88.3724" y="143.437" width="6.45099" height="13.8192" rx="2.5" transform="rotate(16.427 88.3724 143.437)" fill="white" stroke="black"/>
<rect x="79.5288" y="135.523" width="6.45099" height="13.8192" rx="2.5" transform="rotate(46.2277 79.5288 135.523)" fill="white" stroke="black"/>
<rect x="73.4695" y="123.566" width="6.45099" height="13.8192" rx="2.5" transform="rotate(73.3859 73.4695 123.566)" fill="white" stroke="black"/>
<rect x="76.759" y="96.3927" width="6.45099" height="13.8192" rx="2.5" transform="rotate(115.321 76.759 96.3927)" fill="white" stroke="black"/>
<rect x="72.0253" y="111.401" width="6.45099" height="13.8192" rx="2.5" transform="rotate(93.9545 72.0253 111.401)" fill="white" stroke="black"/>
<rect x="103.77" y="146.854" width="6.45099" height="13.8192" rx="2.5" transform="rotate(-2.98128 103.77 146.854)" fill="white" stroke="black"/>
<rect x="116.61" y="145.568" width="6.45099" height="13.8192" rx="2.5" transform="rotate(-23.8172 116.61 145.568)" fill="white" stroke="black"/>
<rect x="128.012" y="138.681" width="6.45099" height="13.8192" rx="2.5" transform="rotate(-46.4861 128.012 138.681)" fill="white" stroke="black"/>
<rect x="135.271" y="129.937" width="6.45099" height="13.8192" rx="2.5" transform="rotate(-74.921 135.271 129.937)" fill="white" stroke="black"/>
<rect x="139.123" y="114.704" width="6.45099" height="13.8192" rx="2.5" transform="rotate(-91.1414 139.123 114.704)" fill="white" stroke="black"/>
<rect x="137.427" y="102.533" width="6.45099" height="13.8192" rx="2.5" transform="rotate(-115.009 137.427 102.533)" fill="white" stroke="black"/>
<rect x="132.385" y="92.4378" width="6.45099" height="13.8192" rx="2.5" transform="rotate(-133.853 132.385 92.4378)" fill="white" stroke="black"/>
<rect x="121.821" y="83.2615" width="6.45099" height="13.8192" rx="2.5" transform="rotate(-155.384 121.821 83.2615)" fill="white" stroke="black"/>
<rect x="108.302" y="79.121" width="6.45099" height="13.8192" rx="2.5" transform="rotate(-178.025 108.302 79.121)" fill="white" stroke="black"/>
<rect x="96.7382" y="80.1599" width="6.45099" height="13.8192" rx="2.5" transform="rotate(154.131 96.7382 80.1599)" fill="white" stroke="black"/>
<rect x="83.5576" y="86.8134" width="6.45099" height="13.8192" rx="2.5" transform="rotate(135.797 83.5576 86.8134)" fill="white" stroke="black"/>
<circle cx="105.387" cy="113.272" r="33.2277" transform="rotate(2.15807 105.387 113.272)" stroke="black" stroke-width="5"/>
<circle cx="105.299" cy="113.28" r="33.2277" transform="rotate(2.15807 105.299 113.28)" stroke="white" stroke-width="3"/>
<ellipse cx="105.41" cy="113.33" rx="101.65" ry="101.731" transform="rotate(2.15807 105.41 113.33)" stroke="white" stroke-width="5"/>
</svg>
