<svg width="209" height="206" viewBox="0 0 209 206" fill="none" xmlns="http://www.w3.org/2000/svg">
<path d="M94.8617 201.785C101.003 204.343 107.819 205.737 115.309 205.966C123.277 206.209 130.169 205.156 135.985 202.805C141.805 200.296 146.383 196.723 149.718 192.084C153.057 187.288 154.828 181.653 155.029 175.18C155.216 169.181 154.173 164.251 151.901 160.389L145.245 159C148.951 162.906 150.694 168.411 150.473 175.515C150.203 184.198 146.806 190.81 140.284 195.351C133.762 199.893 125.481 202.01 115.442 201.703C105.083 201.387 96.2324 198.746 88.8899 193.781C81.5522 188.658 76.572 182.106 73.9492 174.125L70.0508 176.376C72.1049 182.128 75.217 187.2 79.3871 191.594C83.7214 195.835 88.8796 199.232 94.8617 201.785Z" fill="black"/>
<circle cx="110.41" cy="89.3584" r="86.1744" transform="rotate(2.15807 110.41 89.3584)" fill="white" stroke="black" stroke-width="3"/>
<circle cx="111.682" cy="89.6411" r="76.8034" transform="rotate(2.15807 111.682 89.6411)" stroke="black" stroke-width="3"/>
<g clip-path="url(#clip0_644_993)">
<path d="M104.707 215.178C95.3115 214.888 86.7619 213.123 79.0581 209.884C71.5542 206.652 65.0837 202.35 59.6467 196.98C54.4157 191.416 50.5119 184.992 47.9352 177.71L52.8255 174.859C56.1154 184.965 62.3626 193.262 71.567 199.749C80.7775 206.036 91.8797 209.379 104.874 209.78C117.468 210.169 127.855 207.488 136.036 201.737C144.218 195.987 148.478 187.614 148.817 176.619C149.094 167.624 146.908 160.653 142.258 155.707C137.809 150.768 131.922 146.984 124.6 144.357C117.484 141.537 109.955 139.103 102.014 137.058C96.0603 135.473 90.4123 133.698 85.0704 131.733C79.7285 129.767 74.9986 127.42 70.8807 124.692C66.969 121.77 63.8753 118.273 61.5998 114.201C59.5303 109.935 58.5912 104.703 58.7823 98.5064C59.1029 88.1113 63.4631 79.7418 71.8626 73.3977C80.4683 66.8599 91.368 63.7945 104.562 64.2015C114.957 64.5221 124.378 67.2139 132.826 72.2767C141.274 77.3396 147.643 84.9396 151.932 95.0766L147.351 97.6366C143.043 88.0993 137.156 81.1144 129.689 76.6821C122.428 72.056 114 69.595 104.404 69.299C93.0099 68.9476 83.525 71.5564 75.9497 77.1255C68.5804 82.5008 64.7602 89.5864 64.4888 98.3822C64.2792 105.179 65.8088 110.729 69.0777 115.032C72.5527 119.141 77.2517 122.487 83.1749 125.071C89.3041 127.461 96.1392 129.673 103.68 131.706C110.428 133.515 116.869 135.515 123.004 137.705C129.146 139.695 134.569 142.264 139.274 145.41C144.18 148.563 147.958 152.581 150.608 157.465C153.459 162.356 154.767 168.599 154.533 176.195C154.28 184.391 152.059 191.526 147.87 197.6C143.686 203.474 137.944 207.999 130.643 211.175C123.348 214.152 114.702 215.486 104.707 215.178Z" fill="black"/>
<line x1="142.659" y1="156.028" x2="84.0734" y2="207.402" stroke="black" stroke-width="0.5"/>
</g>
<defs>
<clipPath id="clip0_644_993">
<rect x="3.3457" y="45" width="205.271" height="108.503" rx="54.2514" transform="rotate(1.76676 3.3457 45)" fill="white"/>
</clipPath>
</defs>
</svg>
