<svg width="141" height="147" viewBox="0 0 141 147" fill="none" xmlns="http://www.w3.org/2000/svg">
<rect x="0.5" y="0.5" width="140" height="146" stroke="black"/>
<path d="M30.5388 140.831L36.8581 128.75L37.3689 129.428H29.2144V127.716H38.6933V129.108L32.6011 140.831H30.5388Z" fill="black"/>
<path d="M72.1832 127.716L68.8532 132.947L68.6262 132.664C68.8911 132.501 69.1686 132.382 69.4587 132.307C69.7488 132.219 70.0326 132.175 70.3101 132.175C71.1426 132.175 71.893 132.369 72.5616 132.758C73.2301 133.147 73.7535 133.674 74.1319 134.339C74.5229 134.991 74.7184 135.725 74.7184 136.54C74.7184 137.394 74.504 138.159 74.0751 138.836C73.6589 139.501 73.0976 140.028 72.3913 140.417C71.6975 140.806 70.9218 141 70.0641 141C69.219 141 68.437 140.806 67.718 140.417C67.0117 140.028 66.4441 139.501 66.0152 138.836C65.599 138.159 65.3909 137.4 65.3909 136.559C65.3909 136.12 65.4539 135.7 65.5801 135.299C65.7188 134.885 65.8954 134.496 66.1098 134.132L70.0641 127.716H72.1832ZM70.0641 133.793C69.5596 133.793 69.0992 133.912 68.683 134.151C68.2667 134.377 67.9262 134.696 67.6613 135.11C67.409 135.524 67.2829 136.001 67.2829 136.54C67.2829 137.055 67.409 137.519 67.6613 137.933C67.9135 138.347 68.2478 138.673 68.664 138.911C69.0929 139.137 69.5596 139.25 70.0641 139.25C70.5813 139.25 71.048 139.137 71.4642 138.911C71.8804 138.673 72.2147 138.347 72.4669 137.933C72.7192 137.519 72.8454 137.049 72.8454 136.522C72.8454 135.995 72.7192 135.524 72.4669 135.11C72.2273 134.696 71.8993 134.377 71.4831 134.151C71.0669 133.912 70.5939 133.793 70.0641 133.793Z" fill="black"/>
<path d="M105.258 141C104.464 141 103.732 140.831 103.063 140.492C102.408 140.153 101.865 139.695 101.436 139.118C101.008 138.529 100.73 137.864 100.604 137.124L102.42 136.804C102.496 137.23 102.647 137.632 102.874 138.008C103.114 138.385 103.429 138.686 103.82 138.911C104.224 139.125 104.691 139.231 105.22 139.231C105.826 139.231 106.33 139.093 106.734 138.817C107.15 138.529 107.466 138.165 107.68 137.726C107.894 137.274 108.002 136.798 108.002 136.296C108.002 135.819 107.901 135.38 107.699 134.979C107.497 134.577 107.194 134.257 106.791 134.019C106.4 133.768 105.908 133.643 105.315 133.643C104.773 133.643 104.287 133.768 103.858 134.019C103.442 134.257 103.089 134.59 102.799 135.016L101.001 134.546L102.25 127.716H109.364V129.428H102.931L103.915 128.656L103.026 133.511L102.477 133.379C102.969 132.815 103.48 132.432 104.009 132.231C104.552 132.018 105.075 131.912 105.58 131.912C106.438 131.912 107.194 132.112 107.85 132.514C108.519 132.915 109.036 133.448 109.402 134.113C109.767 134.778 109.95 135.506 109.95 136.296C109.95 136.923 109.837 137.519 109.61 138.083C109.383 138.648 109.055 139.15 108.626 139.589C108.21 140.028 107.712 140.373 107.131 140.624C106.564 140.875 105.939 141 105.258 141Z" fill="black"/>
<path d="M134.027 114.777V111.672H127.897V110.223L134.216 101.662H135.9V109.941H138V111.672H135.9V114.777H134.027ZM129.41 110.6L129.316 109.941H134.027V103.619L134.273 103.826L129.41 110.6Z" fill="black"/>
<path d="M132.854 80.1893C131.895 80.1893 131.056 80.0199 130.337 79.6812C129.618 79.33 129.057 78.8408 128.654 78.2135C128.263 77.5738 128.067 76.8337 128.067 75.9932L129.902 75.8803C129.902 76.658 130.173 77.279 130.716 77.7431C131.271 78.1947 132.002 78.4205 132.911 78.4205C133.503 78.4205 134.014 78.3264 134.443 78.1383C134.872 77.9501 135.2 77.6867 135.427 77.348C135.654 76.9967 135.767 76.5828 135.767 76.1061C135.767 75.6796 135.673 75.3283 135.484 75.0524C135.307 74.7638 135.055 74.5318 134.727 74.3562C134.412 74.1805 134.027 74.0614 133.573 73.9986C133.131 73.9234 132.652 73.8857 132.135 73.8857V72.4369C132.513 72.4369 132.879 72.4055 133.232 72.3428C133.585 72.2675 133.894 72.1546 134.159 72.0041C134.437 71.8536 134.651 71.6528 134.803 71.402C134.954 71.1385 135.03 70.8186 135.03 70.4423C135.03 70.0534 134.935 69.7147 134.746 69.4262C134.569 69.1377 134.317 68.9182 133.989 68.7676C133.661 68.6046 133.276 68.523 132.835 68.523C132.103 68.523 131.529 68.7237 131.113 69.1252C130.709 69.514 130.501 70.0221 130.489 70.6493L128.672 70.5364C128.672 69.7963 128.849 69.144 129.202 68.5795C129.568 68.015 130.066 67.5759 130.697 67.2623C131.34 66.9362 132.072 66.7731 132.892 66.7731C133.674 66.7731 134.361 66.9236 134.954 67.2247C135.559 67.5132 136.032 67.9209 136.373 68.4478C136.713 68.9621 136.884 69.5642 136.884 70.2542C136.884 70.6054 136.833 70.9253 136.732 71.2138C136.631 71.4898 136.486 71.7407 136.297 71.9665C136.108 72.1923 135.887 72.3867 135.635 72.5498C135.395 72.7003 135.13 72.832 134.84 72.9449C135.206 73.0453 135.553 73.1833 135.881 73.3589C136.222 73.522 136.518 73.7352 136.77 73.9986C137.035 74.2621 137.243 74.5694 137.395 74.9207C137.546 75.2719 137.622 75.6733 137.622 76.1249C137.622 76.9278 137.42 77.6365 137.016 78.2512C136.613 78.8659 136.051 79.3425 135.332 79.6812C134.626 80.0199 133.8 80.1893 132.854 80.1893Z" fill="black"/>
<path d="M128.521 43.8531V42.3854C128.95 42.0467 129.448 41.6704 130.016 41.2564C130.583 40.8424 131.157 40.3908 131.737 39.9016C132.33 39.4124 132.879 38.8918 133.384 38.3398C133.888 37.7879 134.292 37.2109 134.594 36.6087C134.91 35.9941 135.067 35.3668 135.067 34.7271C135.067 34.0371 134.878 33.4789 134.5 33.0524C134.121 32.6133 133.554 32.3938 132.797 32.3938C132.229 32.3938 131.756 32.5255 131.378 32.789C131.012 33.0524 130.741 33.4099 130.564 33.8615C130.388 34.3131 130.293 34.8149 130.281 35.3668L128.464 35.2351C128.464 34.6204 128.559 34.0371 128.748 33.4852C128.937 32.9332 129.215 32.444 129.581 32.0175C129.959 31.5784 130.419 31.2335 130.962 30.9826C131.517 30.7317 132.147 30.6062 132.854 30.6062C133.661 30.6062 134.361 30.7756 134.954 31.1143C135.559 31.453 136.032 31.9234 136.373 32.5255C136.713 33.1277 136.884 33.8364 136.884 34.6518C136.884 35.3417 136.758 36.0066 136.505 36.6464C136.266 37.2861 135.925 37.9008 135.484 38.4904C135.042 39.0674 134.531 39.6131 133.951 40.1274C133.371 40.6417 132.747 41.131 132.078 41.5951C131.41 42.0467 130.716 42.4607 129.997 42.837L130.489 42.1408H137.413V43.8531H128.521Z" fill="black"/>
<path d="M105.372 19.2468V8.74722L105.939 9.66923H101.966V8.20154H104.161C104.564 8.20154 104.867 8.12 105.069 7.95692C105.271 7.7813 105.372 7.48024 105.372 7.05373V6.13172H107.245V19.2468H105.372Z" fill="black"/>
<path d="M64.621 19.2468V8.74722L65.1886 9.66923H61.2154V8.20154H63.4101C63.8137 8.20154 64.1164 8.12 64.3183 7.95692C64.5201 7.7813 64.621 7.48024 64.621 7.05373V6.13172H66.4941V19.2468H64.621Z" fill="black"/>
<path d="M70.7051 19.2468V17.7792C71.1339 17.4405 71.6322 17.0641 72.1998 16.6502C72.7674 16.2362 73.3413 15.7846 73.9215 15.2954C74.5143 14.8061 75.063 14.2856 75.5675 13.7336C76.0721 13.1816 76.4757 12.6046 76.7784 12.0025C77.0937 11.3878 77.2514 10.7606 77.2514 10.1208C77.2514 9.43088 77.0622 8.87266 76.6838 8.44615C76.3054 8.0071 75.7378 7.78757 74.981 7.78757C74.4134 7.78757 73.9404 7.91929 73.562 8.18272C73.1962 8.44615 72.925 8.80367 72.7484 9.25526C72.5719 9.70686 72.4773 10.2086 72.4646 10.7606L70.6483 10.6289C70.6483 10.0142 70.7429 9.43088 70.9321 8.87893C71.1213 8.32698 71.3988 7.83775 71.7646 7.41124C72.143 6.97219 72.6034 6.62722 73.1458 6.37633C73.7008 6.12544 74.3314 6 75.0378 6C75.845 6 76.5451 6.16935 77.1379 6.50805C77.7433 6.84674 78.2163 7.31716 78.5569 7.91929C78.8974 8.52142 79.0677 9.23017 79.0677 10.0456C79.0677 10.7355 78.9416 11.4003 78.6893 12.0401C78.4497 12.6799 78.1091 13.2945 77.6676 13.8841C77.2262 14.4612 76.7153 15.0069 76.1351 15.5212C75.5549 16.0355 74.9305 16.5247 74.262 16.9889C73.5935 17.4405 72.8998 17.8544 72.1808 18.2308L72.6728 17.5345H79.5975V19.2468H70.7051Z" fill="black"/>
<path d="M29.6917 19.2468V8.74722L30.2593 9.66923H26.2861V8.20154H28.4809C28.8845 8.20154 29.1872 8.12 29.389 7.95692C29.5908 7.7813 29.6917 7.48024 29.6917 7.05373V6.13172H31.5648V19.2468H29.6917Z" fill="black"/>
<path d="M40.2788 19.2468V8.74722L40.8464 9.66923H36.8732V8.20154H39.0679C39.4716 8.20154 39.7743 8.12 39.9761 7.95692C40.1779 7.7813 40.2788 7.48024 40.2788 7.05373V6.13172H42.1519V19.2468H40.2788Z" fill="black"/>
<path d="M6.4056 46.7479V36.2483L6.9732 37.1703H3V35.7026H5.19472C5.59835 35.7026 5.90107 35.6211 6.10288 35.458C6.30469 35.2824 6.4056 34.9813 6.4056 34.5548V33.6328H8.27868V46.7479H6.4056Z" fill="black"/>
<path d="M16.9548 46.8985C16.1854 46.8985 15.5358 46.7605 15.0061 46.4845C14.4889 46.2085 14.0601 45.8385 13.7195 45.3743C13.3916 44.8977 13.1393 44.3708 12.9627 43.7937C12.7987 43.2042 12.6852 42.5958 12.6221 41.9685C12.5591 41.3288 12.5275 40.7204 12.5275 40.1433C12.5275 39.5663 12.5528 38.9704 12.6032 38.3558C12.6663 37.7285 12.7798 37.1264 12.9438 36.5494C13.1204 35.9598 13.3726 35.4329 13.7006 34.9688C14.0285 34.5046 14.4511 34.1346 14.9682 33.8586C15.498 33.5826 16.1413 33.4447 16.8981 33.4447C17.6423 33.4447 18.2729 33.5826 18.7901 33.8586C19.3072 34.122 19.7298 34.4796 20.0577 34.9312C20.3983 35.3828 20.6568 35.8971 20.8334 36.4741C21.01 37.0512 21.1298 37.6596 21.1929 38.2993C21.2686 38.9265 21.3064 39.5412 21.3064 40.1433C21.3064 40.7706 21.2686 41.404 21.1929 42.0438C21.1298 42.6836 21.0037 43.292 20.8145 43.869C20.6379 44.4461 20.3857 44.9666 20.0577 45.4308C19.7298 45.8824 19.3135 46.2399 18.809 46.5033C18.3045 46.7668 17.6864 46.8985 16.9548 46.8985ZM16.9548 45.1297C17.5855 45.1297 18.0774 44.9102 18.4306 44.4711C18.7964 44.0321 19.0549 43.4425 19.2063 42.7024C19.3577 41.9623 19.4333 41.1343 19.4333 40.2186C19.4333 39.2527 19.3514 38.3997 19.1874 37.6596C19.036 36.9069 18.7775 36.311 18.4117 35.872C18.0459 35.4329 17.5413 35.2134 16.8981 35.2134C16.3935 35.2134 15.9773 35.3451 15.6493 35.6086C15.334 35.872 15.0881 36.2358 14.9115 36.6999C14.7349 37.1641 14.6087 37.6972 14.5331 38.2993C14.4574 38.8889 14.4195 39.5224 14.4195 40.1998C14.4195 40.8521 14.4574 41.473 14.5331 42.0626C14.6087 42.6522 14.7349 43.1791 14.9115 43.6432C15.1007 44.0948 15.3592 44.4586 15.6872 44.7346C16.0151 44.998 16.4377 45.1297 16.9548 45.1297Z" fill="black"/>
<path d="M8.55811 81.4862L11.888 76.2552L12.1151 76.5374C11.8628 76.7005 11.5916 76.8259 11.3015 76.9138C11.0114 76.989 10.7213 77.0267 10.4312 77.0267C9.59871 77.0267 8.84822 76.8322 8.17971 76.4433C7.51121 76.0545 6.98145 75.5339 6.59043 74.8816C6.21203 74.2167 6.02283 73.4766 6.02283 72.6612C6.02283 71.8082 6.23095 71.0493 6.64719 70.3844C7.07605 69.707 7.64365 69.1739 8.34999 68.785C9.05634 68.3961 9.83206 68.2017 10.6772 68.2017C11.5349 68.2017 12.3169 68.3961 13.0232 68.785C13.7296 69.1739 14.2909 69.7007 14.7071 70.3656C15.136 71.0305 15.3504 71.7894 15.3504 72.6424C15.3504 73.0689 15.2873 73.4892 15.1612 73.9031C15.0351 74.3045 14.8585 74.6934 14.6314 75.0697L10.6772 81.4862H8.55811ZM10.6772 75.4084C11.1943 75.4084 11.661 75.2955 12.0772 75.0697C12.4935 74.8314 12.8277 74.5052 13.08 74.0913C13.3323 73.6773 13.4584 73.2006 13.4584 72.6612C13.4584 72.1344 13.3323 71.6702 13.08 71.2688C12.8277 70.8548 12.4935 70.5349 12.0772 70.3092C11.661 70.0708 11.1943 69.9516 10.6772 69.9516C10.1726 69.9516 9.70593 70.0708 9.27707 70.3092C8.86083 70.5349 8.52658 70.8548 8.27431 71.2688C8.02205 71.6702 7.89591 72.1406 7.89591 72.68C7.89591 73.2069 8.02205 73.6773 8.27431 74.0913C8.52658 74.5052 8.86083 74.8314 9.27707 75.0697C9.69331 75.2955 10.16 75.4084 10.6772 75.4084Z" fill="black"/>
<path d="M9.24069 117.841C8.43344 117.841 7.67033 117.691 6.95137 117.39C6.24502 117.089 5.66481 116.643 5.21073 116.054C4.76926 115.464 4.54853 114.73 4.54853 113.852C4.54853 113.099 4.73142 112.435 5.09721 111.858C5.47561 111.28 6.01168 110.841 6.70541 110.54C6.25133 110.289 5.89185 109.945 5.62697 109.505C5.36209 109.066 5.22965 108.552 5.22965 107.963C5.22965 107.21 5.41885 106.57 5.79725 106.043C6.18826 105.516 6.6928 105.109 7.31085 104.82C7.9289 104.532 8.57849 104.387 9.25961 104.387C9.97857 104.387 10.6408 104.538 11.2462 104.839C11.8516 105.127 12.3373 105.541 12.703 106.081C13.0688 106.62 13.2517 107.26 13.2517 108C13.2517 108.602 13.1193 109.117 12.8544 109.543C12.5895 109.957 12.23 110.289 11.776 110.54C12.4697 110.841 12.9995 111.28 13.3652 111.858C13.7436 112.435 13.9328 113.099 13.9328 113.852C13.9328 114.73 13.7058 115.464 13.2517 116.054C12.8103 116.643 12.2364 117.089 11.53 117.39C10.8237 117.691 10.0606 117.841 9.24069 117.841ZM9.24069 116.091C9.77045 116.091 10.2434 116.003 10.6597 115.828C11.0885 115.64 11.4291 115.37 11.6814 115.019C11.9462 114.655 12.0787 114.21 12.0787 113.683C12.0787 113.181 11.9526 112.754 11.7003 112.403C11.4606 112.039 11.1264 111.763 10.6975 111.575C10.2813 111.375 9.79567 111.274 9.24069 111.274C8.6857 111.274 8.19378 111.375 7.76493 111.575C7.34869 111.763 7.01444 112.039 6.76217 112.403C6.52252 112.754 6.40269 113.181 6.40269 113.683C6.40269 114.21 6.52882 114.655 6.78109 115.019C7.04597 115.37 7.39284 115.64 7.82169 115.828C8.25054 116.003 8.72354 116.091 9.24069 116.091ZM9.27853 110.014C9.89658 110.014 10.4074 109.844 10.811 109.505C11.2147 109.154 11.4165 108.696 11.4165 108.132C11.4165 107.542 11.221 107.066 10.83 106.702C10.439 106.325 9.9155 106.137 9.25961 106.137C8.85598 106.137 8.49019 106.219 8.16225 106.382C7.8343 106.532 7.56942 106.752 7.36761 107.04C7.17841 107.316 7.08381 107.661 7.08381 108.075C7.08381 108.665 7.28562 109.135 7.68925 109.487C8.09288 109.838 8.62264 110.014 9.27853 110.014Z" fill="black"/>
<path d="M48.2232 111.882V106.838H48.6962V109.089H51.3741V106.838H51.8543V111.882H51.3741V109.53H48.6962V111.882H48.2232Z" fill="black"/>
<path d="M53.4621 110.232V109.624L56.14 106.838H56.7804L53.4621 110.232ZM53.091 111.882V106.838H53.564V111.882H53.091ZM56.2419 111.882L54.4591 109.074L54.8157 108.748L56.8023 111.882H56.2419Z" fill="black"/>
<path d="M61.5534 111.955C61.0974 111.955 60.6971 111.848 60.3527 111.636C60.0131 111.419 59.7487 111.115 59.5595 110.724C59.3703 110.333 59.2757 109.877 59.2757 109.356C59.2757 108.835 59.3703 108.382 59.5595 107.996C59.7536 107.605 60.0228 107.303 60.3673 107.091C60.7166 106.874 61.1192 106.765 61.5752 106.765C62.0701 106.765 62.4994 106.889 62.8632 107.135C63.2271 107.376 63.4891 107.711 63.6492 108.141L63.2053 108.307C63.0743 107.969 62.8705 107.704 62.594 107.511C62.3175 107.318 61.9779 107.221 61.5752 107.221C61.2065 107.221 60.8839 107.308 60.6074 107.482C60.3357 107.656 60.1247 107.902 59.9743 108.22C59.8239 108.539 59.7487 108.917 59.7487 109.356C59.7487 109.795 59.8239 110.177 59.9743 110.5C60.1247 110.818 60.3357 111.064 60.6074 111.238C60.8839 111.412 61.2065 111.499 61.5752 111.499C61.7644 111.499 61.9536 111.474 62.1428 111.426C62.3369 111.373 62.5164 111.284 62.6813 111.158C62.8463 111.033 62.9772 110.862 63.0743 110.645C63.1761 110.423 63.2271 110.143 63.2271 109.805V109.393L63.3362 109.711H61.9245V109.284H63.6492V111.882H63.2271L63.1616 110.811L63.2416 110.862C63.1592 111.122 63.0306 111.332 62.856 111.491C62.6813 111.651 62.48 111.769 62.252 111.846C62.024 111.918 61.7911 111.955 61.5534 111.955Z" fill="black"/>
<path d="M64.781 111.882V106.838H66.2073C66.5808 106.838 66.8889 106.893 67.1314 107.004C67.3789 107.115 67.5632 107.274 67.6845 107.482C67.8106 107.689 67.8737 107.94 67.8737 108.235C67.8737 108.635 67.7573 108.954 67.5244 109.19C67.2915 109.426 66.9544 109.569 66.5129 109.617C66.445 109.622 66.3625 109.627 66.2655 109.631C66.1733 109.631 66.0836 109.631 65.9962 109.631H65.254V111.882H64.781ZM67.6627 111.882L66.3164 109.566L66.804 109.501L68.2084 111.882H67.6627ZM65.254 109.212H66.1563C66.4135 109.212 66.6342 109.178 66.8185 109.11C67.0029 109.038 67.1436 108.932 67.2406 108.792C67.3425 108.647 67.3934 108.461 67.3934 108.235C67.3934 108.008 67.3425 107.825 67.2406 107.685C67.1387 107.54 66.9956 107.434 66.8113 107.366C66.6269 107.299 66.4086 107.265 66.1563 107.265H65.254V109.212Z" fill="black"/>
<path d="M71.0693 111.955C70.6133 111.955 70.2107 111.848 69.8614 111.636C69.5169 111.419 69.2477 111.117 69.0536 110.731C68.8644 110.341 68.7698 109.885 68.7698 109.364C68.7698 108.843 68.8644 108.387 69.0536 107.996C69.2477 107.605 69.5169 107.303 69.8614 107.091C70.2107 106.874 70.6133 106.765 71.0693 106.765C71.5399 106.765 71.9474 106.874 72.2919 107.091C72.6412 107.303 72.9104 107.605 73.0996 107.996C73.2937 108.387 73.3907 108.843 73.3907 109.364C73.3907 109.885 73.2937 110.341 73.0996 110.731C72.9056 111.117 72.6339 111.419 72.2846 111.636C71.9401 111.848 71.5351 111.955 71.0693 111.955ZM71.0693 111.499C71.4477 111.499 71.7728 111.412 72.0444 111.238C72.321 111.064 72.5344 110.818 72.6848 110.5C72.8352 110.177 72.9104 109.798 72.9104 109.364C72.9104 108.925 72.8352 108.546 72.6848 108.227C72.5344 107.904 72.321 107.656 72.0444 107.482C71.7728 107.308 71.4477 107.221 71.0693 107.221C70.7006 107.221 70.378 107.308 70.1015 107.482C69.8298 107.656 69.6188 107.902 69.4684 108.22C69.318 108.539 69.2428 108.92 69.2428 109.364C69.2428 109.803 69.318 110.181 69.4684 110.5C69.6188 110.818 69.8298 111.064 70.1015 111.238C70.378 111.412 70.7006 111.499 71.0693 111.499Z" fill="black"/>
<path d="M75.3073 111.882V107.265H73.5317V106.838H77.5559V107.265H75.7876V111.882H75.3073Z" fill="black"/>
<path d="M78.3186 111.882V106.838H81.6369V107.265H78.7916V109.103H81.3458V109.53H78.7916V111.455H81.6369V111.882H78.3186Z" fill="black"/>
<path d="M83.9605 111.947C83.4657 111.947 83.0606 111.819 82.7453 111.564C82.4299 111.308 82.2383 110.968 82.1704 110.543L82.6361 110.427C82.6943 110.785 82.8423 111.057 83.08 111.245C83.3226 111.429 83.6209 111.52 83.9751 111.52C84.1837 111.52 84.3705 111.479 84.5354 111.397C84.7052 111.315 84.8386 111.199 84.9356 111.05C85.0327 110.9 85.0812 110.729 85.0812 110.536C85.0812 110.329 85.0254 110.162 84.9138 110.037C84.8022 109.906 84.6543 109.795 84.4699 109.704C84.2856 109.612 84.077 109.523 83.8441 109.436C83.5821 109.335 83.3468 109.226 83.1382 109.11C82.9296 108.99 82.7647 108.845 82.6434 108.676C82.527 108.507 82.4688 108.297 82.4688 108.046C82.4688 107.796 82.5294 107.576 82.6507 107.388C82.772 107.195 82.9417 107.043 83.1601 106.932C83.3832 106.821 83.6403 106.765 83.9314 106.765C84.2419 106.765 84.516 106.835 84.7537 106.975C84.9914 107.115 85.183 107.32 85.3286 107.591L84.9502 107.822C84.8337 107.619 84.6882 107.463 84.5136 107.352C84.3438 107.241 84.1449 107.185 83.9169 107.185C83.7228 107.185 83.553 107.221 83.4075 107.294C83.2619 107.366 83.1479 107.467 83.0655 107.598C82.983 107.723 82.9417 107.868 82.9417 108.032C82.9417 108.206 82.9878 108.353 83.08 108.473C83.177 108.594 83.3129 108.698 83.4875 108.785C83.667 108.871 83.8756 108.958 84.1133 109.045C84.3947 109.151 84.6421 109.267 84.8556 109.393C85.0739 109.513 85.2437 109.663 85.365 109.841C85.4862 110.02 85.5469 110.242 85.5469 110.507C85.5469 110.787 85.479 111.035 85.3431 111.253C85.2073 111.47 85.0205 111.641 84.7828 111.766C84.5451 111.887 84.271 111.947 83.9605 111.947Z" fill="black"/>
<path d="M86.9047 110.232V109.624L89.5826 106.838H90.223L86.9047 110.232ZM86.5336 111.882V106.838H87.0066V111.882H86.5336ZM89.6845 111.882L87.9017 109.074L88.2582 108.748L90.2448 111.882H89.6845Z" fill="black"/>
<ellipse cx="70" cy="73.5" rx="7" ry="7.5" fill="black"/>
<rect x="37.7676" y="48.6316" width="35.5991" height="6.37124" transform="rotate(33.6323 37.7676 48.6316)" fill="black"/>
<rect x="109.766" y="38.1046" width="46.9886" height="6.37124" transform="rotate(134.102 109.766 38.1046)" fill="black"/>
<line x1="70.2254" y1="74.077" x2="116.556" y2="73.4253" stroke="black"/>
</svg>
