<svg width="289" height="327" viewBox="0 0 289 327" fill="none" xmlns="http://www.w3.org/2000/svg">
<path d="M113.333 307.334C120.742 316.488 131.719 321.492 146.264 322.345C161.069 323.213 172.692 319.469 181.135 311.114C189.707 302.767 194.479 290.357 195.451 273.886L191.566 273.463C190.969 283.579 188.837 292.109 185.169 299.052C181.509 305.865 176.452 310.97 169.996 314.366C163.548 317.632 155.714 318.994 146.494 318.454C137.403 317.921 129.845 315.721 123.818 311.853C117.928 307.864 113.563 302.337 110.722 295.273C108.019 288.086 106.962 279.5 107.551 269.513L103.643 269.479C102.694 285.561 105.924 298.18 113.333 307.334Z" fill="black"/>
<circle cx="145.07" cy="171" r="113.5" transform="rotate(-5.33531 145.07 171)" fill="white" stroke="black" stroke-width="3"/>
<g clip-path="url(#clip0_643_992)">
<path d="M140.636 327.99C122.902 325.418 109.974 318.127 101.854 306.117C93.7335 294.108 91.097 278.286 93.9444 258.651L109.272 152.957L114.023 153.645L98.7292 259.102C96.961 271.295 97.357 281.942 99.9173 291.043C102.659 300.01 107.429 307.249 114.228 312.762C121.209 318.14 130.241 321.632 141.325 323.24C152.568 324.87 162.31 324.02 170.554 320.688C178.82 317.198 185.553 311.465 190.751 303.489C195.973 295.354 199.479 285.111 201.271 272.76L216.392 168.491L221.142 169.18L205.986 273.687C203.07 293.796 195.922 308.523 184.544 317.867C173.323 327.233 158.687 330.608 140.636 327.99ZM185.504 137.336L188.741 115.009L195.154 115.939L191.916 138.266L185.504 137.336ZM145.838 131.583L149.076 109.257L155.489 110.187L152.251 132.513L145.838 131.583Z" fill="black"/>
</g>
<circle cx="145.07" cy="171" r="97.5" transform="rotate(-5.33531 145.07 171)" stroke="black" stroke-width="3"/>
<defs>
<clipPath id="clip0_643_992">
<rect x="102.827" width="207.605" height="227.563" rx="81" transform="rotate(26.8631 102.827 0)" fill="white"/>
</clipPath>
</defs>
</svg>
